<svg width="24" height="24" viewBox="0 0 24 24" fill="" xmlns="http://www.w3.org/2000/svg" data-reactroot="">
<path fill="" d="M2 12C2 11.4477 2.44772 11 3 11H21C21.5523 11 22 11.4477 22 12C22 12.5523 21.5523 13 21 13H3C2.44772 13 2 12.5523 2 12Z" clip-rule="evenodd" fill-rule="evenodd" undefined="1"></path>
<path fill="" d="M9.70711 5.29289C10.0976 5.68342 10.0976 6.31658 9.70711 6.70711L4.41421 12L9.70711 17.2929C10.0976 17.6834 10.0976 18.3166 9.70711 18.7071C9.31658 19.0976 8.68342 19.0976 8.29289 18.7071L2.29289 12.7071C1.90237 12.3166 1.90237 11.6834 2.29289 11.2929L8.29289 5.29289C8.68342 4.90237 9.31658 4.90237 9.70711 5.29289Z" clip-rule="evenodd" fill-rule="evenodd" undefined="1"></path>
</svg>
