<svg width="24" height="24" viewBox="0 0 24 24" fill="" xmlns="http://www.w3.org/2000/svg" data-reactroot="">
<path fill="" d="M17.8701 15.5C17.9501 16.29 18.0001 17.15 18.0001 18C19.5001 18 21.0001 20 21.0001 20C21.0001 20 20.9801 18.73 20.7001 18C20.2601 16.85 19.2201 15.69 17.8701 15.5Z" undefined="1"></path>
<path fill="" d="M6.13 15.5C4.76 15.68 3.75 16.82 3.3 18C3.02 18.73 3 20 3 20C3 20 4.5 18 6 18C6 17.15 6.05 16.3 6.13 15.5Z" undefined="1"></path>
<path fill="" d="M18 18H6C6 12.98 7.61 8.87001 9.16 6.07001C9.33 6.21001 9.57 6.39001 9.93 6.56001C10.4 6.77001 11.06 6.95001 11.99 6.95001C12.92 6.95001 13.58 6.77001 14.06 6.56001C14.42 6.39001 14.67 6.21001 14.84 6.07001C16.39 8.87001 18 12.98 18 18Z" undefined="1"></path>
<path fill="" d="M12 16C12.55 16 13 16.45 13 17V20C13 20.55 12.55 21 12 21C11.45 21 11 20.55 11 20V17C11 16.45 11.45 16 12 16Z" clip-rule="evenodd" fill-rule="evenodd" undefined="1"></path>
<path stroke-width="2" stroke="" d="M12.1201 14C13.2247 14 14.1201 13.1046 14.1201 12C14.1201 10.8954 13.2247 10 12.1201 10C11.0155 10 10.1201 10.8954 10.1201 12C10.1201 13.1046 11.0155 14 12.1201 14Z"></path>
<path fill="" d="M12.1201 14C13.2247 14 14.1201 13.1046 14.1201 12C14.1201 10.8954 13.2247 10 12.1201 10C11.0155 10 10.1201 10.8954 10.1201 12C10.1201 13.1046 11.0155 14 12.1201 14Z" undefined="1"></path>
<path stroke-linejoin="round" stroke-miterlimit="10" stroke-width="2" stroke="" d="M14.8402 6.07001C14.6702 6.21001 14.4202 6.39001 14.0602 6.56001C13.5902 6.77001 12.9202 6.95001 11.9902 6.95001C11.0602 6.95001 10.4002 6.77001 9.94016 6.56001C9.57016 6.39001 9.33016 6.21001 9.16016 6.07001"></path>
<path fill="" d="M14.8402 6.07C14.6702 6.21 14.4202 6.39 14.0602 6.56C13.5902 6.77 12.9202 6.95 11.9902 6.95C11.0602 6.95 10.4002 6.77 9.94016 6.56C9.57016 6.39 9.33016 6.21 9.16016 6.07C10.6102 3.47 12.0002 2 12.0002 2C12.0002 2 13.3902 3.47 14.8402 6.07Z" clip-rule="evenodd" fill-rule="evenodd" undefined="1"></path>
</svg>
