<svg width="24" height="24" viewBox="0 0 24 24" fill="" xmlns="http://www.w3.org/2000/svg" data-reactroot="">
<path fill="" d="M11.2929 12.7071C11.6834 13.0976 12.3166 13.0976 12.7071 12.7071L20.7071 4.70711C21.0976 4.31658 21.0976 3.68342 20.7071 3.29289C20.3166 2.90237 19.6834 2.90237 19.2929 3.29289L12 10.5858L4.70711 3.29289C4.31658 2.90237 3.68342 2.90237 3.29289 3.29289C2.90237 3.68342 2.90237 4.31658 3.29289 4.70711L11.2929 12.7071Z" clip-rule="evenodd" fill-rule="evenodd" undefined="1"></path>
<path fill="" d="M11.2929 20.7071C11.6834 21.0976 12.3166 21.0976 12.7071 20.7071L20.7071 12.7071C21.0976 12.3166 21.0976 11.6834 20.7071 11.2929C20.3166 10.9024 19.6834 10.9024 19.2929 11.2929L12 18.5858L4.70711 11.2929C4.31658 10.9024 3.68342 10.9024 3.29289 11.2929C2.90237 11.6834 2.90237 12.3166 3.29289 12.7071L11.2929 20.7071Z" clip-rule="evenodd" fill-rule="evenodd" undefined="1"></path>
</svg>
