<svg width="24" height="24" viewBox="0 0 24 24" fill="none" xmlns="http://www.w3.org/2000/svg" data-reactroot="">
<path stroke-linejoin="round" stroke-linecap="round" stroke-miterlimit="10" stroke-width="2" stroke="" fill="none" d="M21 22H3C2.45 22 2 21.55 2 21V12H22V21C22 21.55 21.55 22 21 22Z"></path>
<path fill="none" d="M17 5H21C21.55 5 22 5.45 22 6V12H2V6C2 5.45 2.45 5 3 5H7" undefined="1"></path>
<path stroke-linejoin="round" stroke-linecap="round" stroke-miterlimit="10" stroke-width="2" stroke="" d="M17 5H21C21.55 5 22 5.45 22 6V12H2V6C2 5.45 2.45 5 3 5H7"></path>
<path stroke-linejoin="round" stroke-linecap="round" stroke-miterlimit="10" stroke-width="2" stroke="" d="M14 5H10"></path>
<path stroke-miterlimit="10" stroke-width="2" stroke="" fill="none" d="M15.5 8C14.67 8 14 7.33 14 6.5V3.5C14 2.67 14.67 2 15.5 2C16.33 2 17 2.67 17 3.5V6.5C17 7.33 16.33 8 15.5 8Z"></path>
<path stroke-miterlimit="10" stroke-width="2" stroke="" fill="none" d="M8.5 8C7.67 8 7 7.33 7 6.5V3.5C7 2.67 7.67 2 8.5 2C9.33 2 10 2.67 10 3.5V6.5C10 7.33 9.33 8 8.5 8Z"></path>
<path stroke-linejoin="round" stroke-linecap="round" stroke-miterlimit="10" stroke-width="2" stroke="" d="M17.5 19H18.5"></path>
<path stroke-linejoin="round" stroke-linecap="round" stroke-miterlimit="10" stroke-width="2" stroke="" d="M13.5 19H14.5"></path>
<path stroke-linejoin="round" stroke-linecap="round" stroke-miterlimit="10" stroke-width="2" stroke="" d="M9.5 19H10.5"></path>
<path stroke-linejoin="round" stroke-linecap="round" stroke-miterlimit="10" stroke-width="2" stroke="" d="M5.5 19H6.5"></path>
<path stroke-linejoin="round" stroke-linecap="round" stroke-miterlimit="10" stroke-width="2" stroke="" d="M17.5 15H18.5"></path>
<path stroke-linejoin="round" stroke-linecap="round" stroke-miterlimit="10" stroke-width="2" stroke="" d="M13.5 15H14.5"></path>
<path stroke-linejoin="round" stroke-linecap="round" stroke-miterlimit="10" stroke-width="2" stroke="" d="M9.5 15H10.5"></path>
<path stroke-linejoin="round" stroke-linecap="round" stroke-miterlimit="10" stroke-width="2" stroke="" d="M5.5 15H6.5"></path>
</svg>
