<svg width="200" height="150" viewBox="0 0 800 600" fill="none" xmlns="http://www.w3.org/2000/svg" data-reactroot="">
<path d="M183.718 292.003C183.718 292.003 170.123 320.138 166.177 314.435C163.632 310.757 165.013 303.631 165.013 303.631C165.013 303.631 147.072 325.876 142.779 321.838C138.487 317.8 135.076 298.451 140.534 293.203C145.884 288.059 164.038 271.521 170.015 274.295C175.991 277.069 183.718 292.003 183.718 292.003Z" fill="#F2DEB8"></path>
<path fill-rule="evenodd" clip-rule="evenodd" d="M146.389 296.493C146.617 296.311 146.95 296.348 147.132 296.576C147.314 296.803 147.277 297.136 147.05 297.318L146.72 296.906L146.389 296.493ZM137.467 304.971C137.195 305.187 136.99 305.348 136.941 305.38C136.699 305.542 136.371 305.476 136.209 305.234C136.047 304.991 136.113 304.663 136.355 304.501C136.351 304.504 136.356 304.501 136.373 304.487C136.391 304.474 136.421 304.45 136.469 304.412C136.552 304.348 136.667 304.257 136.811 304.143C137.1 303.914 137.502 303.595 137.978 303.215C138.932 302.456 140.184 301.456 141.43 300.46C142.676 299.464 143.916 298.472 144.844 297.73L146.389 296.493C146.39 296.493 146.389 296.493 146.72 296.906C147.05 297.318 147.05 297.318 147.05 297.318L145.504 298.555C144.576 299.297 143.336 300.289 142.09 301.285C140.843 302.281 139.59 303.282 138.636 304.041C138.159 304.421 137.757 304.741 137.467 304.971Z" fill="#C4B6FF"></path>
<path fill-rule="evenodd" clip-rule="evenodd" d="M148.233 301.461C148.461 301.279 148.793 301.317 148.975 301.544C149.157 301.772 149.12 302.105 148.892 302.287L148.563 301.874L148.233 301.461ZM136.589 312.093C136.501 312.162 136.417 312.228 136.383 312.251C136.14 312.413 135.812 312.347 135.65 312.104C135.488 311.862 135.554 311.534 135.797 311.372C135.792 311.375 135.799 311.37 135.822 311.352C135.844 311.335 135.881 311.306 135.937 311.262C136.037 311.184 136.179 311.072 136.356 310.932C136.71 310.651 137.206 310.257 137.795 309.789C138.974 308.851 140.526 307.613 142.073 306.379C143.619 305.146 145.159 303.916 146.313 302.995L148.233 301.461C148.233 301.461 148.233 301.461 148.563 301.874C148.892 302.287 148.892 302.287 148.892 302.287L146.972 303.821C145.818 304.742 144.278 305.971 142.731 307.205C141.185 308.439 139.632 309.677 138.453 310.615C137.863 311.084 137.367 311.478 137.011 311.76C136.834 311.9 136.691 312.013 136.589 312.093Z" fill="#C4B6FF"></path>
<path fill-rule="evenodd" clip-rule="evenodd" d="M150.076 306.43C150.304 306.248 150.636 306.285 150.818 306.513C151.001 306.741 150.963 307.073 150.735 307.255L150.406 306.843L150.076 306.43ZM138.432 317.062C138.344 317.131 138.261 317.196 138.226 317.22C137.983 317.381 137.655 317.316 137.493 317.073C137.332 316.83 137.397 316.503 137.64 316.341C137.635 316.344 137.642 316.339 137.665 316.321C137.687 316.304 137.724 316.275 137.78 316.231C137.88 316.152 138.022 316.041 138.199 315.9C138.553 315.62 139.049 315.226 139.638 314.757C140.817 313.82 142.369 312.582 143.916 311.348C145.462 310.114 147.002 308.885 148.156 307.964L150.076 306.43C150.076 306.43 150.076 306.43 150.406 306.843C150.735 307.255 150.736 307.255 150.735 307.255L148.815 308.789C147.661 309.71 146.121 310.94 144.575 312.174C143.028 313.408 141.475 314.646 140.296 315.584C139.706 316.053 139.21 316.447 138.855 316.729C138.677 316.869 138.534 316.982 138.432 317.062Z" fill="#C4B6FF"></path>
<path d="M300.475 569.508C301.406 569.508 302.16 568.754 302.16 567.823C302.16 566.892 301.406 566.137 300.475 566.137C299.544 566.137 298.789 566.892 298.789 567.823C298.789 568.754 299.544 569.508 300.475 569.508Z" fill="#C4B6FF"></path>
<path d="M428.967 572.972C429.898 572.972 430.653 572.217 430.653 571.286C430.653 570.355 429.898 569.601 428.967 569.601C428.036 569.601 427.282 570.355 427.282 571.286C427.282 572.217 428.036 572.972 428.967 572.972Z" fill="#C4B6FF"></path>
<path d="M221.396 580.832C222.327 580.832 223.082 580.078 223.082 579.147C223.082 578.216 222.327 577.461 221.396 577.461C220.465 577.461 219.711 578.216 219.711 579.147C219.711 580.078 220.465 580.832 221.396 580.832Z" fill="#C4B6FF"></path>
<path d="M218.025 574.565C218.956 574.565 219.711 573.81 219.711 572.879C219.711 571.949 218.956 571.194 218.025 571.194C217.094 571.194 216.34 571.949 216.34 572.879C216.34 573.81 217.094 574.565 218.025 574.565Z" fill="#C4B6FF"></path>
<path d="M94.7203 575.776C95.6512 575.776 96.4058 575.021 96.4058 574.09C96.4058 573.159 95.6512 572.405 94.7203 572.405C93.7894 572.405 93.0347 573.159 93.0347 574.09C93.0347 575.021 93.7894 575.776 94.7203 575.776Z" fill="#C4B6FF"></path>
<path d="M442.962 575.097C443.892 575.097 444.647 574.343 444.647 573.412C444.647 572.481 443.892 571.726 442.962 571.726C442.031 571.726 441.276 572.481 441.276 573.412C441.276 574.343 442.031 575.097 442.962 575.097Z" fill="#C4B6FF"></path>
<path d="M235.218 567.823C236.149 567.823 236.903 567.068 236.903 566.137C236.903 565.207 236.149 564.452 235.218 564.452C234.287 564.452 233.532 565.207 233.532 566.137C233.532 567.068 234.287 567.823 235.218 567.823Z" fill="#C4B6FF"></path>
<path d="M412.79 571.194C413.721 571.194 414.476 570.439 414.476 569.508C414.476 568.577 413.721 567.823 412.79 567.823C411.859 567.823 411.105 568.577 411.105 569.508C411.105 570.439 411.859 571.194 412.79 571.194Z" fill="#C4B6FF"></path>
<path d="M458.803 579.571C459.734 579.571 460.488 578.816 460.488 577.885C460.488 576.954 459.734 576.2 458.803 576.2C457.872 576.2 457.117 576.954 457.117 577.885C457.117 578.816 457.872 579.571 458.803 579.571Z" fill="#C4B6FF"></path>
<path d="M399.5 580.275C400.431 580.275 401.186 579.521 401.186 578.59C401.186 577.659 400.431 576.904 399.5 576.904C398.569 576.904 397.815 577.659 397.815 578.59C397.815 579.521 398.569 580.275 399.5 580.275Z" fill="#C4B6FF"></path>
<path d="M233.532 577.461C234.463 577.461 235.218 576.707 235.218 575.776C235.218 574.845 234.463 574.09 233.532 574.09C232.601 574.09 231.847 574.845 231.847 575.776C231.847 576.707 232.601 577.461 233.532 577.461Z" fill="#C4B6FF"></path>
<path d="M262.29 572.202C263.22 572.202 263.975 571.448 263.975 570.517C263.975 569.586 263.22 568.831 262.29 568.831C261.359 568.831 260.604 569.586 260.604 570.517C260.604 571.448 261.359 572.202 262.29 572.202Z" fill="#C4B6FF"></path>
<path d="M276.467 569.508C277.398 569.508 278.153 568.754 278.153 567.823C278.153 566.892 277.398 566.137 276.467 566.137C275.537 566.137 274.782 566.892 274.782 567.823C274.782 568.754 275.537 569.508 276.467 569.508Z" fill="#C4B6FF"></path>
<path d="M550.308 575.097C551.239 575.097 551.994 574.343 551.994 573.412C551.994 572.481 551.239 571.726 550.308 571.726C549.377 571.726 548.623 572.481 548.623 573.412C548.623 574.343 549.377 575.097 550.308 575.097Z" fill="#C4B6FF"></path>
<path d="M209.867 578.589C210.798 578.589 211.553 577.835 211.553 576.904C211.553 575.973 210.798 575.218 209.867 575.218C208.936 575.218 208.182 575.973 208.182 576.904C208.182 577.835 208.936 578.589 209.867 578.589Z" fill="#C4B6FF"></path>
<path d="M422.533 581.257C423.464 581.257 424.218 580.502 424.218 579.571C424.218 578.64 423.464 577.885 422.533 577.885C421.602 577.885 420.847 578.64 420.847 579.571C420.847 580.502 421.602 581.257 422.533 581.257Z" fill="#C4B6FF"></path>
<path d="M201.446 572.879C202.377 572.879 203.132 572.125 203.132 571.194C203.132 570.263 202.377 569.508 201.446 569.508C200.516 569.508 199.761 570.263 199.761 571.194C199.761 572.125 200.516 572.879 201.446 572.879Z" fill="#C4B6FF"></path>
<path d="M191.417 580.832C192.348 580.832 193.103 580.078 193.103 579.147C193.103 578.216 192.348 577.461 191.417 577.461C190.486 577.461 189.732 578.216 189.732 579.147C189.732 580.078 190.486 580.832 191.417 580.832Z" fill="#C4B6FF"></path>
<path d="M145.618 575.097C146.549 575.097 147.304 574.343 147.304 573.412C147.304 572.481 146.549 571.726 145.618 571.726C144.687 571.726 143.933 572.481 143.933 573.412C143.933 574.343 144.687 575.097 145.618 575.097Z" fill="#C4B6FF"></path>
<path d="M504.674 574.658C505.605 574.658 506.36 573.903 506.36 572.972C506.36 572.041 505.605 571.286 504.674 571.286C503.743 571.286 502.989 572.041 502.989 572.972C502.989 573.903 503.743 574.658 504.674 574.658Z" fill="#C4B6FF"></path>
<path d="M289.514 569.508C290.445 569.508 291.199 568.754 291.199 567.823C291.199 566.892 290.445 566.137 289.514 566.137C288.583 566.137 287.828 566.892 287.828 567.823C287.828 568.754 288.583 569.508 289.514 569.508Z" fill="#C4B6FF"></path>
<path d="M254.883 578.302C255.814 578.302 256.569 577.547 256.569 576.616C256.569 575.686 255.814 574.931 254.883 574.931C253.952 574.931 253.198 575.686 253.198 576.616C253.198 577.547 253.952 578.302 254.883 578.302Z" fill="#C4B6FF"></path>
<path d="M155.364 579.825C156.294 579.825 157.049 579.071 157.049 578.14C157.049 577.209 156.294 576.454 155.364 576.454C154.433 576.454 153.678 577.209 153.678 578.14C153.678 579.071 154.433 579.825 155.364 579.825Z" fill="#C4B6FF"></path>
<path d="M249.567 569.508C250.498 569.508 251.252 568.754 251.252 567.823C251.252 566.892 250.498 566.137 249.567 566.137C248.636 566.137 247.881 566.892 247.881 567.823C247.881 568.754 248.636 569.508 249.567 569.508Z" fill="#C4B6FF"></path>
<path d="M245.328 579.988C246.259 579.988 247.014 579.233 247.014 578.302C247.014 577.371 246.259 576.617 245.328 576.617C244.397 576.617 243.642 577.371 243.642 578.302C243.642 579.233 244.397 579.988 245.328 579.988Z" fill="#C4B6FF"></path>
<path d="M467.78 565.081C468.711 565.081 469.465 564.326 469.465 563.395C469.465 562.464 468.711 561.71 467.78 561.71C466.849 561.71 466.094 562.464 466.094 563.395C466.094 564.326 466.849 565.081 467.78 565.081Z" fill="#C4B6FF"></path>
<path d="M449.955 564.24C450.886 564.24 451.64 563.485 451.64 562.554C451.64 561.624 450.886 560.869 449.955 560.869C449.024 560.869 448.269 561.624 448.269 562.554C448.269 563.485 449.024 564.24 449.955 564.24Z" fill="#C4B6FF"></path>
<path d="M476.702 573.813C477.633 573.813 478.387 573.058 478.387 572.127C478.387 571.196 477.633 570.442 476.702 570.442C475.771 570.442 475.016 571.196 475.016 572.127C475.016 573.058 475.771 573.813 476.702 573.813Z" fill="#C4B6FF"></path>
<path d="M484.763 565.081C485.694 565.081 486.449 564.326 486.449 563.395C486.449 562.464 485.694 561.71 484.763 561.71C483.832 561.71 483.077 562.464 483.077 563.395C483.077 564.326 483.832 565.081 484.763 565.081Z" fill="#C4B6FF"></path>
<path d="M133.467 580.832C134.398 580.832 135.153 580.078 135.153 579.147C135.153 578.216 134.398 577.461 133.467 577.461C132.536 577.461 131.782 578.216 131.782 579.147C131.782 580.078 132.536 580.832 133.467 580.832Z" fill="#C4B6FF"></path>
<path d="M123.165 575.776C124.096 575.776 124.851 575.021 124.851 574.09C124.851 573.159 124.096 572.405 123.165 572.405C122.234 572.405 121.48 573.159 121.48 574.09C121.48 575.021 122.234 575.776 123.165 575.776Z" fill="#C4B6FF"></path>
<path d="M281.267 578.302C282.198 578.302 282.952 577.547 282.952 576.616C282.952 575.686 282.198 574.931 281.267 574.931C280.336 574.931 279.581 575.686 279.581 576.616C279.581 577.547 280.336 578.302 281.267 578.302Z" fill="#C4B6FF"></path>
<path d="M497.689 565.081C498.62 565.081 499.375 564.326 499.375 563.395C499.375 562.464 498.62 561.71 497.689 561.71C496.758 561.71 496.004 562.464 496.004 563.395C496.004 564.326 496.758 565.081 497.689 565.081Z" fill="#C4B6FF"></path>
<path d="M519.006 565.081C519.937 565.081 520.692 564.326 520.692 563.395C520.692 562.464 519.937 561.71 519.006 561.71C518.075 561.71 517.32 562.464 517.32 563.395C517.32 564.326 518.075 565.081 519.006 565.081Z" fill="#C4B6FF"></path>
<path d="M535.071 562.554C536.001 562.554 536.756 561.8 536.756 560.869C536.756 559.938 536.001 559.183 535.071 559.183C534.14 559.183 533.385 559.938 533.385 560.869C533.385 561.8 534.14 562.554 535.071 562.554Z" fill="#C4B6FF"></path>
<path d="M271.288 577.461C272.219 577.461 272.974 576.707 272.974 575.776C272.974 574.845 272.219 574.09 271.288 574.09C270.357 574.09 269.603 574.845 269.603 575.776C269.603 576.707 270.357 577.461 271.288 577.461Z" fill="#C4B6FF"></path>
<path d="M535.958 572.972C536.889 572.972 537.644 572.217 537.644 571.286C537.644 570.355 536.889 569.601 535.958 569.601C535.027 569.601 534.273 570.355 534.273 571.286C534.273 572.217 535.027 572.972 535.958 572.972Z" fill="#C4B6FF"></path>
<path d="M168.841 576.783C169.772 576.783 170.526 576.028 170.526 575.097C170.526 574.167 169.772 573.412 168.841 573.412C167.91 573.412 167.155 574.167 167.155 575.097C167.155 576.028 167.91 576.783 168.841 576.783Z" fill="#C4B6FF"></path>
<path d="M183.952 572.879C184.883 572.879 185.637 572.125 185.637 571.194C185.637 570.263 184.883 569.508 183.952 569.508C183.021 569.508 182.266 570.263 182.266 571.194C182.266 572.125 183.021 572.879 183.952 572.879Z" fill="#C4B6FF"></path>
<path d="M585.378 564.24C586.309 564.24 587.064 563.485 587.064 562.554C587.064 561.624 586.309 560.869 585.378 560.869C584.447 560.869 583.693 561.624 583.693 562.554C583.693 563.485 584.447 564.24 585.378 564.24Z" fill="#C4B6FF"></path>
<path d="M328.387 580.832C329.318 580.832 330.073 580.078 330.073 579.147C330.073 578.216 329.318 577.461 328.387 577.461C327.456 577.461 326.702 578.216 326.702 579.147C326.702 580.078 327.456 580.832 328.387 580.832Z" fill="#C4B6FF"></path>
<path d="M57.4805 576.783C58.4114 576.783 59.166 576.028 59.166 575.097C59.166 574.167 58.4114 573.412 57.4805 573.412C56.5496 573.412 55.7949 574.167 55.7949 575.097C55.7949 576.028 56.5496 576.783 57.4805 576.783Z" fill="#C4B6FF"></path>
<path d="M74.6641 579.988C75.595 579.988 76.3496 579.233 76.3496 578.302C76.3496 577.371 75.595 576.617 74.6641 576.617C73.7332 576.617 72.9785 577.371 72.9785 578.302C72.9785 579.233 73.7332 579.988 74.6641 579.988Z" fill="#C4B6FF"></path>
<path d="M350.374 579.988C351.305 579.988 352.059 579.233 352.059 578.302C352.059 577.371 351.305 576.617 350.374 576.617C349.443 576.617 348.688 577.371 348.688 578.302C348.688 579.233 349.443 579.988 350.374 579.988Z" fill="#C4B6FF"></path>
<path d="M492.806 577.461C493.737 577.461 494.492 576.707 494.492 575.776C494.492 574.845 493.737 574.09 492.806 574.09C491.875 574.09 491.121 574.845 491.121 575.776C491.121 576.707 491.875 577.461 492.806 577.461Z" fill="#C4B6FF"></path>
<path d="M318.544 572.202C319.475 572.202 320.229 571.448 320.229 570.517C320.229 569.586 319.475 568.831 318.544 568.831C317.613 568.831 316.858 569.586 316.858 570.517C316.858 571.448 317.613 572.202 318.544 572.202Z" fill="#C4B6FF"></path>
<path d="M338.414 572.202C339.345 572.202 340.1 571.448 340.1 570.517C340.1 569.586 339.345 568.831 338.414 568.831C337.484 568.831 336.729 569.586 336.729 570.517C336.729 571.448 337.484 572.202 338.414 572.202Z" fill="#C4B6FF"></path>
<path d="M303.846 577.461C304.777 577.461 305.531 576.707 305.531 575.776C305.531 574.845 304.777 574.09 303.846 574.09C302.915 574.09 302.16 574.845 302.16 575.776C302.16 576.707 302.915 577.461 303.846 577.461Z" fill="#C4B6FF"></path>
<path d="M294.405 577.461C295.336 577.461 296.091 576.707 296.091 575.776C296.091 574.845 295.336 574.09 294.405 574.09C293.475 574.09 292.72 574.845 292.72 575.776C292.72 576.707 293.475 577.461 294.405 577.461Z" fill="#C4B6FF"></path>
<path d="M599.404 572.972C600.334 572.972 601.089 572.217 601.089 571.286C601.089 570.355 600.334 569.601 599.404 569.601C598.473 569.601 597.718 570.355 597.718 571.286C597.718 572.217 598.473 572.972 599.404 572.972Z" fill="#C4B6FF"></path>
<path d="M356.24 567.823C357.17 567.823 357.925 567.068 357.925 566.137C357.925 565.207 357.17 564.452 356.24 564.452C355.309 564.452 354.554 565.207 354.554 566.137C354.554 567.068 355.309 567.823 356.24 567.823Z" fill="#C4B6FF"></path>
<path d="M374.443 570.517C375.374 570.517 376.129 569.762 376.129 568.832C376.129 567.901 375.374 567.146 374.443 567.146C373.513 567.146 372.758 567.901 372.758 568.832C372.758 569.762 373.513 570.517 374.443 570.517Z" fill="#C4B6FF"></path>
<path d="M365.161 578.302C366.092 578.302 366.847 577.547 366.847 576.616C366.847 575.686 366.092 574.931 365.161 574.931C364.23 574.931 363.476 575.686 363.476 576.616C363.476 577.547 364.23 578.302 365.161 578.302Z" fill="#C4B6FF"></path>
<path d="M384.243 571.194C385.174 571.194 385.929 570.439 385.929 569.508C385.929 568.577 385.174 567.823 384.243 567.823C383.312 567.823 382.558 568.577 382.558 569.508C382.558 570.439 383.312 571.194 384.243 571.194Z" fill="#C4B6FF"></path>
<path d="M108.076 580.275C109.007 580.275 109.762 579.521 109.762 578.59C109.762 577.659 109.007 576.904 108.076 576.904C107.145 576.904 106.39 577.659 106.39 578.59C106.39 579.521 107.145 580.275 108.076 580.275Z" fill="#C4B6FF"></path>
<path d="M556.946 564.24C557.877 564.24 558.631 563.485 558.631 562.554C558.631 561.624 557.877 560.869 556.946 560.869C556.015 560.869 555.26 561.624 555.26 562.554C555.26 563.485 556.015 564.24 556.946 564.24Z" fill="#C4B6FF"></path>
<path d="M567.681 572.972C568.612 572.972 569.366 572.217 569.366 571.286C569.366 570.355 568.612 569.601 567.681 569.601C566.75 569.601 565.995 570.355 565.995 571.286C565.995 572.217 566.75 572.972 567.681 572.972Z" fill="#C4B6FF"></path>
<path d="M583.693 573.813C584.624 573.813 585.378 573.058 585.378 572.127C585.378 571.196 584.624 570.442 583.693 570.442C582.762 570.442 582.007 571.196 582.007 572.127C582.007 573.058 582.762 573.813 583.693 573.813Z" fill="#C4B6FF"></path>
<path d="M388.258 578.302C389.189 578.302 389.943 577.547 389.943 576.616C389.943 575.686 389.189 574.931 388.258 574.931C387.327 574.931 386.572 575.686 386.572 576.616C386.572 577.547 387.327 578.302 388.258 578.302Z" fill="#C4B6FF"></path>
<path d="M608.475 562.554C609.405 562.554 610.16 561.8 610.16 560.869C610.16 559.938 609.405 559.183 608.475 559.183C607.544 559.183 606.789 559.938 606.789 560.869C606.789 561.8 607.544 562.554 608.475 562.554Z" fill="#C4B6FF"></path>
<path d="M455.116 63.6213C456.047 63.6213 456.801 62.8667 456.801 61.9358C456.801 61.0049 456.047 60.2502 455.116 60.2502C454.185 60.2502 453.43 61.0049 453.43 61.9358C453.43 62.8667 454.185 63.6213 455.116 63.6213Z" fill="#C4B6FF"></path>
<path d="M583.608 67.085C584.539 67.085 585.294 66.3303 585.294 65.3994C585.294 64.4685 584.539 63.7139 583.608 63.7139C582.677 63.7139 581.923 64.4685 581.923 65.3994C581.923 66.3303 582.677 67.085 583.608 67.085Z" fill="#C4B6FF"></path>
<path d="M376.037 74.9453C376.968 74.9453 377.723 74.1907 377.723 73.2598C377.723 72.3289 376.968 71.5742 376.037 71.5742C375.106 71.5742 374.352 72.3289 374.352 73.2598C374.352 74.1907 375.106 74.9453 376.037 74.9453Z" fill="#C4B6FF"></path>
<path d="M372.666 68.678C373.597 68.678 374.352 67.9233 374.352 66.9924C374.352 66.0615 373.597 65.3069 372.666 65.3069C371.735 65.3069 370.981 66.0615 370.981 66.9924C370.981 67.9233 371.735 68.678 372.666 68.678Z" fill="#C4B6FF"></path>
<path d="M249.361 69.8887C250.292 69.8887 251.047 69.134 251.047 68.2031C251.047 67.2722 250.292 66.5176 249.361 66.5176C248.43 66.5176 247.676 67.2722 247.676 68.2031C247.676 69.134 248.43 69.8887 249.361 69.8887Z" fill="#C4B6FF"></path>
<path d="M597.603 69.2102C598.533 69.2102 599.288 68.4556 599.288 67.5247C599.288 66.5938 598.533 65.8391 597.603 65.8391C596.672 65.8391 595.917 66.5938 595.917 67.5247C595.917 68.4556 596.672 69.2102 597.603 69.2102Z" fill="#C4B6FF"></path>
<path d="M389.859 61.9358C390.79 61.9358 391.544 61.1811 391.544 60.2502C391.544 59.3193 390.79 58.5647 389.859 58.5647C388.928 58.5647 388.173 59.3193 388.173 60.2502C388.173 61.1811 388.928 61.9358 389.859 61.9358Z" fill="#C4B6FF"></path>
<path d="M567.431 65.3069C568.362 65.3069 569.117 64.5522 569.117 63.6213C569.117 62.6904 568.362 61.9358 567.431 61.9358C566.5 61.9358 565.746 62.6904 565.746 63.6213C565.746 64.5522 566.5 65.3069 567.431 65.3069Z" fill="#C4B6FF"></path>
<path d="M613.444 73.6841C614.375 73.6841 615.129 72.9294 615.129 71.9985C615.129 71.0676 614.375 70.313 613.444 70.313C612.513 70.313 611.758 71.0676 611.758 71.9985C611.758 72.9294 612.513 73.6841 613.444 73.6841Z" fill="#C4B6FF"></path>
<path d="M554.141 74.3879C555.072 74.3879 555.827 73.6333 555.827 72.7024C555.827 71.7715 555.072 71.0168 554.141 71.0168C553.21 71.0168 552.456 71.7715 552.456 72.7024C552.456 73.6333 553.21 74.3879 554.141 74.3879Z" fill="#C4B6FF"></path>
<path d="M388.173 71.5742C389.104 71.5742 389.859 70.8196 389.859 69.8887C389.859 68.9578 389.104 68.2031 388.173 68.2031C387.242 68.2031 386.488 68.9578 386.488 69.8887C386.488 70.8196 387.242 71.5742 388.173 71.5742Z" fill="#C4B6FF"></path>
<path d="M416.93 66.3154C417.861 66.3154 418.616 65.5608 418.616 64.6299C418.616 63.699 417.861 62.9443 416.93 62.9443C416 62.9443 415.245 63.699 415.245 64.6299C415.245 65.5608 416 66.3154 416.93 66.3154Z" fill="#C4B6FF"></path>
<path d="M431.108 63.6213C432.039 63.6213 432.794 62.8667 432.794 61.9358C432.794 61.0049 432.039 60.2502 431.108 60.2502C430.177 60.2502 429.423 61.0049 429.423 61.9358C429.423 62.8667 430.177 63.6213 431.108 63.6213Z" fill="#C4B6FF"></path>
<path d="M704.949 69.2102C705.88 69.2102 706.635 68.4556 706.635 67.5247C706.635 66.5938 705.88 65.8391 704.949 65.8391C704.018 65.8391 703.264 66.5938 703.264 67.5247C703.264 68.4556 704.018 69.2102 704.949 69.2102Z" fill="#C4B6FF"></path>
<path d="M364.508 72.7024C365.439 72.7024 366.194 71.9477 366.194 71.0168C366.194 70.0859 365.439 69.3313 364.508 69.3313C363.577 69.3313 362.823 70.0859 362.823 71.0168C362.823 71.9477 363.577 72.7024 364.508 72.7024Z" fill="#C4B6FF"></path>
<path d="M577.174 75.3694C578.105 75.3694 578.859 74.6147 578.859 73.6838C578.859 72.7529 578.105 71.9983 577.174 71.9983C576.243 71.9983 575.488 72.7529 575.488 73.6838C575.488 74.6147 576.243 75.3694 577.174 75.3694Z" fill="#C4B6FF"></path>
<path d="M356.087 66.9922C357.018 66.9922 357.773 66.2375 357.773 65.3066C357.773 64.3757 357.018 63.6211 356.087 63.6211C355.156 63.6211 354.402 64.3757 354.402 65.3066C354.402 66.2375 355.156 66.9922 356.087 66.9922Z" fill="#C4B6FF"></path>
<path d="M346.058 74.9453C346.989 74.9453 347.744 74.1907 347.744 73.2598C347.744 72.3289 346.989 71.5742 346.058 71.5742C345.127 71.5742 344.373 72.3289 344.373 73.2598C344.373 74.1907 345.127 74.9453 346.058 74.9453Z" fill="#C4B6FF"></path>
<path d="M300.259 69.2102C301.19 69.2102 301.945 68.4556 301.945 67.5247C301.945 66.5938 301.19 65.8391 300.259 65.8391C299.328 65.8391 298.574 66.5938 298.574 67.5247C298.574 68.4556 299.328 69.2102 300.259 69.2102Z" fill="#C4B6FF"></path>
<path d="M659.315 68.7703C660.246 68.7703 661.001 68.0156 661.001 67.0847C661.001 66.1538 660.246 65.3992 659.315 65.3992C658.384 65.3992 657.629 66.1538 657.629 67.0847C657.629 68.0156 658.384 68.7703 659.315 68.7703Z" fill="#C4B6FF"></path>
<path d="M444.155 63.6213C445.086 63.6213 445.84 62.8667 445.84 61.9358C445.84 61.0049 445.086 60.2502 444.155 60.2502C443.224 60.2502 442.469 61.0049 442.469 61.9358C442.469 62.8667 443.224 63.6213 444.155 63.6213Z" fill="#C4B6FF"></path>
<path d="M409.524 72.4153C410.455 72.4153 411.21 71.6606 411.21 70.7297C411.21 69.7988 410.455 69.0442 409.524 69.0442C408.593 69.0442 407.839 69.7988 407.839 70.7297C407.839 71.6606 408.593 72.4153 409.524 72.4153Z" fill="#C4B6FF"></path>
<path d="M310.005 73.9382C310.935 73.9382 311.69 73.1836 311.69 72.2527C311.69 71.3218 310.935 70.5671 310.005 70.5671C309.074 70.5671 308.319 71.3218 308.319 72.2527C308.319 73.1836 309.074 73.9382 310.005 73.9382Z" fill="#C4B6FF"></path>
<path d="M404.208 63.6213C405.139 63.6213 405.893 62.8667 405.893 61.9358C405.893 61.0049 405.139 60.2502 404.208 60.2502C403.277 60.2502 402.522 61.0049 402.522 61.9358C402.522 62.8667 403.277 63.6213 404.208 63.6213Z" fill="#C4B6FF"></path>
<path d="M399.969 74.1006C400.9 74.1006 401.655 73.3459 401.655 72.415C401.655 71.4841 400.9 70.7295 399.969 70.7295C399.038 70.7295 398.283 71.4841 398.283 72.415C398.283 73.3459 399.038 74.1006 399.969 74.1006Z" fill="#C4B6FF"></path>
<path d="M622.421 59.1938C623.352 59.1938 624.106 58.4392 624.106 57.5083C624.106 56.5774 623.352 55.8228 622.421 55.8228C621.49 55.8228 620.735 56.5774 620.735 57.5083C620.735 58.4392 621.49 59.1938 622.421 59.1938Z" fill="#C4B6FF"></path>
<path d="M604.596 58.3528C605.527 58.3528 606.281 57.5981 606.281 56.6672C606.281 55.7363 605.527 54.9817 604.596 54.9817C603.665 54.9817 602.91 55.7363 602.91 56.6672C602.91 57.5981 603.665 58.3528 604.596 58.3528Z" fill="#C4B6FF"></path>
<path d="M631.343 67.9255C632.274 67.9255 633.028 67.1709 633.028 66.24C633.028 65.3091 632.274 64.5544 631.343 64.5544C630.412 64.5544 629.657 65.3091 629.657 66.24C629.657 67.1709 630.412 67.9255 631.343 67.9255Z" fill="#C4B6FF"></path>
<path d="M639.404 59.1938C640.335 59.1938 641.09 58.4392 641.09 57.5083C641.09 56.5774 640.335 55.8228 639.404 55.8228C638.473 55.8228 637.718 56.5774 637.718 57.5083C637.718 58.4392 638.473 59.1938 639.404 59.1938Z" fill="#C4B6FF"></path>
<path d="M288.108 74.9453C289.039 74.9453 289.794 74.1907 289.794 73.2598C289.794 72.3289 289.039 71.5742 288.108 71.5742C287.177 71.5742 286.423 72.3289 286.423 73.2598C286.423 74.1907 287.177 74.9453 288.108 74.9453Z" fill="#C4B6FF"></path>
<path d="M277.806 69.8887C278.737 69.8887 279.492 69.134 279.492 68.2031C279.492 67.2722 278.737 66.5176 277.806 66.5176C276.875 66.5176 276.121 67.2722 276.121 68.2031C276.121 69.134 276.875 69.8887 277.806 69.8887Z" fill="#C4B6FF"></path>
<path d="M435.908 72.4153C436.839 72.4153 437.593 71.6606 437.593 70.7297C437.593 69.7988 436.839 69.0442 435.908 69.0442C434.977 69.0442 434.222 69.7988 434.222 70.7297C434.222 71.6606 434.977 72.4153 435.908 72.4153Z" fill="#C4B6FF"></path>
<path d="M652.33 59.1938C653.261 59.1938 654.016 58.4392 654.016 57.5083C654.016 56.5774 653.261 55.8228 652.33 55.8228C651.399 55.8228 650.645 56.5774 650.645 57.5083C650.645 58.4392 651.399 59.1938 652.33 59.1938Z" fill="#C4B6FF"></path>
<path d="M673.647 59.1938C674.578 59.1938 675.332 58.4392 675.332 57.5083C675.332 56.5774 674.578 55.8228 673.647 55.8228C672.716 55.8228 671.961 56.5774 671.961 57.5083C671.961 58.4392 672.716 59.1938 673.647 59.1938Z" fill="#C4B6FF"></path>
<path d="M689.712 56.6672C690.642 56.6672 691.397 55.9126 691.397 54.9817C691.397 54.0508 690.642 53.2961 689.712 53.2961C688.781 53.2961 688.026 54.0508 688.026 54.9817C688.026 55.9126 688.781 56.6672 689.712 56.6672Z" fill="#C4B6FF"></path>
<path d="M425.929 71.5742C426.86 71.5742 427.615 70.8196 427.615 69.8887C427.615 68.9578 426.86 68.2031 425.929 68.2031C424.998 68.2031 424.244 68.9578 424.244 69.8887C424.244 70.8196 424.998 71.5742 425.929 71.5742Z" fill="#C4B6FF"></path>
<path d="M690.599 67.085C691.53 67.085 692.285 66.3303 692.285 65.3994C692.285 64.4685 691.53 63.7139 690.599 63.7139C689.668 63.7139 688.914 64.4685 688.914 65.3994C688.914 66.3303 689.668 67.085 690.599 67.085Z" fill="#C4B6FF"></path>
<path d="M323.482 70.8957C324.413 70.8957 325.167 70.1411 325.167 69.2102C325.167 68.2793 324.413 67.5247 323.482 67.5247C322.551 67.5247 321.796 68.2793 321.796 69.2102C321.796 70.1411 322.551 70.8957 323.482 70.8957Z" fill="#C4B6FF"></path>
<path d="M338.593 66.9922C339.524 66.9922 340.278 66.2375 340.278 65.3066C340.278 64.3757 339.524 63.6211 338.593 63.6211C337.662 63.6211 336.907 64.3757 336.907 65.3066C336.907 66.2375 337.662 66.9922 338.593 66.9922Z" fill="#C4B6FF"></path>
<path d="M740.019 58.3528C740.95 58.3528 741.705 57.5981 741.705 56.6672C741.705 55.7363 740.95 54.9817 740.019 54.9817C739.088 54.9817 738.334 55.7363 738.334 56.6672C738.334 57.5981 739.088 58.3528 740.019 58.3528Z" fill="#C4B6FF"></path>
<path d="M483.028 74.9453C483.959 74.9453 484.714 74.1907 484.714 73.2598C484.714 72.3289 483.959 71.5742 483.028 71.5742C482.097 71.5742 481.343 72.3289 481.343 73.2598C481.343 74.1907 482.097 74.9453 483.028 74.9453Z" fill="#C4B6FF"></path>
<path d="M212.121 70.8957C213.052 70.8957 213.807 70.1411 213.807 69.2102C213.807 68.2793 213.052 67.5247 212.121 67.5247C211.19 67.5247 210.436 68.2793 210.436 69.2102C210.436 70.1411 211.19 70.8957 212.121 70.8957Z" fill="#C4B6FF"></path>
<path d="M229.305 74.1006C230.236 74.1006 230.991 73.3459 230.991 72.415C230.991 71.4841 230.236 70.7295 229.305 70.7295C228.374 70.7295 227.619 71.4841 227.619 72.415C227.619 73.3459 228.374 74.1006 229.305 74.1006Z" fill="#C4B6FF"></path>
<path d="M505.015 74.1006C505.946 74.1006 506.7 73.3459 506.7 72.415C506.7 71.4841 505.946 70.7295 505.015 70.7295C504.084 70.7295 503.329 71.4841 503.329 72.415C503.329 73.3459 504.084 74.1006 505.015 74.1006Z" fill="#C4B6FF"></path>
<path d="M647.447 71.5742C648.378 71.5742 649.133 70.8196 649.133 69.8887C649.133 68.9578 648.378 68.2031 647.447 68.2031C646.516 68.2031 645.762 68.9578 645.762 69.8887C645.762 70.8196 646.516 71.5742 647.447 71.5742Z" fill="#C4B6FF"></path>
<path d="M473.185 66.3154C474.116 66.3154 474.87 65.5608 474.87 64.6299C474.87 63.699 474.116 62.9443 473.185 62.9443C472.254 62.9443 471.499 63.699 471.499 64.6299C471.499 65.5608 472.254 66.3154 473.185 66.3154Z" fill="#C4B6FF"></path>
<path d="M493.055 66.3154C493.986 66.3154 494.741 65.5608 494.741 64.6299C494.741 63.699 493.986 62.9443 493.055 62.9443C492.125 62.9443 491.37 63.699 491.37 64.6299C491.37 65.5608 492.125 66.3154 493.055 66.3154Z" fill="#C4B6FF"></path>
<path d="M458.487 71.5742C459.418 71.5742 460.172 70.8196 460.172 69.8887C460.172 68.9578 459.418 68.2031 458.487 68.2031C457.556 68.2031 456.801 68.9578 456.801 69.8887C456.801 70.8196 457.556 71.5742 458.487 71.5742Z" fill="#C4B6FF"></path>
<path d="M449.046 71.5742C449.977 71.5742 450.732 70.8196 450.732 69.8887C450.732 68.9578 449.977 68.2031 449.046 68.2031C448.115 68.2031 447.361 68.9578 447.361 69.8887C447.361 70.8196 448.115 71.5742 449.046 71.5742Z" fill="#C4B6FF"></path>
<path d="M754.044 67.085C754.975 67.085 755.73 66.3303 755.73 65.3994C755.73 64.4685 754.975 63.7139 754.044 63.7139C753.114 63.7139 752.359 64.4685 752.359 65.3994C752.359 66.3303 753.114 67.085 754.044 67.085Z" fill="#C4B6FF"></path>
<path d="M510.881 61.9358C511.811 61.9358 512.566 61.1811 512.566 60.2502C512.566 59.3193 511.811 58.5647 510.881 58.5647C509.95 58.5647 509.195 59.3193 509.195 60.2502C509.195 61.1811 509.95 61.9358 510.881 61.9358Z" fill="#C4B6FF"></path>
<path d="M529.084 64.6299C530.015 64.6299 530.77 63.8752 530.77 62.9443C530.77 62.0134 530.015 61.2588 529.084 61.2588C528.153 61.2588 527.399 62.0134 527.399 62.9443C527.399 63.8752 528.153 64.6299 529.084 64.6299Z" fill="#C4B6FF"></path>
<path d="M519.802 72.4153C520.733 72.4153 521.488 71.6606 521.488 70.7297C521.488 69.7988 520.733 69.0442 519.802 69.0442C518.871 69.0442 518.117 69.7988 518.117 70.7297C518.117 71.6606 518.871 72.4153 519.802 72.4153Z" fill="#C4B6FF"></path>
<path d="M538.884 65.3069C539.815 65.3069 540.57 64.5522 540.57 63.6213C540.57 62.6904 539.815 61.9358 538.884 61.9358C537.953 61.9358 537.199 62.6904 537.199 63.6213C537.199 64.5522 537.953 65.3069 538.884 65.3069Z" fill="#C4B6FF"></path>
<path d="M262.717 74.3879C263.648 74.3879 264.402 73.6333 264.402 72.7024C264.402 71.7715 263.648 71.0168 262.717 71.0168C261.786 71.0168 261.031 71.7715 261.031 72.7024C261.031 73.6333 261.786 74.3879 262.717 74.3879Z" fill="#C4B6FF"></path>
<path d="M711.587 58.3528C712.518 58.3528 713.272 57.5981 713.272 56.6672C713.272 55.7363 712.518 54.9817 711.587 54.9817C710.656 54.9817 709.901 55.7363 709.901 56.6672C709.901 57.5981 710.656 58.3528 711.587 58.3528Z" fill="#C4B6FF"></path>
<path d="M722.322 67.085C723.253 67.085 724.007 66.3303 724.007 65.3994C724.007 64.4685 723.253 63.7139 722.322 63.7139C721.391 63.7139 720.636 64.4685 720.636 65.3994C720.636 66.3303 721.391 67.085 722.322 67.085Z" fill="#C4B6FF"></path>
<path d="M738.334 67.9255C739.265 67.9255 740.019 67.1709 740.019 66.24C740.019 65.3091 739.265 64.5544 738.334 64.5544C737.403 64.5544 736.648 65.3091 736.648 66.24C736.648 67.1709 737.403 67.9255 738.334 67.9255Z" fill="#C4B6FF"></path>
<path d="M542.899 72.4153C543.829 72.4153 544.584 71.6606 544.584 70.7297C544.584 69.7988 543.829 69.0442 542.899 69.0442C541.968 69.0442 541.213 69.7988 541.213 70.7297C541.213 71.6606 541.968 72.4153 542.899 72.4153Z" fill="#C4B6FF"></path>
<path d="M763.115 56.6672C764.046 56.6672 764.801 55.9126 764.801 54.9817C764.801 54.0508 764.046 53.2961 763.115 53.2961C762.185 53.2961 761.43 54.0508 761.43 54.9817C761.43 55.9126 762.185 56.6672 763.115 56.6672Z" fill="#C4B6FF"></path>
<path fill-rule="evenodd" clip-rule="evenodd" d="M49.352 44.1553L94.8854 21.9571L117.084 67.4905L71.5502 89.6887L49.352 44.1553ZM50.7643 44.6419L72.0368 88.2763L115.671 67.0039L94.3988 23.3694L50.7643 44.6419Z" fill="#C4B6FF"></path>
<path d="M313.519 431.34L299.802 438.028L306.49 451.745L320.207 445.058L313.519 431.34Z" fill="#B5CDFB"></path>
<path d="M741.69 106.963L722.013 116.556L731.606 136.233L751.283 126.64L741.69 106.963Z" fill="#C4B6FF"></path>
<path d="M742.095 331.582C742.095 364.601 733.793 395.687 719.153 422.855C719.1 422.95 719.058 423.035 719.005 423.129C686.43 483.39 622.663 524.32 549.357 524.32C442.917 524.32 356.619 438.033 356.619 331.582C356.619 320.787 357.507 310.193 359.218 299.862C359.281 299.44 359.355 299.028 359.429 298.605C374.291 212.413 446.402 145.816 535.203 139.372C539.872 139.024 544.594 138.855 549.357 138.855C607.526 138.855 659.674 164.617 695.007 205.358C724.35 239.18 742.095 283.311 742.095 331.582Z" fill="#C4B6FF"></path>
<path fill-rule="evenodd" clip-rule="evenodd" d="M549.353 127.993C544.319 127.993 539.332 128.172 534.402 128.54L534.399 128.54C440.594 135.346 364.416 205.699 348.716 296.749C346.764 308.075 345.748 319.713 345.748 331.586C345.748 444.04 436.911 535.191 549.353 535.191C626.912 535.191 694.353 491.821 728.722 428.004L728.722 428.004C744.187 399.306 752.957 366.469 752.957 331.586C752.957 280.593 734.212 233.975 703.214 198.246L704.012 197.554L703.214 198.246C665.888 155.207 610.801 127.993 549.353 127.993ZM534.245 126.433C539.23 126.061 544.27 125.881 549.353 125.881C611.439 125.881 667.1 153.38 704.81 196.862C736.128 232.96 755.07 280.065 755.07 331.586C755.07 366.827 746.208 400.008 730.582 429.006C695.859 493.48 627.72 537.304 549.353 537.304C435.744 537.304 343.636 445.206 343.636 331.586C343.636 319.592 344.661 307.834 346.634 296.39L347.675 296.57L346.634 296.39C362.497 204.393 439.463 133.311 534.245 126.433Z" fill="#C4B6FF"></path>
<path d="M719.005 423.131C686.43 483.391 622.663 524.321 549.357 524.321C442.917 524.321 356.619 438.034 356.619 331.584C356.619 320.788 357.507 310.194 359.218 299.863C359.746 299.969 360.274 300.106 360.802 300.275C360.802 300.275 404.342 271.999 451.821 313.511C499.301 355.011 489.16 471.022 549.79 450.594C610.41 430.166 621.849 419.55 645.541 421.176C669.223 422.813 690.729 427.715 694.69 414.638C698.049 403.547 714.294 418.229 719.005 423.131Z" fill="#B5CDFB"></path>
<path d="M681.927 331.513C696.197 346.164 690.873 370.606 671.807 378.01C662.301 381.697 653.048 384.718 646.615 385.52C627.201 387.95 607.776 395.238 590.791 356.8C573.796 318.373 550.336 349.121 530.922 330.531C511.497 311.951 565.705 274.686 573.109 202.68C580.514 130.674 549.523 188.114 537.883 186.497C530.362 185.452 532.559 158.411 535.063 139.398C535.136 139.388 535.2 139.377 535.274 139.377C539.847 139.029 544.59 138.86 549.354 138.86C604.861 138.86 657.569 162.879 694.01 204.781C681.472 210.749 668.723 214.996 661.181 217.89C642.57 225.02 642.57 266.595 640.257 278.731C638.947 285.597 661.826 310.873 681.927 331.513Z" fill="#B5CDFB"></path>
<path d="M483.528 149.435C483.7 148.269 483.818 147.087 483.818 145.874C483.818 132.466 472.949 121.598 459.542 121.598H450.53C437.122 121.598 426.254 132.466 426.254 145.874H411.801C398.394 145.874 387.525 156.743 387.525 170.15C387.525 183.557 398.394 194.426 411.801 194.426H470.918C484.326 194.426 495.194 183.557 495.194 170.15C495.194 161.367 490.514 153.697 483.528 149.435Z" fill="#7D55FF"></path>
<path d="M767.782 385.419H713.678C701.407 385.419 691.46 375.471 691.46 363.201V363.201C691.46 350.931 701.407 340.983 713.678 340.983H767.782C780.053 340.983 790 350.931 790 363.201V363.201C790 375.471 780.053 385.419 767.782 385.419Z" fill="#7D55FF"></path>
<path d="M749.007 363.201H740.759C728.489 363.201 718.542 353.254 718.542 340.983V340.983C718.542 328.713 728.489 318.766 740.759 318.766H749.007C761.278 318.766 771.225 328.713 771.225 340.983V340.983C771.225 353.254 761.278 363.201 749.007 363.201Z" fill="#7D55FF"></path>
<path d="M593.307 173.054C586.702 173.054 581.348 178.408 581.348 185.017C581.348 189.325 593.307 212.289 593.307 212.289C593.307 212.289 605.27 188.583 605.27 185.017C605.27 178.408 599.916 173.054 593.307 173.054ZM593.307 190.696C589.672 190.696 586.725 187.749 586.725 184.114C586.725 180.479 589.672 177.532 593.307 177.532C596.946 177.532 599.894 180.479 599.894 184.114C599.894 187.749 596.946 190.696 593.307 190.696Z" fill="#7D55FF"></path>
<path d="M593.309 217.21C597.338 217.21 600.604 216.342 600.604 215.271C600.604 214.201 597.338 213.333 593.309 213.333C589.28 213.333 586.014 214.201 586.014 215.271C586.014 216.342 589.28 217.21 593.309 217.21Z" fill="#7D55FF"></path>
<path d="M390.896 381.897C384.291 381.897 378.937 387.25 378.937 393.86C378.937 398.168 390.896 421.132 390.896 421.132C390.896 421.132 402.859 397.426 402.859 393.86C402.859 387.25 397.505 381.897 390.896 381.897ZM390.896 399.539C387.261 399.539 384.314 396.592 384.314 392.957C384.314 389.322 387.261 386.375 390.896 386.375C394.535 386.375 397.482 389.322 397.482 392.957C397.482 396.592 394.535 399.539 390.896 399.539Z" fill="#7D55FF"></path>
<path d="M390.898 426.053C394.927 426.053 398.193 425.185 398.193 424.114C398.193 423.043 394.927 422.175 390.898 422.175C386.869 422.175 383.603 423.043 383.603 424.114C383.603 425.185 386.869 426.053 390.898 426.053Z" fill="#7D55FF"></path>
<path d="M470.907 200.075C466.941 200.075 463.727 203.29 463.727 207.259C463.727 209.846 470.907 223.635 470.907 223.635C470.907 223.635 478.091 209.4 478.091 207.259C478.091 203.29 474.876 200.075 470.907 200.075ZM470.907 210.669C468.725 210.669 466.955 208.899 466.955 206.717C466.955 204.534 468.725 202.764 470.907 202.764C473.093 202.764 474.862 204.534 474.862 206.717C474.862 208.899 473.093 210.669 470.907 210.669Z" fill="#7D55FF"></path>
<path d="M470.909 226.589C473.328 226.589 475.289 226.068 475.289 225.425C475.289 224.782 473.328 224.26 470.909 224.26C468.489 224.26 466.528 224.782 466.528 225.425C466.528 226.068 468.489 226.589 470.909 226.589Z" fill="#7D55FF"></path>
<path d="M344.259 224.019C343.91 226.684 342.543 233.61 340.617 234.928C338.691 236.246 338.457 234.066 336.98 234.219" fill="#414042"></path>
<path d="M304.058 215.153C299.738 223.248 290.361 232.953 285.882 242.01C281.402 251.068 294.647 263.767 308.655 261.243C313.713 260.332 317.126 251.041 319.205 245.278" fill="#F2DEB8"></path>
<path fill-rule="evenodd" clip-rule="evenodd" d="M304.307 214.687C304.564 214.824 304.662 215.144 304.524 215.401C302.492 219.209 299.36 223.359 296.169 227.587C295.93 227.903 295.691 228.221 295.452 228.538C292.003 233.115 288.57 237.767 286.355 242.244C284.27 246.461 286.263 251.654 290.686 255.575C295.084 259.473 301.737 261.953 308.561 260.723C309.68 260.522 310.748 259.849 311.767 258.805C312.785 257.763 313.724 256.381 314.585 254.824C316.307 251.71 317.666 247.985 318.708 245.099C318.807 244.824 319.11 244.682 319.384 244.781C319.658 244.88 319.8 245.183 319.701 245.457C318.664 248.333 317.278 252.136 315.509 255.335C314.624 256.936 313.632 258.407 312.523 259.543C311.414 260.678 310.159 261.508 308.748 261.763C301.564 263.057 294.591 260.449 289.985 256.365C285.403 252.303 283.014 246.617 285.408 241.776C287.674 237.196 291.169 232.467 294.608 227.903C294.842 227.591 295.077 227.281 295.31 226.972C298.518 222.72 301.601 218.635 303.592 214.904C303.73 214.647 304.05 214.549 304.307 214.687Z" fill="#414042"></path>
<path d="M317.53 244.477C319.425 245.243 324.261 248.33 326.744 247.308C334.553 244.092 343.18 227.749 346.645 219.596C348.098 216.177 348.001 214.195 349.206 211.067L325.493 199.139L314.08 195.713L308.236 195.263L309.226 204.148L306.441 206.131L305.079 209.943L304.281 213.485" fill="#F2DEB8"></path>
<path fill-rule="evenodd" clip-rule="evenodd" d="M307.641 194.687L314.178 195.191L325.689 198.647L349.871 210.81L349.699 211.257C349.158 212.66 348.887 213.823 348.606 215.029C348.582 215.134 348.557 215.238 348.533 215.343C348.223 216.666 347.875 218.051 347.131 219.803C345.389 223.901 342.352 230.053 338.767 235.591C336.974 238.359 335.036 240.986 333.047 243.127C331.065 245.262 329 246.95 326.945 247.796C326.187 248.108 325.301 248.089 324.425 247.923C323.54 247.756 322.605 247.426 321.711 247.05C320.815 246.672 319.942 246.239 319.183 245.858C319.101 245.817 319.022 245.777 318.944 245.738C318.28 245.404 317.733 245.128 317.332 244.966C317.062 244.857 316.931 244.549 317.041 244.278C317.15 244.008 317.458 243.878 317.728 243.987C318.172 244.167 318.763 244.464 319.413 244.791C319.493 244.832 319.575 244.873 319.657 244.914C320.415 245.295 321.261 245.714 322.121 246.076C322.984 246.44 323.841 246.738 324.621 246.886C325.409 247.035 326.058 247.019 326.542 246.819C328.392 246.058 330.334 244.497 332.273 242.408C334.207 240.327 336.107 237.754 337.88 235.016C341.426 229.54 344.436 223.444 346.159 219.389C346.868 217.722 347.199 216.406 347.504 215.102C347.529 214.996 347.554 214.89 347.579 214.784C347.83 213.705 348.086 212.605 348.546 211.326L325.297 199.632L313.983 196.236L308.832 195.838L309.785 204.398L306.883 206.465L305.588 210.09L304.796 213.601C304.732 213.885 304.45 214.064 304.165 214C303.88 213.936 303.702 213.653 303.766 213.369L304.571 209.795L306 205.797L308.667 203.898L307.641 194.687Z" fill="#414042"></path>
<path d="M326.308 238.391C326.33 238.639 326.532 238.821 326.783 238.804C327.033 238.786 327.201 238.579 327.179 238.33C327.157 238.082 326.955 237.9 326.705 237.918C326.454 237.936 326.286 238.142 326.308 238.391Z" fill="#231F20"></path>
<path d="M326.738 237.917C326.727 237.917 326.716 237.917 326.705 237.918C326.454 237.936 326.286 238.142 326.308 238.391C326.329 238.628 326.515 238.805 326.75 238.805C326.761 238.805 326.772 238.804 326.783 238.804C327.033 238.786 327.201 238.579 327.179 238.33C327.158 238.093 326.973 237.917 326.738 237.917Z" fill="#414042"></path>
<path d="M328.999 240.642C329.022 240.891 329.228 241.068 329.477 241.051C329.727 241.033 329.897 240.825 329.874 240.577C329.851 240.329 329.647 240.149 329.396 240.168C329.146 240.187 328.977 240.393 328.999 240.642Z" fill="#231F20"></path>
<path d="M329.433 240.167C329.421 240.167 329.409 240.167 329.396 240.168C329.146 240.187 328.977 240.392 328.999 240.642C329.021 240.879 329.209 241.052 329.443 241.052C329.455 241.052 329.466 241.052 329.477 241.051C329.727 241.033 329.897 240.825 329.874 240.577C329.852 240.341 329.666 240.167 329.433 240.167Z" fill="#414042"></path>
<path d="M331.073 241.827C331.095 242.076 331.301 242.254 331.551 242.236C331.8 242.218 331.971 242.011 331.947 241.763C331.924 241.514 331.72 241.335 331.47 241.354C331.219 241.372 331.05 241.578 331.073 241.827Z" fill="#231F20"></path>
<path d="M331.505 241.352C331.493 241.352 331.482 241.353 331.47 241.354C331.219 241.372 331.05 241.578 331.073 241.827C331.094 242.064 331.282 242.237 331.516 242.237C331.527 242.237 331.539 242.237 331.551 242.236C331.8 242.219 331.971 242.011 331.947 241.763C331.925 241.526 331.739 241.352 331.505 241.352Z" fill="#414042"></path>
<path d="M327.222 244.012C327.245 244.261 327.45 244.439 327.7 244.421C327.95 244.404 328.12 244.196 328.097 243.948C328.074 243.7 327.87 243.52 327.619 243.539C327.369 243.558 327.2 243.764 327.222 244.012Z" fill="#231F20"></path>
<path d="M327.655 243.537C327.643 243.537 327.631 243.538 327.619 243.539C327.369 243.557 327.2 243.764 327.222 244.012C327.244 244.25 327.432 244.422 327.666 244.422C327.677 244.422 327.689 244.422 327.7 244.421C327.95 244.404 328.12 244.196 328.097 243.948C328.075 243.712 327.889 243.537 327.655 243.537Z" fill="#414042"></path>
<path d="M336.161 231.256C336.184 231.505 336.391 231.681 336.64 231.664C336.89 231.646 337.061 231.442 337.039 231.193C337.016 230.944 336.809 230.767 336.559 230.785C336.31 230.804 336.139 231.008 336.161 231.256Z" fill="#231F20"></path>
<path d="M336.594 230.785C336.583 230.785 336.571 230.785 336.559 230.786C336.31 230.804 336.139 231.007 336.161 231.256C336.183 231.494 336.373 231.665 336.606 231.665C336.618 231.665 336.629 231.665 336.64 231.664C336.89 231.646 337.061 231.442 337.039 231.193C337.017 230.956 336.828 230.785 336.594 230.785Z" fill="#414042"></path>
<path d="M326.34 233.945C326.362 234.194 326.57 234.371 326.82 234.353C327.069 234.336 327.242 234.131 327.218 233.882C327.195 233.633 326.988 233.456 326.738 233.474C326.488 233.493 326.317 233.696 326.34 233.945Z" fill="#231F20"></path>
<path d="M326.774 233.473C326.762 233.473 326.75 233.473 326.738 233.474C326.488 233.493 326.317 233.696 326.34 233.945C326.361 234.183 326.552 234.354 326.786 234.354C326.797 234.354 326.808 234.354 326.82 234.353C327.069 234.335 327.242 234.131 327.218 233.882C327.196 233.645 327.008 233.473 326.774 233.473Z" fill="#414042"></path>
<path d="M334.355 234.393C334.378 234.642 334.582 234.822 334.833 234.802C335.083 234.782 335.252 234.572 335.229 234.323C335.206 234.074 335.003 233.895 334.752 233.915C334.5 233.936 334.333 234.144 334.355 234.393Z" fill="#231F20"></path>
<path d="M334.791 233.914C334.778 233.914 334.765 233.914 334.752 233.915C334.5 233.935 334.333 234.144 334.355 234.393C334.377 234.629 334.562 234.803 334.795 234.803C334.807 234.803 334.82 234.802 334.833 234.801C335.083 234.782 335.252 234.572 335.229 234.323C335.207 234.087 335.024 233.914 334.791 233.914Z" fill="#414042"></path>
<path d="M330.463 231.702C330.486 231.95 330.691 232.128 330.941 232.109C331.191 232.089 331.36 231.882 331.336 231.633C331.313 231.385 331.109 231.206 330.858 231.226C330.608 231.246 330.44 231.453 330.463 231.702Z" fill="#231F20"></path>
<path d="M330.896 231.225C330.883 231.225 330.871 231.225 330.858 231.226C330.608 231.246 330.44 231.453 330.463 231.702C330.485 231.937 330.672 232.11 330.904 232.11C330.917 232.11 330.929 232.11 330.941 232.109C331.191 232.09 331.36 231.882 331.336 231.633C331.314 231.397 331.129 231.225 330.896 231.225Z" fill="#414042"></path>
<path d="M330.021 235.276C330.043 235.525 330.25 235.704 330.5 235.687C330.749 235.67 330.921 235.464 330.898 235.215C330.874 234.966 330.67 234.787 330.419 234.804C330.168 234.822 329.998 235.027 330.021 235.276Z" fill="#231F20"></path>
<path d="M330.453 234.803C330.442 234.803 330.43 234.803 330.419 234.804C330.168 234.822 329.998 235.027 330.021 235.276C330.042 235.514 330.232 235.688 330.467 235.688C330.478 235.688 330.488 235.687 330.5 235.687C330.749 235.67 330.921 235.464 330.898 235.215C330.875 234.977 330.688 234.803 330.453 234.803Z" fill="#414042"></path>
<path d="M332.101 237.552C332.124 237.801 332.328 237.98 332.579 237.961C332.83 237.941 332.998 237.731 332.975 237.482C332.952 237.233 332.749 237.053 332.498 237.074C332.247 237.094 332.079 237.302 332.101 237.552Z" fill="#231F20"></path>
<path d="M332.536 237.072C332.523 237.072 332.511 237.072 332.498 237.073C332.247 237.094 332.079 237.302 332.101 237.552C332.123 237.788 332.308 237.962 332.541 237.962C332.553 237.962 332.566 237.961 332.579 237.96C332.83 237.941 332.998 237.731 332.975 237.482C332.953 237.246 332.769 237.072 332.536 237.072Z" fill="#414042"></path>
<path d="M333.113 239.397C333.135 239.647 333.339 239.826 333.59 239.806C333.841 239.786 334.01 239.577 333.987 239.328C333.964 239.079 333.76 238.899 333.509 238.919C333.258 238.939 333.09 239.148 333.113 239.397Z" fill="#231F20"></path>
<path d="M333.547 238.918C333.535 238.918 333.522 238.918 333.509 238.919C333.258 238.939 333.09 239.148 333.113 239.397C333.134 239.634 333.319 239.808 333.553 239.808C333.565 239.808 333.578 239.807 333.59 239.806C333.841 239.786 334.01 239.577 333.987 239.328C333.965 239.092 333.781 238.918 333.547 238.918Z" fill="#414042"></path>
<path d="M324.737 242.267C324.76 242.516 324.967 242.691 325.216 242.672C325.465 242.654 325.638 242.451 325.615 242.202C325.592 241.953 325.386 241.777 325.136 241.796C324.887 241.815 324.715 242.018 324.737 242.267Z" fill="#231F20"></path>
<path d="M325.172 241.795C325.16 241.795 325.148 241.795 325.136 241.796C324.887 241.815 324.715 242.017 324.737 242.267C324.759 242.504 324.948 242.674 325.181 242.674C325.193 242.674 325.204 242.674 325.216 242.672C325.465 242.654 325.638 242.451 325.615 242.202C325.593 241.965 325.405 241.795 325.172 241.795Z" fill="#414042"></path>
<path d="M365.804 204.862C362.15 208.797 362.218 207.159 359.227 209.968C358.687 214.131 357.352 217.417 352.859 217.211C350.646 217.336 348.754 217.082 346.54 217.211C344.927 219.045 341.922 222.179 340.239 223.846C339.454 224.623 338.536 222.576 338.495 221.772C338.348 218.898 338.41 211.519 338.41 209.789C338.41 208.06 338.394 209.302 338.371 209.224C337.699 206.967 332.276 205.073 331.045 204.652C325.018 202.593 317.913 200.998 313.648 196.746C313.269 196.368 313.451 196.295 313.327 196.21C312.41 195.582 311.787 194.586 310.644 196.086C309.501 197.586 307.905 200.965 306.667 202.824C306.625 204.054 300.192 212.151 300.27 211.71C300.145 207.51 307.186 179.593 310.788 180.156C314.39 180.72 317.818 183.085 318.645 181.523C322.401 174.435 327.737 174.549 334.37 176.613C335.26 176.89 336.811 177.715 338.072 178.071C346.229 180.371 357.476 183.552 365.494 179.195C364.392 182.591 363.274 185.988 362.171 189.377C367.674 189.234 371.62 185.983 375.542 182.695C373.973 189.108 369.458 200.927 365.804 204.862Z" fill="#414042"></path>
<path d="M336.422 226.536C336.561 227.392 333.956 228.441 333.178 228.312C327.398 227.351 330.224 217.711 335.063 217.243C339.049 216.858 340.17 220.048 338.123 222.686C338.032 222.804 337.929 222.903 337.852 223.03" fill="#F2DEB8"></path>
<path fill-rule="evenodd" clip-rule="evenodd" d="M338.38 219.061C337.984 218.244 336.966 217.59 335.113 217.769L335.063 217.243L335.113 217.769C334.076 217.869 333.108 218.465 332.313 219.381C331.519 220.295 330.93 221.494 330.653 222.709C330.376 223.93 330.424 225.115 330.835 226.025C331.234 226.908 331.991 227.579 333.265 227.79C333.341 227.803 333.557 227.789 333.897 227.699C334.215 227.614 334.578 227.48 334.914 227.317C335.256 227.153 335.542 226.972 335.727 226.803C335.862 226.679 335.891 226.612 335.897 226.596C335.865 226.318 336.057 226.06 336.336 226.015C336.624 225.968 336.896 226.163 336.943 226.451C337.024 226.948 336.7 227.344 336.44 227.582C336.151 227.847 335.763 228.08 335.374 228.269C334.979 228.459 334.554 228.617 334.169 228.719C333.806 228.816 333.404 228.884 333.092 228.832L333.178 228.311L333.092 228.832C331.475 228.564 330.418 227.669 329.872 226.46C329.339 225.278 329.312 223.843 329.623 222.475C329.936 221.102 330.599 219.743 331.515 218.688C332.43 217.635 333.629 216.851 335.012 216.717L335.012 216.717C337.145 216.511 338.681 217.259 339.33 218.6C339.966 219.913 339.647 221.584 338.54 223.009L338.125 222.687L338.54 223.009C338.54 223.009 338.54 223.009 338.54 223.009C338.499 223.062 338.451 223.119 338.415 223.16C338.404 223.173 338.394 223.185 338.386 223.195C338.344 223.244 338.321 223.275 338.305 223.302C338.154 223.552 337.829 223.633 337.58 223.482C337.33 223.332 337.249 223.007 337.4 222.757C337.46 222.658 337.526 222.576 337.578 222.514C337.599 222.489 337.617 222.469 337.632 222.451C337.661 222.418 337.682 222.393 337.706 222.362L337.706 222.362C338.647 221.149 338.79 219.907 338.38 219.061Z" fill="#414042"></path>
<path d="M336.6 219.075C335.793 219.072 334.987 219.068 334.18 219.065L336.6 219.075Z" fill="white"></path>
<path fill-rule="evenodd" clip-rule="evenodd" d="M333.784 219.063C333.785 218.844 333.963 218.668 334.182 218.669C334.989 218.672 335.795 218.676 336.602 218.679C336.82 218.68 336.997 218.858 336.996 219.077C336.995 219.296 336.817 219.472 336.598 219.471C335.792 219.468 334.985 219.465 334.178 219.461C333.96 219.46 333.783 219.282 333.784 219.063Z" fill="#414042"></path>
<path d="M336.981 221.6C336.408 221.596 335.835 221.595 335.263 221.591L336.981 221.6Z" fill="white"></path>
<path fill-rule="evenodd" clip-rule="evenodd" d="M334.867 221.589C334.868 221.37 335.047 221.194 335.265 221.195C335.568 221.197 335.866 221.199 336.164 221.2C336.435 221.201 336.707 221.202 336.983 221.204C337.202 221.205 337.378 221.383 337.377 221.602C337.375 221.821 337.197 221.997 336.978 221.996C336.71 221.994 336.437 221.993 336.164 221.992C335.861 221.991 335.558 221.99 335.26 221.988C335.041 221.986 334.865 221.808 334.867 221.589Z" fill="#414042"></path>
<path d="M304.217 193.861C304.217 193.861 292.869 223.539 295.903 228.183C298.937 232.827 312.136 239.547 320.227 235.098C328.318 230.648 329.718 227.688 329.876 224.019C330.019 220.71 332.481 216.84 336.122 217.211C339.762 217.582 340.521 222.227 340.521 222.227C340.521 222.227 346.993 219.396 348.207 213.328C349.421 207.26 350.634 192.367 334.453 195.263C318.272 198.158 304.217 193.861 304.217 193.861Z" fill="#414042"></path>
<path d="M316.425 252.273L314.324 248.805C313.112 246.805 313.385 244.241 314.991 242.541L319.656 244.905L316.425 252.273Z" fill="#414042"></path>
<path d="M142.781 521.392L154.687 510.077L164.55 524.539L152.847 536.273L140.455 533.894L138.028 526.208L142.781 521.392Z" fill="#F2DEB8"></path>
<path fill-rule="evenodd" clip-rule="evenodd" d="M141.752 541.193C142.075 540.072 143.245 539.425 144.366 539.747C147.741 540.719 149.162 542.896 150.162 544.773C150.296 545.026 150.422 545.266 150.54 545.493C151.32 546.987 151.817 547.94 152.957 548.657C153.946 549.277 154.244 550.581 153.623 551.569C153.003 552.557 151.699 552.855 150.711 552.235C148.521 550.86 147.477 548.806 146.734 547.344C146.628 547.136 146.528 546.939 146.432 546.758C145.639 545.269 144.943 544.31 143.198 543.808C142.077 543.485 141.429 542.314 141.752 541.193Z" fill="#7D55FF"></path>
<path fill-rule="evenodd" clip-rule="evenodd" d="M138.619 553.04C139.569 552.361 140.888 552.58 141.567 553.529C142.755 555.191 143.966 556.258 145.336 557.253C145.913 557.672 146.501 558.066 147.149 558.501C147.298 558.601 147.451 558.703 147.607 558.808C148.425 559.359 149.312 559.968 150.251 560.69C151.175 561.401 151.348 562.727 150.637 563.652C149.926 564.577 148.599 564.75 147.675 564.039C146.844 563.4 146.045 562.851 145.247 562.313C145.106 562.218 144.963 562.123 144.82 562.027C144.169 561.589 143.5 561.141 142.854 560.672C141.23 559.493 139.653 558.118 138.13 555.987C137.451 555.038 137.67 553.718 138.619 553.04Z" fill="#7D55FF"></path>
<path d="M130.102 582.348C127.713 581.962 126.589 580.852 125.052 579.895C137.615 570.319 137.783 541.178 131.325 530.063C128.71 525.563 128.08 526.758 123.627 524.798C124.839 524.402 125.294 524.022 126.65 523.658C131.404 522.379 136.556 520.75 141.64 521.104C141.731 521.11 141.883 521.171 141.955 521.156C142.9 520.952 144.003 521.714 144.297 522.286C144.591 522.858 144.169 521.92 144.388 522.491C144.608 523.063 144.942 525.168 144.931 526.074C144.91 527.707 144.404 530.026 146.299 532.461C148.531 535.329 150.029 533.908 153.053 536.04C153.456 541.662 145.303 556.863 144.344 564.13C143.235 572.523 139.149 583.813 130.102 582.348Z" fill="#C4B6FF"></path>
<path d="M125.13 579.881C125.091 579.91 125.055 579.896 125.052 579.895C124.775 579.754 122.453 578.44 121.714 577.645C119.483 575.241 116.236 570.838 118.211 565.002C121.218 556.115 123.424 547.022 120.591 537.897C118.647 531.638 118.607 525.852 124.029 524.749C126.869 524.171 129.425 525.147 131.748 530.061C137.255 541.714 137.583 570.258 125.13 579.881Z" fill="#F0F1F1"></path>
<path d="M125.571 562.376C125.557 562.387 125.577 562.399 125.576 562.398C125.474 562.347 124.592 561.849 124.321 561.557C123.505 560.678 122.316 559.066 123.039 556.93C124.139 553.678 124.947 550.35 123.91 547.011C123.199 544.72 123.184 542.602 125.168 542.199C126.208 541.987 127.143 542.344 127.993 544.143C130.009 548.408 130.129 558.854 125.571 562.376Z" fill="#B5CDFB"></path>
<path d="M74.6979 493.72L88.2992 484.512L95.655 500.396L82.2967 509.985L70.3517 505.67L69.2188 497.69L74.6979 493.72Z" fill="#F2DEB8"></path>
<path fill-rule="evenodd" clip-rule="evenodd" d="M70.4332 513.082C70.9355 512.029 72.1964 511.582 73.2495 512.085C76.4189 513.597 77.4637 515.978 78.1414 517.993C78.2328 518.265 78.3168 518.522 78.3964 518.766C78.9201 520.368 79.2541 521.389 80.2618 522.283C81.1347 523.057 81.2146 524.393 80.4404 525.266C79.6662 526.138 78.331 526.218 77.4582 525.444C75.5243 523.729 74.8316 521.531 74.3385 519.968C74.2681 519.744 74.2018 519.534 74.1365 519.34C73.5989 517.74 73.0691 516.68 71.4303 515.898C70.3773 515.396 69.9309 514.135 70.4332 513.082Z" fill="#7D55FF"></path>
<path fill-rule="evenodd" clip-rule="evenodd" d="M65.3988 524.254C66.4464 523.74 67.712 524.173 68.2256 525.221C69.1248 527.055 70.1445 528.306 71.3331 529.513C71.833 530.02 72.3489 530.506 72.9167 531.041C73.0473 531.164 73.1807 531.29 73.3173 531.419C74.0342 532.097 74.8092 532.843 75.6167 533.709C76.4122 534.562 76.3652 535.899 75.5118 536.695C74.6583 537.49 73.3215 537.443 72.526 536.59C71.8114 535.823 71.114 535.151 70.4144 534.489C70.2909 534.372 70.1662 534.255 70.0408 534.137C69.4696 533.599 68.8837 533.047 68.3232 532.478C66.9148 531.048 65.5853 529.433 64.432 527.081C63.9184 526.033 64.3512 524.768 65.3988 524.254Z" fill="#7D55FF"></path>
<path d="M52.8298 551.462C50.5372 550.689 49.7377 549.766 47.7986 548.448C61.7627 541.065 66.5202 512.416 61.9741 500.392C60.1333 495.523 59.3159 496.599 55.245 493.935C56.5055 493.743 57.016 493.443 58.4139 493.306C63.3131 492.825 68.6627 492.063 73.6193 493.246C73.7087 493.268 73.8486 493.353 73.9218 493.35C74.8876 493.304 75.8505 494.236 76.0465 494.849C76.2424 495.461 75.9802 494.466 76.1031 495.067C76.226 495.666 76.2103 497.798 76.0502 498.689C75.7614 500.297 74.8816 502.501 76.3513 505.214C78.083 508.41 79.7931 507.254 82.4268 509.854C81.9011 515.466 71.3645 529.122 69.2252 536.133C66.7544 544.231 61.5137 554.391 52.8298 551.462Z" fill="#C4B6FF"></path>
<path d="M47.7986 548.448C47.7557 548.471 47.8032 548.513 47.8004 548.51C47.5504 548.326 45.3904 546.507 44.7963 545.681C42.8802 543.02 40.5091 538.068 43.415 532.635C47.8397 524.363 51.5083 515.755 50.2109 506.288C49.321 499.796 50.2312 494.081 55.7602 493.883C58.6565 493.779 61.0181 495.161 62.5026 500.39C66.0227 512.789 61.662 541 47.7986 548.448Z" fill="#F0F1F1"></path>
<path d="M50.8862 531.808C50.8698 531.817 50.888 531.833 50.8869 531.832C50.7909 531.761 49.9615 531.063 49.7334 530.746C48.9976 529.724 48.0871 527.822 49.2029 525.736C50.902 522.559 52.3107 519.254 51.8125 515.619C51.4708 513.126 51.8203 510.931 53.9435 510.855C55.0556 510.815 55.9625 511.346 56.5325 513.354C57.8842 518.115 56.2097 528.948 50.8862 531.808Z" fill="#B5CDFB"></path>
<path d="M260.087 233.913C260.087 233.913 275.116 236.828 287.791 239.524C300.467 242.221 342.303 263.029 348.848 281.03C351.651 288.739 329.294 296.2 328.998 296.638C328.701 297.077 246.512 273.235 246.512 273.235L260.087 233.913Z" fill="#C4B6FF"></path>
<path d="M656.37 462.908L649.215 457.326L651.898 456.707L656.448 460.522L663.603 454.695L670.759 460.522L677.916 454.695L685.068 460.522L692.224 454.695L699.379 460.522L706.535 454.695L713.614 460.298L720.757 454.695L727.878 460.298L735.322 454.878L741.014 461.104L739.433 461.785L735.322 457.325L728.459 462L720.908 457.249L713.614 462.908L706.457 457.326L699.301 462.908L692.146 457.326L684.991 462.908L677.838 457.326L670.681 462.908L663.525 457.326L656.37 462.908Z" fill="#C4B6FF"></path>
<path d="M678.476 476.43L671.321 470.848L674.003 470.229L678.553 474.044L685.709 468.217L692.865 474.044L700.022 468.217L707.174 474.044L714.33 468.217L721.485 474.044L728.64 468.217L735.72 473.82L742.862 468.217L749.984 473.82L757.428 468.4L763.12 474.626L761.539 475.307L757.428 470.847L750.565 475.522L743.014 470.771L735.72 476.43L728.563 470.848L721.407 476.43L714.252 470.848L707.096 476.43L699.944 470.848L692.787 476.43L685.631 470.848L678.476 476.43Z" fill="#C4B6FF"></path>
<path d="M420.35 327.382C420.35 327.382 447.919 318.982 446.526 325.224C445.627 329.251 439.935 332.776 439.935 332.776C439.935 332.776 466.234 331.006 466.186 336.442C466.138 341.877 455.164 356.299 448.193 355.886C441.36 355.482 418.793 353.535 416.931 347.75C415.069 341.965 420.35 327.382 420.35 327.382Z" fill="#F2DEB8"></path>
<path fill-rule="evenodd" clip-rule="evenodd" d="M162.769 423.719L202.458 356.213L227.043 370.668L184.266 443.424L91.4854 509.448L74.9501 486.211L162.769 423.719Z" fill="#7D55FF"></path>
<path fill-rule="evenodd" clip-rule="evenodd" d="M206.647 344.315L242.584 360.077L269.871 374.93L256.236 399.979L230.016 385.706L195.192 370.432L206.647 344.315Z" fill="#7D55FF"></path>
<path fill-rule="evenodd" clip-rule="evenodd" d="M264.645 383.323L230.926 461.475L165.026 531.529L144.253 511.988L206.723 445.58L238.459 372.025L264.645 383.323Z" fill="#7D55FF"></path>
<path fill-rule="evenodd" clip-rule="evenodd" d="M251.839 271.104C251.807 271.104 251.774 271.105 251.74 271.105C250.832 271.116 249.53 271.132 247.961 271.155C244.818 271.201 240.63 271.272 236.413 271.374C232.16 271.477 228.022 271.608 224.922 271.769C224.89 271.77 224.858 271.772 224.826 271.774L183.014 301.542L160.96 270.564L206.924 237.84L207.059 237.748C209.703 235.933 212.219 235.22 212.792 235.058C212.809 235.053 212.824 235.049 212.837 235.045C213.798 234.772 214.623 234.611 215.12 234.522C216.144 234.34 217.131 234.227 217.857 234.154C219.379 234.001 221.176 233.886 222.957 233.794C226.588 233.606 231.143 233.465 235.491 233.359C239.875 233.253 244.194 233.18 247.409 233.133C249.018 233.11 250.357 233.093 251.295 233.082C251.642 233.078 251.935 233.075 252.166 233.072C257.541 232.735 261.921 233.809 266.092 235.661L266.732 235.945L343.947 277.277C348.168 279.537 351.883 282.637 354.861 286.386L355.179 286.786L374.258 313.652L426.253 319.51L421.996 357.296L353.102 349.535L325.346 310.451L251.839 271.104Z" fill="#C4B6FF"></path>
<path d="M324.73 309.993C315.129 337.361 284.402 379.274 279.237 384.218C275.339 387.946 256.03 378.524 237.334 367.645C229.116 362.86 221.015 357.79 214.392 353.438C208.266 349.403 203.417 345.98 200.914 343.963C189.591 334.816 255.745 255.986 255.745 255.986L279.31 266.791L301.059 276.763L318.044 284.558C318.044 284.558 328.501 299.262 324.73 309.993Z" fill="#C4B6FF"></path>
<path d="M223.589 355.171L228.982 358.209C243.478 366.373 261.847 361.241 270.012 346.745L296.386 299.919C304.551 285.423 299.418 267.053 284.923 258.888L279.529 255.851C272.539 251.913 263.68 254.389 259.742 261.379L218.06 335.384C214.123 342.375 216.598 351.234 223.589 355.171Z" fill="#414042"></path>
<path opacity="0.46" d="M291.918 272.572C297.569 275.163 299.889 282.097 296.716 287.444C296.696 287.478 296.675 287.513 296.654 287.548L259.643 349.72C254.499 358.36 246.471 364.497 237.334 367.645C229.116 362.86 221.015 357.79 214.392 353.438C208.266 349.402 203.417 345.98 200.914 343.963C189.591 334.816 255.745 255.986 255.745 255.986L279.31 266.791L291.918 272.572Z" fill="#414042"></path>
<path d="M287.919 276.868L248.436 352.075C244.707 359.184 235.929 361.919 228.821 358.191L223.349 355.307C213.051 349.899 207.178 339.368 207.22 328.488C207.241 323.82 208.35 319.067 210.674 314.63L217.624 301.395L235.655 267.045C241.401 256.102 253.337 250.029 265.125 250.821C268.536 251.043 271.948 251.845 275.191 253.271C275.814 253.546 276.427 253.842 277.029 254.158L282.479 257.19C283.039 257.486 283.578 257.813 284.074 258.183C286.102 259.619 287.602 261.552 288.542 263.718C290.306 267.742 290.148 272.622 287.919 276.868Z" fill="#7D55FF"></path>
<path d="M324.709 257.095C324.656 257.201 324.086 256.652 322.966 256.092C319.132 254.169 308.781 250.747 289.43 263.148C289.134 263.327 288.838 263.518 288.542 263.718C287.602 261.552 286.102 259.619 284.074 258.183C284.719 257.666 285.395 257.138 286.113 256.631C292.915 251.719 303.013 247.525 315.689 251.096C315.689 251.096 319.417 252.859 321.477 254.201C323.104 255.257 324.709 257.095 324.709 257.095Z" fill="#7D55FF"></path>
<path d="M284.581 238.757C281.307 241.979 278.603 246.299 276.49 250.535C276.026 251.454 275.592 252.373 275.191 253.271C271.948 251.845 268.537 251.042 265.125 250.82C265.516 249.679 265.959 248.602 266.445 247.588C269.392 241.293 273.564 237.332 274.536 236.444C274.674 236.328 274.832 236.265 275.012 236.286C275.265 236.318 275.751 236.381 276.67 236.561C278.402 236.877 282.86 237.881 284.434 238.229C284.676 238.293 284.761 238.589 284.581 238.757Z" fill="#7D55FF"></path>
<path d="M324.727 310.083C324.727 310.083 286.921 338.703 268.515 338.402L265.279 344.372C265.279 344.372 283.69 342.401 301.638 331.301C319.587 320.201 321.66 318.785 322.519 317.572C323.256 316.533 325.312 312.096 325.3 310.413C325.298 310.131 324.893 310.052 324.727 310.083Z" fill="#7D55FF"></path>
<path d="M263.763 347.547L263.304 347.335C262.164 346.807 261.667 345.454 262.195 344.314L266.402 335.228C266.93 334.088 268.283 333.592 269.423 334.12L269.882 334.332C271.023 334.86 271.519 336.213 270.991 337.353L266.784 346.438C266.256 347.579 264.903 348.075 263.763 347.547Z" fill="#7D55FF"></path>
<path d="M264.152 277.659L241.449 265.74C240.584 265.286 240.251 264.217 240.705 263.352C241.159 262.488 242.228 262.155 243.092 262.609L265.796 274.529C266.66 274.983 266.993 276.051 266.539 276.916C266.086 277.78 265.017 278.113 264.152 277.659Z" fill="#414042"></path>
<path d="M248.316 319.114L238.792 334.711C236.099 339.122 230.444 340.684 225.868 338.283L207.217 328.494C207.238 323.825 208.347 319.072 210.671 314.635L217.621 301.4C217.98 301.337 218.36 301.389 218.709 301.569L247.577 316.727C248.433 317.181 248.771 318.248 248.316 319.114Z" fill="#414042"></path>
<path d="M434.979 522.628H389.329C378.28 522.628 369.322 513.671 369.322 502.622V502.622C369.322 491.572 378.28 482.615 389.329 482.615H434.979C446.029 482.615 454.986 491.572 454.986 502.622V502.622C454.986 513.671 446.029 522.628 434.979 522.628Z" fill="#C4B6FF"></path>
<path d="M415.461 502.622H415.461C404.411 502.622 395.454 493.665 395.454 482.615V482.615C395.454 471.566 404.411 462.609 415.461 462.609H415.461C426.51 462.609 435.467 471.566 435.467 482.615V482.615C435.467 493.665 426.51 502.622 415.461 502.622Z" fill="#C4B6FF"></path>
<path fill-rule="evenodd" clip-rule="evenodd" d="M236.903 139.387H170.526V138.331H236.903V139.387Z" fill="#C4B6FF"></path>
<path fill-rule="evenodd" clip-rule="evenodd" d="M236.903 145.466H170.526V144.41H236.903V145.466Z" fill="#C4B6FF"></path>
<path fill-rule="evenodd" clip-rule="evenodd" d="M215.778 151.546H170.526V150.489H215.778V151.546Z" fill="#C4B6FF"></path>
<path fill-rule="evenodd" clip-rule="evenodd" d="M215.778 157.625H181.089V156.569H215.778V157.625Z" fill="#C4B6FF"></path>
<path fill-rule="evenodd" clip-rule="evenodd" d="M215.778 163.704H181.089V162.647H215.778V163.704Z" fill="#C4B6FF"></path>
<path d="M580.796 297.849C581.334 297.797 581.663 298.228 582.239 298.928C581.422 295.451 579.768 289.447 581.357 287.982C581.709 287.657 584.708 286.421 585.643 289.463C586.235 283.999 587.728 276.766 591.497 276.476C596.379 276.1 594.884 287.774 594.102 292.405C595.184 290.749 595.266 289.623 596.192 289.269C597.176 288.893 599.468 290.281 599.025 292.389C598.587 294.472 598.418 297.18 597.888 299.455C598.916 298.301 599.422 297.464 600.301 297.537C601.568 297.643 602.329 299.532 602.468 299.877C603.695 302.922 602.202 306.836 599.634 309.238C597.226 311.491 594.216 312.092 592.16 312.22V318.725H589.82V312.189C584.938 311.783 579.397 308.798 578.462 304.402C577.827 301.418 579.358 297.988 580.796 297.849Z" fill="#7D55FF"></path>
<path d="M576.764 296.897C576.226 296.845 575.896 297.276 575.321 297.976C576.137 294.499 577.791 288.495 576.203 287.029C575.851 286.704 572.851 285.469 571.916 288.511C571.325 283.047 569.831 275.813 566.062 275.523C561.18 275.148 562.676 286.822 563.458 291.453C562.376 289.797 562.293 288.67 561.367 288.317C560.383 287.941 558.092 289.329 558.535 291.437C558.972 293.52 559.141 296.228 559.672 298.503C558.643 297.349 558.137 296.512 557.259 296.585C555.992 296.691 555.23 298.58 555.091 298.925C553.864 301.97 555.358 305.884 557.925 308.286C560.334 310.539 563.344 311.14 565.399 311.268V317.773H567.739V311.237C572.621 310.831 578.163 307.846 579.098 303.45C579.732 300.466 578.201 297.036 576.764 296.897Z" fill="#7D55FF"></path>
<path d="M588.128 304.182C587.59 304.13 587.261 304.56 586.685 305.26C587.501 301.783 589.155 295.779 587.567 294.314C587.215 293.989 584.216 292.753 583.281 295.795C582.689 290.331 581.195 283.098 577.426 282.808C572.545 282.433 574.04 294.107 574.822 298.738C573.74 297.082 573.658 295.955 572.731 295.601C571.747 295.225 569.456 296.613 569.899 298.721C570.336 300.805 570.506 303.513 571.036 305.788C570.008 304.634 569.502 303.796 568.623 303.87C567.356 303.976 566.595 305.865 566.456 306.21C565.228 309.255 566.722 313.169 569.29 315.571C571.698 317.824 574.708 318.425 576.763 318.553V325.057H579.104V318.522C583.986 318.116 589.527 315.13 590.462 310.734C591.097 307.751 589.566 304.32 588.128 304.182Z" fill="#C4B6FF"></path>
<path d="M485.381 466.177C485.919 466.125 486.248 466.555 486.824 467.255C486.007 463.778 484.353 457.774 485.941 456.309C486.293 455.984 489.293 454.748 490.228 457.79C490.819 452.326 492.313 445.093 496.082 444.803C500.964 444.428 499.468 456.102 498.686 460.733C499.769 459.077 499.851 457.95 500.777 457.596C501.761 457.22 504.052 458.608 503.61 460.717C503.172 462.8 503.003 465.508 502.473 467.783C503.501 466.629 504.007 465.792 504.886 465.865C506.152 465.971 506.914 467.86 507.053 468.205C508.28 471.25 506.787 475.164 504.219 477.566C501.81 479.819 498.8 480.42 496.745 480.548V487.053H494.405V480.517C489.523 480.111 483.982 477.125 483.047 472.729C482.412 469.746 483.943 466.315 485.381 466.177Z" fill="#C4B6FF"></path>
<path d="M458.083 457.793C457.545 457.741 457.215 458.171 456.64 458.871C457.456 455.394 459.11 449.39 457.522 447.925C457.17 447.6 454.17 446.364 453.235 449.406C452.644 443.942 451.15 436.709 447.381 436.419C442.5 436.044 443.995 447.718 444.777 452.349C443.695 450.693 443.612 449.566 442.686 449.212C441.702 448.836 439.411 450.224 439.854 452.332C440.291 454.416 440.46 457.124 440.991 459.399C439.962 458.245 439.456 457.407 438.578 457.481C437.311 457.586 436.549 459.476 436.41 459.821C435.183 462.866 436.677 466.78 439.244 469.182C441.653 471.434 444.663 472.036 446.718 472.164V478.668H449.058V472.133C453.94 471.727 459.482 468.741 460.417 464.345C461.051 461.361 459.52 457.931 458.083 457.793Z" fill="#C4B6FF"></path>
<path d="M480.911 447.96C480.373 447.909 480.044 448.339 479.468 449.039C480.285 445.562 481.939 439.558 480.351 438.093C479.998 437.768 476.999 436.532 476.064 439.574C475.473 434.11 473.979 426.877 470.21 426.587C465.328 426.211 466.824 437.886 467.606 442.516C466.523 440.86 466.441 439.734 465.515 439.38C464.531 439.004 462.24 440.392 462.682 442.5C463.12 444.583 463.289 447.291 463.819 449.566C462.791 448.412 462.285 447.575 461.406 447.648C460.14 447.754 459.378 449.643 459.239 449.988C458.012 453.033 459.505 456.947 462.073 459.349C464.482 461.602 467.492 462.203 469.547 462.331V468.836H471.887V462.301C476.769 461.894 482.31 458.909 483.245 454.513C483.88 451.529 482.349 448.099 480.911 447.96Z" fill="#C4B6FF"></path>
<path fill-rule="evenodd" clip-rule="evenodd" d="M453.463 250.754C453.463 250.462 453.7 250.226 453.992 250.226H498.894C499.186 250.226 499.422 250.462 499.422 250.754C499.422 251.046 499.186 251.282 498.894 251.282H453.992C453.7 251.282 453.463 251.046 453.463 250.754Z" fill="#B5CDFB"></path>
<path fill-rule="evenodd" clip-rule="evenodd" d="M428.895 250.754C428.895 250.462 429.131 250.226 429.423 250.226H450.732C451.024 250.226 451.26 250.462 451.26 250.754C451.26 251.046 451.024 251.282 450.732 251.282H429.423C429.131 251.282 428.895 251.046 428.895 250.754Z" fill="#B5CDFB"></path>
<path fill-rule="evenodd" clip-rule="evenodd" d="M430.665 255.982C430.665 255.69 430.901 255.453 431.193 255.453H476.096C476.387 255.453 476.624 255.69 476.624 255.982C476.624 256.273 476.387 256.51 476.096 256.51H431.193C430.901 256.51 430.665 256.273 430.665 255.982Z" fill="#B5CDFB"></path>
<path fill-rule="evenodd" clip-rule="evenodd" d="M406.096 255.982C406.096 255.69 406.332 255.453 406.624 255.453H427.933C428.225 255.453 428.461 255.69 428.461 255.982C428.461 256.273 428.225 256.51 427.933 256.51H406.624C406.332 256.51 406.096 256.273 406.096 255.982Z" fill="#B5CDFB"></path>
<path d="M265.177 276.008C265.177 276.008 259.461 278.631 259.836 284.254C260.21 289.876 266.583 280.974 265.177 276.008Z" fill="#414042"></path>
<path d="M625.627 185.437H608.673V216.128H625.627V185.437Z" fill="#C4B6FF"></path>
<path d="M636.073 199.175H619.12V216.128H636.073V199.175Z" fill="#C4B6FF"></path>
<g opacity="0.7">
<path d="M615.866 187.578H611.413V196.226H615.866V187.578Z" fill="white"></path>
<path d="M622.887 187.578H618.435V196.226H622.887V187.578Z" fill="white"></path>
<path d="M615.866 198.709H611.413V207.357H615.866V198.709Z" fill="white"></path>
<path d="M622.887 198.709H618.435V207.357H622.887V198.709Z" fill="white"></path>
</g>
<path d="M613.631 422.75H596.678V477.183H613.631V422.75Z" fill="#7D55FF"></path>
<path d="M624.077 460.23H607.124V477.183H624.077V460.23Z" fill="#7D55FF"></path>
<path d="M599.808 448.804H582.854V477.183H599.808V448.804Z" fill="#7D55FF"></path>
<path d="M603.87 448.633H599.418V457.281H603.87V448.633Z" fill="#B5CDFB"></path>
<path d="M610.891 448.633H606.439V457.281H610.891V448.633Z" fill="#B5CDFB"></path>
<path d="M603.87 459.764H599.418V468.412H603.87V459.764Z" fill="#B5CDFB"></path>
<path d="M610.891 459.764H606.439V468.412H610.891V459.764Z" fill="#B5CDFB"></path>
<path d="M603.87 426.087H599.418V434.735H603.87V426.087Z" fill="#B5CDFB"></path>
<path d="M610.891 426.087H606.439V434.735H610.891V426.087Z" fill="#B5CDFB"></path>
<path d="M603.87 437.219H599.418V445.867H603.87V437.219Z" fill="#B5CDFB"></path>
<path d="M610.891 437.219H606.439V445.867H610.891V437.219Z" fill="#B5CDFB"></path>
<path d="M439.588 365.741H422.635V420.175H439.588V365.741Z" fill="#C4B6FF"></path>
<path d="M450.034 403.22H433.081V420.174H450.034V403.22Z" fill="#C4B6FF"></path>
<path d="M425.765 391.795H408.811V420.174H425.765V391.795Z" fill="#C4B6FF"></path>
<path d="M429.827 391.624H425.375V400.272H429.827V391.624Z" fill="#7D55FF"></path>
<path d="M436.848 391.624H432.396V400.272H436.848V391.624Z" fill="#7D55FF"></path>
<path d="M429.827 402.755H425.375V411.403H429.827V402.755Z" fill="#7D55FF"></path>
<path d="M436.848 402.755H432.396V411.403H436.848V402.755Z" fill="#7D55FF"></path>
<path d="M429.827 369.077H425.375V377.725H429.827V369.077Z" fill="#7D55FF"></path>
<path d="M436.848 369.077H432.396V377.725H436.848V369.077Z" fill="#7D55FF"></path>
<path d="M429.827 380.208H425.375V388.856H429.827V380.208Z" fill="#7D55FF"></path>
<path d="M436.848 380.208H432.396V388.856H436.848V380.208Z" fill="#7D55FF"></path>
<path d="M555.285 365.582C540.065 365.582 527.727 377.919 527.727 393.151C527.727 403.079 555.285 455.999 555.285 455.999C555.285 455.999 582.854 401.369 582.854 393.151C582.854 377.919 570.517 365.582 555.285 365.582ZM555.285 406.238C546.909 406.238 540.117 399.446 540.117 391.07C540.117 382.694 546.909 375.902 555.285 375.902C563.672 375.902 570.464 382.694 570.464 391.07C570.464 399.446 563.672 406.238 555.285 406.238Z" fill="#7D55FF"></path>
<path d="M555.291 467.339C564.575 467.339 572.101 465.339 572.101 462.871C572.101 460.403 564.575 458.403 555.291 458.403C546.006 458.403 538.48 460.403 538.48 462.871C538.48 465.339 546.006 467.339 555.291 467.339Z" fill="#7D55FF"></path>
<path d="M259.643 502.137C262.272 502.137 264.403 500.006 264.403 497.377C264.403 494.749 262.272 492.618 259.643 492.618C257.014 492.618 254.883 494.749 254.883 497.377C254.883 500.006 257.014 502.137 259.643 502.137Z" fill="#C4B6FF"></path>
<path d="M764.801 566.469C767.43 566.469 769.561 564.338 769.561 561.709C769.561 559.081 767.43 556.95 764.801 556.95C762.172 556.95 760.041 559.081 760.041 561.709C760.041 564.338 762.172 566.469 764.801 566.469Z" fill="#F0F1F1"></path>
<path fill-rule="evenodd" clip-rule="evenodd" d="M324.735 151.826C326.781 151.826 328.439 150.168 328.439 148.123C328.439 146.077 326.781 144.419 324.735 144.419C322.69 144.419 321.032 146.077 321.032 148.123C321.032 150.168 322.69 151.826 324.735 151.826ZM329.495 148.123C329.495 150.751 327.364 152.882 324.735 152.882C322.107 152.882 319.976 150.751 319.976 148.123C319.976 145.494 322.107 143.363 324.735 143.363C327.364 143.363 329.495 145.494 329.495 148.123Z" fill="#C4B6FF"></path>
<path d="M389.859 26.5194C392.487 26.5194 394.618 24.3884 394.618 21.7597C394.618 19.131 392.487 17 389.859 17C387.23 17 385.099 19.131 385.099 21.7597C385.099 24.3884 387.23 26.5194 389.859 26.5194Z" fill="#B5CDFB"></path>
<path d="M235.218 193.132C237.846 193.132 239.977 191.001 239.977 188.372C239.977 185.744 237.846 183.613 235.218 183.613C232.589 183.613 230.458 185.744 230.458 188.372C230.458 191.001 232.589 193.132 235.218 193.132Z" fill="#C4B6FF"></path>
<path d="M676.609 546.537C679.238 546.537 681.369 544.406 681.369 541.777C681.369 539.148 679.238 537.017 676.609 537.017C673.98 537.017 671.849 539.148 671.849 541.777C671.849 544.406 673.98 546.537 676.609 546.537Z" fill="#231F20"></path>
<path fill-rule="evenodd" clip-rule="evenodd" d="M20.8397 478.196C26.2429 478.196 30.6231 473.816 30.6231 468.412C30.6231 463.009 26.2429 458.629 20.8397 458.629C15.4365 458.629 11.0563 463.009 11.0563 468.412C11.0563 473.816 15.4365 478.196 20.8397 478.196ZM31.6794 468.412C31.6794 474.399 26.8263 479.252 20.8397 479.252C14.8531 479.252 10 474.399 10 468.412C10 462.426 14.8531 457.573 20.8397 457.573C26.8263 457.573 31.6794 462.426 31.6794 468.412Z" fill="#C4B6FF"></path>
<path fill-rule="evenodd" clip-rule="evenodd" d="M761.43 223.116C766.833 223.116 771.213 218.736 771.213 213.333C771.213 207.929 766.833 203.549 761.43 203.549C756.027 203.549 751.646 207.929 751.646 213.333C751.646 218.736 756.027 223.116 761.43 223.116ZM772.27 213.333C772.27 219.319 767.416 224.172 761.43 224.172C755.443 224.172 750.59 219.319 750.59 213.333C750.59 207.346 755.443 202.493 761.43 202.493C767.416 202.493 772.27 207.346 772.27 213.333Z" fill="#C4B6FF"></path>
<path d="M463.13 132.799C463.615 132.799 464.007 132.407 464.007 131.923C464.007 131.439 463.615 131.046 463.13 131.046C462.646 131.046 462.254 131.439 462.254 131.923C462.254 132.407 462.646 132.799 463.13 132.799Z" fill="#C4B6FF"></path>
<path d="M470.378 137.822C470.862 137.822 471.255 137.43 471.255 136.946C471.255 136.462 470.862 136.069 470.378 136.069C469.894 136.069 469.502 136.462 469.502 136.946C469.502 137.43 469.894 137.822 470.378 137.822Z" fill="#C4B6FF"></path>
<path d="M463.566 140.654C464.05 140.654 464.443 140.262 464.443 139.778C464.443 139.294 464.05 138.901 463.566 138.901C463.082 138.901 462.69 139.294 462.69 139.778C462.69 140.262 463.082 140.654 463.566 140.654Z" fill="#C4B6FF"></path>
<path d="M486.155 180.264C486.639 180.264 487.031 179.872 487.031 179.388C487.031 178.904 486.639 178.511 486.155 178.511C485.671 178.511 485.278 178.904 485.278 179.388C485.278 179.872 485.671 180.264 486.155 180.264Z" fill="#C4B6FF"></path>
<path d="M476.729 164.825C477.213 164.825 477.605 164.432 477.605 163.948C477.605 163.464 477.213 163.072 476.729 163.072C476.245 163.072 475.852 163.464 475.852 163.948C475.852 164.432 476.245 164.825 476.729 164.825Z" fill="#C4B6FF"></path>
<path d="M471.785 154.374C472.269 154.374 472.662 153.982 472.662 153.498C472.662 153.014 472.269 152.621 471.785 152.621C471.301 152.621 470.909 153.014 470.909 153.498C470.909 153.982 471.301 154.374 471.785 154.374Z" fill="#C4B6FF"></path>
<path d="M476.729 175.848C477.213 175.848 477.605 175.456 477.605 174.972C477.605 174.488 477.213 174.095 476.729 174.095C476.245 174.095 475.852 174.488 475.852 174.972C475.852 175.456 476.245 175.848 476.729 175.848Z" fill="#C4B6FF"></path>
<path d="M481.452 159.364C482.188 159.364 482.784 158.767 482.784 158.032C482.784 157.297 482.188 156.7 481.452 156.7C480.717 156.7 480.121 157.297 480.121 158.032C480.121 158.767 480.717 159.364 481.452 159.364Z" fill="#C4B6FF"></path>
<path d="M486.155 169.631C486.89 169.631 487.487 169.035 487.487 168.3C487.487 167.564 486.89 166.968 486.155 166.968C485.42 166.968 484.823 167.564 484.823 168.3C484.823 169.035 485.42 169.631 486.155 169.631Z" fill="#C4B6FF"></path>
<path d="M467.749 188.271C468.484 188.271 469.08 187.674 469.08 186.939C469.08 186.204 468.484 185.607 467.749 185.607C467.013 185.607 466.417 186.204 466.417 186.939C466.417 187.674 467.013 188.271 467.749 188.271Z" fill="#C4B6FF"></path>
<path d="M474.521 145.07C475.256 145.07 475.852 144.474 475.852 143.739C475.852 143.003 475.256 142.407 474.521 142.407C473.785 142.407 473.189 143.003 473.189 143.739C473.189 144.474 473.785 145.07 474.521 145.07Z" fill="#C4B6FF"></path>
<path d="M479.497 186.939C480.232 186.939 480.829 186.343 480.829 185.607C480.829 184.872 480.232 184.276 479.497 184.276C478.762 184.276 478.165 184.872 478.165 185.607C478.165 186.343 478.762 186.939 479.497 186.939Z" fill="#C4B6FF"></path>
<path d="M753.061 326.313C753.545 326.313 753.938 325.921 753.938 325.437C753.938 324.953 753.545 324.561 753.061 324.561C752.577 324.561 752.185 324.953 752.185 325.437C752.185 325.921 752.577 326.313 753.061 326.313Z" fill="#C4B6FF"></path>
<path d="M760.309 331.337C760.793 331.337 761.186 330.944 761.186 330.46C761.186 329.976 760.793 329.584 760.309 329.584C759.825 329.584 759.433 329.976 759.433 330.46C759.433 330.944 759.825 331.337 760.309 331.337Z" fill="#C4B6FF"></path>
<path d="M753.497 334.168C753.981 334.168 754.373 333.776 754.373 333.292C754.373 332.808 753.981 332.415 753.497 332.415C753.013 332.415 752.62 332.808 752.62 333.292C752.62 333.776 753.013 334.168 753.497 334.168Z" fill="#C4B6FF"></path>
<path d="M782.857 373.779C783.341 373.779 783.734 373.386 783.734 372.902C783.734 372.418 783.341 372.026 782.857 372.026C782.373 372.026 781.981 372.418 781.981 372.902C781.981 373.386 782.373 373.779 782.857 373.779Z" fill="#C4B6FF"></path>
<path d="M773.431 358.339C773.915 358.339 774.307 357.946 774.307 357.462C774.307 356.978 773.915 356.586 773.431 356.586C772.947 356.586 772.555 356.978 772.555 357.462C772.555 357.946 772.947 358.339 773.431 358.339Z" fill="#C4B6FF"></path>
<path d="M768.488 347.888C768.972 347.888 769.364 347.496 769.364 347.012C769.364 346.528 768.972 346.135 768.488 346.135C768.004 346.135 767.611 346.528 767.611 347.012C767.611 347.496 768.004 347.888 768.488 347.888Z" fill="#C4B6FF"></path>
<path d="M773.431 369.362C773.915 369.362 774.307 368.97 774.307 368.486C774.307 368.002 773.915 367.609 773.431 367.609C772.947 367.609 772.555 368.002 772.555 368.486C772.555 368.97 772.947 369.362 773.431 369.362Z" fill="#C4B6FF"></path>
<path d="M778.155 352.878C778.89 352.878 779.486 352.281 779.486 351.546C779.486 350.811 778.89 350.214 778.155 350.214C777.419 350.214 776.823 350.811 776.823 351.546C776.823 352.281 777.419 352.878 778.155 352.878Z" fill="#C4B6FF"></path>
<path d="M782.857 363.145C783.593 363.145 784.189 362.549 784.189 361.814C784.189 361.078 783.593 360.482 782.857 360.482C782.122 360.482 781.526 361.078 781.526 361.814C781.526 362.549 782.122 363.145 782.857 363.145Z" fill="#C4B6FF"></path>
<path d="M764.451 381.785C765.187 381.785 765.783 381.189 765.783 380.453C765.783 379.718 765.187 379.122 764.451 379.122C763.716 379.122 763.12 379.718 763.12 380.453C763.12 381.189 763.716 381.785 764.451 381.785Z" fill="#C4B6FF"></path>
<path d="M764.451 338.585C765.187 338.585 765.783 337.988 765.783 337.253C765.783 336.518 765.187 335.921 764.451 335.921C763.716 335.921 763.12 336.518 763.12 337.253C763.12 337.988 763.716 338.585 764.451 338.585Z" fill="#C4B6FF"></path>
<path d="M776.199 380.453C776.935 380.453 777.531 379.857 777.531 379.122C777.531 378.386 776.935 377.79 776.199 377.79C775.464 377.79 774.868 378.386 774.868 379.122C774.868 379.857 775.464 380.453 776.199 380.453Z" fill="#C4B6FF"></path>
<path d="M420.228 472.443C420.616 472.443 420.931 472.129 420.931 471.741C420.931 471.353 420.616 471.038 420.228 471.038C419.841 471.038 419.526 471.353 419.526 471.741C419.526 472.129 419.841 472.443 420.228 472.443Z" fill="#B5CDFB"></path>
<path d="M426.037 476.469C426.425 476.469 426.74 476.154 426.74 475.766C426.74 475.378 426.425 475.064 426.037 475.064C425.649 475.064 425.335 475.378 425.335 475.766C425.335 476.154 425.649 476.469 426.037 476.469Z" fill="#B5CDFB"></path>
<path d="M420.578 478.738C420.966 478.738 421.28 478.424 421.28 478.036C421.28 477.648 420.966 477.333 420.578 477.333C420.19 477.333 419.875 477.648 419.875 478.036C419.875 478.424 420.19 478.738 420.578 478.738Z" fill="#B5CDFB"></path>
<path d="M447.125 510.491C447.513 510.491 447.828 510.177 447.828 509.789C447.828 509.401 447.513 509.086 447.125 509.086C446.737 509.086 446.423 509.401 446.423 509.789C446.423 510.177 446.737 510.491 447.125 510.491Z" fill="#B5CDFB"></path>
<path d="M439.57 498.117C439.958 498.117 440.273 497.802 440.273 497.414C440.273 497.026 439.958 496.712 439.57 496.712C439.182 496.712 438.868 497.026 438.868 497.414C438.868 497.802 439.182 498.117 439.57 498.117Z" fill="#B5CDFB"></path>
<path d="M435.608 489.741C435.996 489.741 436.311 489.427 436.311 489.039C436.311 488.651 435.996 488.336 435.608 488.336C435.22 488.336 434.906 488.651 434.906 489.039C434.906 489.427 435.22 489.741 435.608 489.741Z" fill="#B5CDFB"></path>
<path d="M439.57 506.952C439.958 506.952 440.273 506.637 440.273 506.249C440.273 505.861 439.958 505.547 439.57 505.547C439.182 505.547 438.868 505.861 438.868 506.249C438.868 506.637 439.182 506.952 439.57 506.952Z" fill="#B5CDFB"></path>
<path d="M443.356 493.74C443.946 493.74 444.423 493.262 444.423 492.673C444.423 492.083 443.946 491.605 443.356 491.605C442.767 491.605 442.289 492.083 442.289 492.673C442.289 493.262 442.767 493.74 443.356 493.74Z" fill="#B5CDFB"></path>
<path d="M447.125 501.969C447.715 501.969 448.192 501.491 448.192 500.902C448.192 500.312 447.715 499.834 447.125 499.834C446.536 499.834 446.058 500.312 446.058 500.902C446.058 501.491 446.536 501.969 447.125 501.969Z" fill="#B5CDFB"></path>
<path d="M432.373 516.908C432.963 516.908 433.44 516.43 433.44 515.841C433.44 515.252 432.963 514.774 432.373 514.774C431.784 514.774 431.306 515.252 431.306 515.841C431.306 516.43 431.784 516.908 432.373 516.908Z" fill="#B5CDFB"></path>
<path d="M429.357 482.278C429.947 482.278 430.425 481.8 430.425 481.211C430.425 480.621 429.947 480.144 429.357 480.144C428.768 480.144 428.29 480.621 428.29 481.211C428.29 481.8 428.768 482.278 429.357 482.278Z" fill="#B5CDFB"></path>
<path d="M441.789 515.841C442.379 515.841 442.856 515.363 442.856 514.774C442.856 514.184 442.379 513.706 441.789 513.706C441.2 513.706 440.722 514.184 440.722 514.774C440.722 515.363 441.2 515.841 441.789 515.841Z" fill="#B5CDFB"></path>
<path d="M644.739 282.437H625.557C620.914 282.437 617.15 278.674 617.15 274.031V274.031C617.15 269.388 620.914 265.624 625.557 265.624H644.739C649.382 265.624 653.146 269.388 653.146 274.031V274.031C653.146 278.674 649.382 282.437 644.739 282.437Z" fill="#7D55FF"></path>
<path d="M636.537 274.031H636.537C631.894 274.031 628.131 270.267 628.131 265.624V265.624C628.131 260.981 631.894 257.217 636.537 257.217H636.537C641.18 257.217 644.944 260.981 644.944 265.624V265.624C644.944 270.267 641.18 274.031 636.537 274.031Z" fill="#7D55FF"></path>
<path opacity="0.4" d="M95.0864 392.277H45.3137C42.5338 392.277 40.2802 390.023 40.2802 387.243V267.565C40.2802 264.785 42.5338 262.531 45.3137 262.531H95.0864C97.8664 262.531 100.12 264.785 100.12 267.565V387.243C100.12 390.023 97.8664 392.277 95.0864 392.277Z" fill="#B5CDFB"></path>
<path d="M95.0864 247.28H45.3137C42.5338 247.28 40.2802 245.026 40.2802 242.246V190.459C40.2802 187.679 42.5338 185.426 45.3137 185.426H95.0864C97.8664 185.426 100.12 187.679 100.12 190.459V242.246C100.12 245.026 97.8664 247.28 95.0864 247.28Z" fill="#C4B6FF"></path>
<path d="M65.5782 365.629H38.6525C36.7286 365.629 35.169 364.069 35.169 362.145V361.391C35.169 359.467 36.7286 357.908 38.6525 357.908H65.5782C67.5021 357.908 69.0618 359.467 69.0618 361.391V362.145C69.0618 364.069 67.5021 365.629 65.5782 365.629Z" fill="#C4B6FF"></path>
<path d="M102.973 365.629H76.0475C74.1236 365.629 72.564 364.069 72.564 362.145V361.391C72.564 359.467 74.1236 357.908 76.0475 357.908H102.973C104.897 357.908 106.457 359.467 106.457 361.391V362.145C106.457 364.069 104.897 365.629 102.973 365.629Z" fill="#B5CDFB"></path>
<path d="M93.5417 328.204H50.9447C49.8474 328.204 48.9578 327.314 48.9578 326.217V325.787C48.9578 324.69 49.8474 323.8 50.9447 323.8H93.5417C94.6391 323.8 95.5286 324.69 95.5286 325.787V326.217C95.5286 327.314 94.6391 328.204 93.5417 328.204Z" fill="#C4B6FF"></path>
<path d="M82.2279 336.36H50.9447C49.8474 336.36 48.9578 335.471 48.9578 334.373V333.943C48.9578 332.846 49.8474 331.957 50.9447 331.957H82.2279C83.3253 331.957 84.2148 332.846 84.2148 333.943V334.373C84.2148 335.471 83.3253 336.36 82.2279 336.36Z" fill="#C4B6FF"></path>
<path d="M82.2279 344.517H50.9447C49.8474 344.517 48.9578 343.627 48.9578 342.53V342.1C48.9578 341.003 49.8474 340.113 50.9447 340.113H82.2279C83.3253 340.113 84.2148 341.003 84.2148 342.1V342.53C84.2148 343.627 83.3253 344.517 82.2279 344.517Z" fill="#C4B6FF"></path>
<path d="M85.8416 239.864H54.5585C53.4611 239.864 52.5715 238.974 52.5715 237.877V237.447C52.5715 236.35 53.4611 235.46 54.5585 235.46H85.8416C86.939 235.46 87.8285 236.35 87.8285 237.447V237.877C87.8285 238.974 86.939 239.864 85.8416 239.864Z" fill="#B5CDFB"></path>
<path d="M76.6579 383.947H63.7427C63.24 383.947 62.8325 383.54 62.8325 383.037V382.84C62.8325 382.337 63.24 381.93 63.7427 381.93H76.6579C77.1606 381.93 77.5681 382.337 77.5681 382.84V383.037C77.5681 383.54 77.1606 383.947 76.6579 383.947Z" fill="#C4B6FF"></path>
<path opacity="0.4" d="M96.7036 176.797H43.6965C41.5182 176.797 39.7524 175.031 39.7524 172.853V172C39.7524 169.821 41.5182 168.055 43.6965 168.055H96.7036C98.8819 168.055 100.648 169.821 100.648 172V172.853C100.648 175.031 98.8819 176.797 96.7036 176.797Z" fill="#B5CDFB"></path>
<path d="M51.4073 154.173H43.1547C42.4007 154.173 41.7894 153.562 41.7894 152.808V152.513C41.7894 151.758 42.4007 151.147 43.1547 151.147H51.4073C52.1614 151.147 52.7726 151.758 52.7726 152.513V152.808C52.7726 153.562 52.1614 154.173 51.4073 154.173Z" fill="#C4B6FF"></path>
<path d="M97.2454 154.173H88.9928C88.2388 154.173 87.6275 153.562 87.6275 152.808V152.513C87.6275 151.758 88.2388 151.147 88.9928 151.147H97.2454C97.9994 151.147 98.6107 151.758 98.6107 152.513V152.808C98.6107 153.562 97.9994 154.173 97.2454 154.173Z" fill="#C4B6FF"></path>
<path fill-rule="evenodd" clip-rule="evenodd" d="M95.5287 177.325H44.8715V176.269H95.5287V177.325Z" fill="#C4B6FF"></path>
<path fill-rule="evenodd" clip-rule="evenodd" d="M95.5287 285.656H44.8715V284.6H95.5287V285.656Z" fill="#C4B6FF"></path>
<path fill-rule="evenodd" clip-rule="evenodd" d="M95.5287 255.434H44.8715V254.377H95.5287V255.434Z" fill="#C4B6FF"></path>
<path fill-rule="evenodd" clip-rule="evenodd" d="M97.2488 311.81C98.2444 311.81 99.2025 311.654 100.1 311.365L100.424 312.371C99.4225 312.693 98.3555 312.867 97.2488 312.867H43.1513C42.0996 312.867 41.0836 312.71 40.1258 312.418L40.4337 311.407C41.2928 311.669 42.2051 311.81 43.1513 311.81H97.2488Z" fill="#BBBDBF"></path>
<path fill-rule="evenodd" clip-rule="evenodd" d="M43.1513 149.442C38.0109 149.442 33.8437 153.609 33.8437 158.75V302.512C33.8437 306.706 36.6185 310.254 40.4337 311.416L40.1258 312.427C35.8785 311.132 32.7875 307.184 32.7875 302.512V158.75C32.7875 153.026 37.4275 148.386 43.1513 148.386H97.2488C102.973 148.386 107.613 153.026 107.613 158.75V302.512C107.613 307.129 104.594 311.039 100.424 312.38L100.1 311.375C103.847 310.17 106.556 306.657 106.556 302.512V158.75C106.556 153.609 102.389 149.442 97.2488 149.442H43.1513Z" fill="#C4B6FF"></path>
<path d="M81.3247 154.793H59.0755C57.1455 154.793 55.5809 153.229 55.5809 151.299V147.994H84.8193V151.299C84.8193 153.229 83.2547 154.793 81.3247 154.793Z" fill="#C4B6FF"></path>
<path d="M50.9318 303.065H45.1011C44.0708 303.065 43.2357 302.23 43.2357 301.2V295.369C43.2357 294.339 44.0708 293.504 45.1011 293.504H50.9318C51.9621 293.504 52.7972 294.339 52.7972 295.369V301.2C52.7972 302.23 51.9621 303.065 50.9318 303.065Z" fill="#7D55FF"></path>
<path fill-rule="evenodd" clip-rule="evenodd" d="M45.101 293.768C44.2166 293.768 43.4997 294.485 43.4997 295.369V301.2C43.4997 302.084 44.2166 302.801 45.101 302.801H50.9318C51.8162 302.801 52.5331 302.084 52.5331 301.2V295.369C52.5331 294.485 51.8162 293.768 50.9318 293.768H45.101ZM42.9716 295.369C42.9716 294.193 43.925 293.24 45.101 293.24H50.9318C52.1079 293.24 53.0613 294.193 53.0613 295.369V301.2C53.0613 302.376 52.1079 303.329 50.9318 303.329H45.101C43.925 303.329 42.9716 302.376 42.9716 301.2V295.369Z" fill="#C4B6FF"></path>
<path d="M65.7208 303.065H59.8901C58.8598 303.065 58.0247 302.23 58.0247 301.2V295.369C58.0247 294.339 58.8598 293.504 59.8901 293.504H65.7208C66.7511 293.504 67.5863 294.339 67.5863 295.369V301.2C67.5863 302.23 66.7511 303.065 65.7208 303.065Z" fill="#7D55FF"></path>
<path fill-rule="evenodd" clip-rule="evenodd" d="M59.8901 293.768C59.0057 293.768 58.2888 294.485 58.2888 295.369V301.2C58.2888 302.084 59.0057 302.801 59.8901 302.801H65.7209C66.6053 302.801 67.3222 302.084 67.3222 301.2V295.369C67.3222 294.485 66.6053 293.768 65.7209 293.768H59.8901ZM57.7606 295.369C57.7606 294.193 58.714 293.24 59.8901 293.24H65.7209C66.8969 293.24 67.8503 294.193 67.8503 295.369V301.2C67.8503 302.376 66.8969 303.329 65.7209 303.329H59.8901C58.714 303.329 57.7606 302.376 57.7606 301.2V295.369Z" fill="#C4B6FF"></path>
<path d="M80.51 303.065H74.6792C73.649 303.065 72.8138 302.23 72.8138 301.2V295.369C72.8138 294.339 73.649 293.504 74.6792 293.504H80.51C81.5402 293.504 82.3754 294.339 82.3754 295.369V301.2C82.3754 302.23 81.5402 303.065 80.51 303.065Z" fill="#7D55FF"></path>
<path fill-rule="evenodd" clip-rule="evenodd" d="M74.6792 293.768C73.7948 293.768 73.0778 294.485 73.0778 295.369V301.2C73.0778 302.084 73.7948 302.801 74.6792 302.801H80.5099C81.3943 302.801 82.1113 302.084 82.1113 301.2V295.369C82.1113 294.485 81.3943 293.768 80.5099 293.768H74.6792ZM72.5497 295.369C72.5497 294.193 73.5031 293.24 74.6792 293.24H80.5099C81.686 293.24 82.6394 294.193 82.6394 295.369V301.2C82.6394 302.376 81.686 303.329 80.5099 303.329H74.6792C73.5031 303.329 72.5497 302.376 72.5497 301.2V295.369Z" fill="#C4B6FF"></path>
<path d="M95.2991 303.065H89.4683C88.4381 303.065 87.6029 302.23 87.6029 301.2V295.369C87.6029 294.339 88.4381 293.504 89.4683 293.504H95.2991C96.3293 293.504 97.1645 294.339 97.1645 295.369V301.2C97.1645 302.23 96.3293 303.065 95.2991 303.065Z" fill="#7D55FF"></path>
<path fill-rule="evenodd" clip-rule="evenodd" d="M89.4683 293.768C88.5839 293.768 87.8669 294.485 87.8669 295.369V301.2C87.8669 302.084 88.5839 302.801 89.4683 302.801H95.2991C96.1835 302.801 96.9004 302.084 96.9004 301.2V295.369C96.9004 294.485 96.1835 293.768 95.2991 293.768H89.4683ZM87.3388 295.369C87.3388 294.193 88.2922 293.24 89.4683 293.24H95.2991C96.4751 293.24 97.4285 294.193 97.4285 295.369V301.2C97.4285 302.376 96.4751 303.329 95.2991 303.329H89.4683C88.2922 303.329 87.3388 302.376 87.3388 301.2V295.369Z" fill="#C4B6FF"></path>
<path d="M69.2173 200.193C64.6962 200.193 61.0317 203.858 61.0317 208.382C61.0317 211.331 69.2173 227.05 69.2173 227.05C69.2173 227.05 77.4061 210.823 77.4061 208.382C77.4061 203.858 73.7416 200.193 69.2173 200.193ZM69.2173 211.437C66.7293 211.437 65.2239 209.494 65.2239 207.764C65.2239 205.467 67.2795 203.946 69.2173 203.946C70.9964 203.946 72.7141 205.974 72.7141 207.764C72.7141 209.325 71.7085 211.437 69.2173 211.437Z" fill="#7D55FF"></path>
<path d="M69.2189 230.418C71.9767 230.418 74.2123 229.824 74.2123 229.091C74.2123 228.358 71.9767 227.764 69.2189 227.764C66.4612 227.764 64.2256 228.358 64.2256 229.091C64.2256 229.824 66.4612 230.418 69.2189 230.418Z" fill="black" fill-opacity="0.58"></path>
<path fill-rule="evenodd" clip-rule="evenodd" d="M467.342 342.32L450.697 341.483L450.75 340.428L467.395 341.265L467.342 342.32Z" fill="#C4B6FF"></path>
<path fill-rule="evenodd" clip-rule="evenodd" d="M463.439 347.316L445.336 346.406L445.389 345.351L463.492 346.261L463.439 347.316Z" fill="#C4B6FF"></path>
<path fill-rule="evenodd" clip-rule="evenodd" d="M458.072 352.24L443.208 351.33L443.272 350.276L458.137 351.186L458.072 352.24Z" fill="#C4B6FF"></path>
<path fill-rule="evenodd" clip-rule="evenodd" d="M174.065 524.246L159.704 510.521L160.434 509.757L174.795 523.482L174.065 524.246Z" fill="#C4B6FF"></path>
<path fill-rule="evenodd" clip-rule="evenodd" d="M101.133 504.51L90.7773 487.558L91.6787 487.007L102.034 503.959L101.133 504.51Z" fill="#C4B6FF"></path>
<path opacity="0.46" d="M275.191 249.923C275.635 250.113 276.068 250.325 276.49 250.536C276.026 251.455 275.592 252.374 275.191 253.272C271.948 251.846 268.537 251.043 265.125 250.821C265.516 249.681 265.959 248.603 266.445 247.589C269.413 247.917 272.371 248.677 275.191 249.923Z" fill="#414042"></path>
<path opacity="0.46" d="M289.43 263.147C289.134 263.326 288.838 263.516 288.542 263.717C287.602 261.551 286.102 259.618 284.074 258.182C284.719 257.665 285.395 257.136 286.113 256.629C287.138 257.738 287.951 259.006 288.542 260.369C288.933 261.256 289.229 262.185 289.43 263.147Z" fill="#414042"></path>
<path d="M141.418 523.274C141.418 523.274 143.482 517.15 144.545 517.74C145.607 518.33 147.953 519.822 146.853 520.661C145.754 521.501 142.732 523.998 142.732 523.998L141.418 523.274Z" fill="#C4B6FF"></path>
<path d="M72.9124 495.596C72.9124 495.596 75.8233 489.827 76.7914 490.562C77.7594 491.297 79.8701 493.106 78.6626 493.781C77.4551 494.456 74.11 496.499 74.11 496.499L72.9124 495.596Z" fill="#C4B6FF"></path>
</svg>
