<?xml version="1.0" standalone="no"?><!DOCTYPE svg PUBLIC "-//W3C//DTD SVG 1.1//EN" "http://www.w3.org/Graphics/SVG/1.1/DTD/svg11.dtd"><svg t="1663655632737" class="icon" viewBox="0 0 1024 1024" version="1.1" xmlns="http://www.w3.org/2000/svg" p-id="7549" xmlns:xlink="http://www.w3.org/1999/xlink" width="200" height="200"><path d="M650 432.6v-98.4c0-76.3-61.8-138.1-138.1-138.1S373.8 258 373.8 334.3v98.4H650z m-382.9 1.1l-0.1-3.1V322.5c0-59.9 23.8-117.4 66.2-159.8C375.6 120.3 433 96.5 493 96.5h37.9c124.8 0 225.9 101.2 225.9 225.9v111.3c58.2 8.1 101.5 57.9 101.5 116.7v258.3c0 65.1-52.7 117.8-117.8 117.8H283.3c-65.1 0-117.8-52.7-117.8-117.8V550.5c0-58.8 43.3-108.6 101.6-116.8z m217.6 266v77c0 15 12.2 27.2 27.2 27.2s27.2-12.2 27.2-27.2v-77c33.5-13.1 53-48.2 46.3-83.5-6.7-35.4-37.5-61-73.5-61s-66.9 25.6-73.5 61c-6.7 35.3 12.8 70.4 46.3 83.5z m0 0" p-id="7550"></path></svg>