<?xml version="1.0" standalone="no"?><!DOCTYPE svg PUBLIC "-//W3C//DTD SVG 1.1//EN" "http://www.w3.org/Graphics/SVG/1.1/DTD/svg11.dtd"><svg t="1660542721719" class="icon" viewBox="0 0 1024 1024" version="1.1" xmlns="http://www.w3.org/2000/svg" p-id="2411" xmlns:xlink="http://www.w3.org/1999/xlink" width="200" height="200"><defs><style type="text/css"></style></defs><path d="M504.75 797a480.72 480.72 0 0 1-72.45-5.47 32 32 0 1 1 9.7-63.27 415.2 415.2 0 0 0 62.75 4.74c180.86 0 328-115.74 328-258s-147.14-258-328-258-328 115.74-328 258c0 72.37 39.25 142 107.69 190.9a32 32 0 1 1-37.23 52.1c-85.45-61.12-134.46-149.67-134.46-243 0-44.39 10.75-87.37 32-127.76 20.18-38.43 48.91-72.82 85.41-102.22 73.66-59.34 171.19-92 274.63-92s201 32.68 274.63 92c36.5 29.4 65.23 63.79 85.41 102.22 21.21 40.39 32 83.37 32 127.76s-10.75 87.37-32 127.76c-20.18 38.43-48.91 72.82-85.41 102.22C705.72 764.32 608.19 797 504.75 797z" fill="#8a8a8a" p-id="2412"></path><path d="M298.37 911.13a32 32 0 0 1-31.52-26.53l-32.23-185.79a32 32 0 1 1 63.06-10.94l22.47 129.54L413 735.86a32 32 0 1 1 42.24 48.08L319.5 903.17a32 32 0 0 1-21.13 7.96z" fill="#8a8a8a" p-id="2413"></path><path d="M327.5 473.5m-29.5 0a29.5 29.5 0 1 0 59 0 29.5 29.5 0 1 0-59 0Z" fill="#8a8a8a" p-id="2414"></path><path d="M327.5 535a61.5 61.5 0 1 1 61.5-61.5 61.57 61.57 0 0 1-61.5 61.5z m0-64a2.5 2.5 0 1 0 2.5 2.5 2.5 2.5 0 0 0-2.5-2.5z" fill="#8a8a8a" p-id="2415"></path><path d="M504.75 473.5m-29.5 0a29.5 29.5 0 1 0 59 0 29.5 29.5 0 1 0-59 0Z" fill="#8a8a8a" p-id="2416"></path><path d="M504.75 535a61.5 61.5 0 1 1 61.5-61.5 61.57 61.57 0 0 1-61.5 61.5z m0-64a2.5 2.5 0 1 0 2.5 2.5 2.5 2.5 0 0 0-2.5-2.5z" fill="#8a8a8a" p-id="2417"></path><path d="M681.5 473.5m-29.5 0a29.5 29.5 0 1 0 59 0 29.5 29.5 0 1 0-59 0Z" fill="#8a8a8a" p-id="2418"></path><path d="M681.5 535a61.5 61.5 0 1 1 61.5-61.5 61.57 61.57 0 0 1-61.5 61.5z m0-64a2.5 2.5 0 1 0 2.5 2.5 2.5 2.5 0 0 0-2.5-2.5z" fill="#8a8a8a" p-id="2419"></path></svg>