<?xml version="1.0" standalone="no"?><!DOCTYPE svg PUBLIC "-//W3C//DTD SVG 1.1//EN" "http://www.w3.org/Graphics/SVG/1.1/DTD/svg11.dtd"><svg t="1660809700218" class="icon" viewBox="0 0 1024 1024" version="1.1" xmlns="http://www.w3.org/2000/svg" p-id="2407" xmlns:xlink="http://www.w3.org/1999/xlink" width="200" height="200"><defs><style type="text/css"></style></defs><path d="M767.232 893.376l-701.952 0L65.28 0l701.952 0L767.232 893.376zM129.152 829.568l574.336 0L703.488 63.808l-574.336 0L129.152 829.568z" p-id="2408"></path><path d="M224.832 382.848l382.848 0 0 63.808-382.848 0L224.832 382.848z" p-id="2409"></path><path d="M224.832 510.464l382.848 0 0 63.808-382.848 0L224.832 510.464z" p-id="2410"></path><path d="M224.832 638.144l382.848 0 0 63.808-382.848 0L224.832 638.144z" p-id="2411"></path><path d="M224.832 254.72l191.424 0 0 63.808-191.424 0L224.832 254.72z" p-id="2412"></path><path d="M958.656 1020.992 288.64 1020.992l0-63.808 606.208 0L894.848 191.424l-62.08 0 0-63.808 125.888 0L958.656 1020.992z" p-id="2413"></path></svg>