<svg width="24" height="24" viewBox="0 0 24 24" fill="" xmlns="http://www.w3.org/2000/svg" data-reactroot="">
<path fill="" d="M12.1201 15.47C12.6201 13.48 14.6201 12 17.0001 12C19.7601 12 22.0001 13.99 22.0001 16.44C20.0301 16.89 18.3101 17 17.0001 17C15.5501 17 14.2701 16.86 13.2001 16.68C12.9101 16.23 12.5501 15.82 12.1201 15.47Z" undefined="1"></path>
<path fill="" d="M17 9C18.3807 9 19.5 7.88071 19.5 6.5C19.5 5.11929 18.3807 4 17 4C15.6193 4 14.5 5.11929 14.5 6.5C14.5 7.88071 15.6193 9 17 9Z" undefined="1"></path>
<path fill="" d="M14 19.33C11.64 19.87 9.57 20 8 20C5.57 20 3.52 19.68 2 19.33C2 16.39 4.69 14 8 14C11.31 14 14 16.39 14 19.33Z" undefined="1"></path>
<path fill="" d="M8 11C9.65685 11 11 9.65685 11 8C11 6.34315 9.65685 5 8 5C6.34315 5 5 6.34315 5 8C5 9.65685 6.34315 11 8 11Z" undefined="1"></path>
</svg>
