<svg t="1612793784890" class="icon" viewBox="0 0 1025 1024" version="1.1" xmlns="http://www.w3.org/2000/svg" p-id="9417" width="200" height="200"><path d="M879.243325 586.810341c-16.32354-43.266438-79.320268-141.551527-80.064248-190.941723l-0.374548 0c0.125873-2.627976 0.374548-5.253906 0.374548-7.876766 0-179.445349-128.665437-324.870276-287.365328-324.870276-158.764362 0-287.368398 145.424926-287.368398 324.870276 0 2.62286 0.251745 5.248789 0.312123 7.876766l-0.312123 0c-0.742956 49.39122-63.677259 147.675285-80.063224 190.941723-16.386988 43.391287-20.484503 87.1561-12.911674 121.921525 7.572829 34.63546 13.778456 56.144341 20.978783 62.896439 7.137903 6.876948 13.964706 14.13049 35.628114-1.125691 17.376573-14.381212 36.368-43.640986 36.368-43.640986s15.70441 45.3899 50.769679 80.030477c-27.496533 13.002752-67.278447 41.890025-70.133608 60.77093-2.731335 18.759126 41.707868 90.158624 146.102387 91.783712 104.396566 1.500239 139.090357-43.64201 142.50734-47.143931 9.742342-10.252997 18.121575-16.503651 18.121575-16.503651s8.440634 6.250654 18.123622 16.503651c3.410843 3.501922 38.105657 48.64417 142.503247 47.143931 104.392473-1.626112 148.832699-73.024587 146.040986-91.783712-2.794783-18.880905-42.639121-47.768178-70.07323-60.77093 35.002844-34.640576 50.770702-80.030477 50.770702-80.030477s18.992451 29.259774 36.372094 43.640986c21.597913 15.255157 28.423693 8.001615 35.622998 1.125691 7.201351-6.752098 13.3466-28.26098 20.978783-62.896439C899.725781 673.966441 895.569935 630.201629 879.243325 586.810341z" p-id="9418"></path></svg>
