<?xml version="1.0" standalone="no"?><!DOCTYPE svg PUBLIC "-//W3C//DTD SVG 1.1//EN" "http://www.w3.org/Graphics/SVG/1.1/DTD/svg11.dtd"><svg t="1659160053933" class="icon" viewBox="0 0 1024 1024" version="1.1" xmlns="http://www.w3.org/2000/svg" p-id="5517" width="200" height="200" xmlns:xlink="http://www.w3.org/1999/xlink"><defs><style type="text/css"></style></defs><path d="M512 73.28A438.72 438.72 0 1 0 950.72 512 438.72 438.72 0 0 0 512 73.28zM759.84 646.4c-9.6 8.16-20.8-6.08-29.76-20.32s-14.88-26.72-16-21.76a158.4 158.4 0 0 1-37.44 70.72c-1.28 1.6 28.8 12.48 37.44 35.68s24 57.6-80 68.8a145.76 145.76 0 0 1-80-16c-16.96-8.32-27.52-16-29.6-16a73.6 73.6 0 0 1-13.28 0 108 108 0 0 1-14.4 0c-1.76 0-22.24 32-113.12 32-70.4 0-88.64-44.32-74.4-68.8s37.76-32 34.4-35.36a192 192 0 0 1-34.4-57.6 98.56 98.56 0 0 1-4.16-13.44c-1.28-4.64-6.56 8.64-13.92 21.76s-14.4 22.72-22.88 22.72a11.52 11.52 0 0 1-6.56-2.4c-20.96-16-19.2-55.2-5.44-93.12s48-75.04 48-83.2c1.28-30.24-3.04-35.2 0-43.2 6.56-17.76 14.72-10.88 14.72-20.16 0-116.32 86.4-210.56 192.96-210.56s192.96 94.24 192.96 210.56c0 4.48 11.68 0 17.12 20.16a196.96 196.96 0 0 1 0 43.2c0 11.04 29.44 24.48 44.8 83.2S768 640 759.84 646.4z" fill="#409eff" p-id="5518"></path></svg>