<?xml version="1.0" standalone="no"?><!DOCTYPE svg PUBLIC "-//W3C//DTD SVG 1.1//EN" "http://www.w3.org/Graphics/SVG/1.1/DTD/svg11.dtd"><svg t="1658282233136" class="icon" viewBox="0 0 1024 1024" version="1.1" xmlns="http://www.w3.org/2000/svg" p-id="5099" xmlns:xlink="http://www.w3.org/1999/xlink" width="200" height="200"><defs><style type="text/css"></style></defs><path d="M549.668786 25.303185l51.030356 124.781978c8.425728 20.601336 33.340926 28.697075 52.266315 16.983453l114.628306-70.955713c30.979002-19.175382 69.613757 8.893713 60.948036 44.282573l-32.058967 130.94578c-5.293829 21.619303 10.105674 42.81462 32.302959 44.460567l134.443667 9.973678c36.332829 2.695913 51.090354 48.11245 23.28125 71.649691L883.608024 484.516386c-16.989452 14.379537-16.989452 40.576692 0 54.956229l102.904684 87.093193c27.811104 23.537241 13.053579 68.953778-23.28125 71.649691l-134.443667 9.973678c-22.197285 1.645947-37.596788 22.841264-32.302959 44.460568l32.058967 130.94578c8.663721 35.38886-29.971034 63.457955-60.948036 44.282573l-114.628306-70.955714c-18.92539-11.715622-43.842587-3.619883-52.266316 16.983453l-51.030355 124.781979c-13.791556 33.722913-61.546017 33.722913-75.337572 0l-51.030356-124.781979c-8.425728-20.601336-33.340926-28.697075-52.266315-16.983453l-114.630306 70.955714c-30.979002 19.175382-69.613757-8.893713-60.948036-44.282573l32.058967-130.94578c5.293829-21.619303-10.105674-42.81462-32.302959-44.460568l-134.443667-9.973678c-36.332829-2.695913-51.090354-48.11245-23.28125-71.649691L140.391976 539.474615c16.989452-14.379537 16.989452-40.576692 0-54.956229l-102.904684-87.093194c-27.811104-23.537241-13.053579-68.953778 23.28125-71.649691l134.443667-9.973678c22.197285-1.645947 37.596788-22.841264 32.302959-44.460567l-32.058967-130.94578c-8.663721-35.38886 29.971034-63.457955 60.948036-44.282573l114.630306 70.955713c18.92539 11.715622 43.840587 3.619883 52.266315-16.983453l51.030356-124.781978c13.791556-33.720913 61.546017-33.720913 75.337572 0zM783.991235 511.9955c0-149.977167-122.016068-271.991235-271.991235-271.991235-149.977167 0-271.991235 122.014068-271.991235 271.991235s122.014068 271.991235 271.991235 271.991235c149.975167 0 271.991235-122.014068 271.991235-271.991235z m-63.997938 0c0 114.688304-93.304993 207.993297-207.993297 207.993297s-207.993297-93.304993-207.993297-207.993297 93.304993-207.993297 207.993297-207.993297 207.993297 93.304993 207.993297 207.993297z" fill="#f4ea2a" p-id="5100"></path></svg>