<svg width="24" height="24" viewBox="0 0 24 24" fill="" xmlns="http://www.w3.org/2000/svg" data-reactroot="">
<path fill="" d="M21.4101 3.49999C21.3701 3.01999 20.9901 2.63999 20.5001 2.58999L14.0201 1.99999C13.7201 1.96999 13.4301 2.07999 13.2201 2.28999L6.02006 9.48999L10.0701 5.43999L2.29006 13.22C1.90006 13.61 1.90006 14.25 2.29006 14.63L9.36006 21.7C9.75006 22.09 10.3901 22.09 10.7701 21.7L18.5501 13.92L14.5001 17.97L21.7001 10.77C21.9101 10.56 22.0201 10.27 21.9901 9.96999L21.4101 3.49999Z" undefined="1"></path>
<path fill="" d="M17.4142 9.41427C18.2264 8.60199 18.2518 7.31035 17.4707 6.5293C16.6897 5.74826 15.398 5.77359 14.5858 6.58587C13.7735 7.39816 13.7481 8.6898 14.5292 9.47084C15.3102 10.2519 16.6019 10.2266 17.4142 9.41427Z" undefined="1"></path>
<path stroke-linejoin="round" stroke-linecap="round" stroke-miterlimit="10" stroke-width="2" stroke="" d="M17.4142 9.41427C18.2264 8.60199 18.2518 7.31035 17.4707 6.5293C16.6897 5.74826 15.398 5.77359 14.5858 6.58587C13.7735 7.39816 13.7481 8.6898 14.5292 9.47084C15.3102 10.2519 16.6019 10.2266 17.4142 9.41427Z"></path>
</svg>
