<svg width="24" height="24" viewBox="0 0 24 24" fill="" xmlns="http://www.w3.org/2000/svg" data-reactroot="">
<path fill="" d="M12 1C12.5523 1 13 1.44772 13 2V21H16C16.5523 21 17 21.4477 17 22C17 22.5523 16.5523 23 16 23H8C7.44772 23 7 22.5523 7 22C7 21.4477 7.44772 21 8 21H11V2C11 1.44772 11.4477 1 12 1Z" clip-rule="evenodd" fill-rule="evenodd" undefined="1"></path>
<path fill="" d="M1 2C1 1.44772 1.44772 1 2 1H22C22.5523 1 23 1.44772 23 2V6C23 6.55228 22.5523 7 22 7C21.4477 7 21 6.55228 21 6V3H3V6C3 6.55228 2.55228 7 2 7C1.44772 7 1 6.55228 1 6V2Z" clip-rule="evenodd" fill-rule="evenodd" undefined="1"></path>
</svg>
