<svg t="1612793598263" class="icon" viewBox="0 0 1025 1024" version="1.1" xmlns="http://www.w3.org/2000/svg" p-id="8362" width="200" height="200"><path d="M690.325333 102.848c-13.802667 2.453333-44.629333 14.293333-44.885333 39.808-0.256 25.493333 27.050667 42.133333 40.832 43.413333 50.88 0 294.208-13.205333 249.706667 221.568-6.165333 25.749333-10.88 65.173333 19.669333 73.472 27.754667 6.976 44.885333-22.016 52.586667-44.096C1011.925333 411.328 1124.458667 74.858667 690.325333 102.848z" p-id="8363"></path><path d="M753.621333 495.786667c0 0-51.008 11.029333-26.88-26.922667 37.888-74.218667-23.786667-196.010667-183.658667-115.072-55.082667 29.354667-55.082667 8.554667-53.248-28.16 4.949333-200.469333-366.634667-57.536-471.914667 203.114667C-41.429333 686.912 53.632 823.552 200.682667 883.2c358.933333 128.128 620.266667-83.904 664.810667-220.949333C924.906667 456.32 753.621333 495.786667 753.621333 495.786667zM409.429333 835.797333c-169.898667 23.338667-320.490667-51.328-336.426667-166.677333-15.850667-115.413333 108.992-227.946667 278.890667-251.285333 169.898667-23.36 320.469333 51.242667 336.405333 166.656C704.170667 699.882667 579.285333 812.330667 409.429333 835.797333z" p-id="8364"></path><path d="M834.624 435.349333c17.088 4.266667 23.744-9.749333 25.621333-22.549333 1.749333-12.8 31.253333-186.325333-158.250667-166.314667-14.336 1.578667-24 10.154667-22.336 22.741333 1.578667 12.608 12.202667 19.669333 20.288 18.709333 8.085333-0.938667 134.656-23.125333 124.288 110.250667C826.133333 410.325333 817.6 431.082667 834.624 435.349333z" p-id="8365"></path><path d="M354.069333 498.624c-88.554667 16.981333-149.461333 87.744-135.978667 158.08 13.482667 70.336 96.256 113.536 184.853333 96.533333 88.576-16.96 149.418667-87.744 135.978667-158.037333C525.376 524.885333 442.666667 481.642667 354.069333 498.624zM343.552 688.384c-30.592 0-55.402667-21.013333-55.402667-47.125333 0-26.005333 24.810667-47.125333 55.402667-47.125333s55.381333 21.12 55.381333 47.125333C398.933333 667.328 374.122667 688.384 343.552 688.384zM434.282667 624.789333c-11.413333 0-23.018667-13.76-23.018667-30.698667 0-16.917333 11.605333-30.634667 23.018667-30.634667s23.061333 13.717333 23.061333 30.634667C457.344 611.050667 445.696 624.789333 434.282667 624.789333z" p-id="8366"></path></svg>
