<svg t="1612793479104" class="icon" viewBox="0 0 1024 1024" version="1.1" xmlns="http://www.w3.org/2000/svg" p-id="6744" width="200" height="200"><path d="M572.228571 189.828571V844.571429h68.571429l28.8 81.6L791.2 844.571429h150.285714V189.828571H572.228571z m283.085715 568h-68.457143l-85.828572 57.6-20.342857-57.6h-20.571428V279.2h195.085714v478.628571zM528.114286 483.314286H376.342857c2.4-51.314286 4.914286-119.2 7.542857-197.6h149.6l-0.114285-9.257143c0-0.685714-0.228571-16.8-2.628572-33.257143-2.4-17.142857-7.542857-39.885714-24-39.885714H255.771429c5.028571-23.542857 17.942857-79.657143 33.6-107.2l7.314285-12.8-14.742857-0.8c-0.914286 0-22.4-1.028571-47.314286 12.114285-40.8 21.714286-59.085714 64.457143-67.085714 96.457143-21.028571 83.542857-50.971429 141.6-63.657143 166.4-3.771429 7.314286-6.057143 11.657143-7.085714 14.628572-2.057143 5.6-0.914286 11.2 3.2 14.857143 12 10.857143 43.657143-3.314286 44-3.428572 0.685714-0.342857 1.485714-0.685714 2.514286-1.142857 15.885714-7.2 62.971429-28.571429 79.771428-96.571429h64.8c0.8 36.8 3.542857 158.171429 3.314286 197.6h-161.142857l-2.4 1.714286c-26.4 19.314286-34.857143 72.228571-35.2 74.514286l-1.6 10.514286h190.857143c-14.057143 89.485714-30.285714 129.6-38.857143 145.6-4.228571 8-8.342857 16-12.228572 23.771428-24.342857 48.228571-49.6 98.057143-144.342857 175.542857-4.114286 3.2-8 9.142857-5.485714 15.657143 2.742857 7.2 10.628571 10.4 28.114286 10.4 6.171429 0 13.485714-0.342857 22.171428-1.142857 57.028571-5.028571 115.2-20.571429 154.4-100.114286 19.428571-40.114286 36.228571-81.942857 50.171429-124.457143L494.857143 898.285714l5.714286-13.714285c0.914286-2.171429 21.714286-52.914286 5.828571-109.6l-0.571429-2.057143-123.542857-140.571429-25.142857 18.971429c7.314286-29.828571 12.114286-57.028571 14.285714-81.257143h181.371429v-9.142857c0-45.828571-21.142857-73.028571-21.942857-74.171429l-2.742857-3.428571z" p-id="6745"></path></svg>
