<?xml version="1.0" standalone="no"?>
<!DOCTYPE svg PUBLIC "-//W3C//DTD SVG 1.1//EN" "http://www.w3.org/Graphics/SVG/1.1/DTD/svg11.dtd" >
<svg xmlns="http://www.w3.org/2000/svg">
  <metadata>Created by iconfont</metadata>
  <defs>
  <font id="iconfont" horiz-adv-x="1024">
    <font-face
      font-family="iconfont"
      font-weight="400"
      font-stretch="normal"
      units-per-em="1024"
      ascent="896"
      descent="-128"
    />
      <missing-glyph />
      
      <glyph glyph-name="iconfontdongtaidianji" unicode="&#58927;" d="M378.53866667 441.79911111c70.76977778-26.05511111 155.53422222 25.25866667 188.18844444 114.11911111l76.23111111 206.96177778c32.768 88.86044445-9.89866667 127.08977778-94.66311111 84.992L498.80177778 823.18222222c-84.76444445-42.09777778-175.55911111-134.48533333-201.61422223-205.36888889C271.13244445 547.15733333 307.65511111 467.85422222 378.53866667 441.79911111zM454.20088889 250.53866667c26.05511111 70.76977778-25.25866667 155.53422222-114.11911111 188.18844444l-206.96177778 76.23111111c-88.86044445 32.768-127.08977778-9.89866667-84.992-94.66311111l24.576-49.49333333c42.09777778-84.76444445 134.48533333-175.55911111 205.36888889-201.61422223C348.84266667 143.13244444999998 428.14577778 179.65511111 454.20088889 250.53866667zM975.75822222 347.70488889L951.18222222 397.19822222c-42.09777778 84.76444445-134.48533333 175.55911111-205.25511111 201.61422223-70.76977778 26.05511111-150.07288889-10.46755555-176.128-81.35111112-26.05511111-70.76977778 25.25866667-155.53422222 114.11911111-188.18844444l206.96177778-76.23111111C979.74044445 220.27377778000005 1017.96977778 262.94044445 975.75822222 347.70488889zM645.46133333 326.20088889c-70.76977778 26.05511111-155.53422222-25.25866667-188.18844444-114.11911111l-76.23111111-206.96177778c-32.768-88.86044445 9.89866667-127.08977778 94.66311111-84.992l49.49333333 24.576c84.76444445 42.09777778 175.55911111 134.48533333 201.61422223 205.36888889C752.86755555 220.84266666999997 716.34488889 300.14577778 645.46133333 326.20088889z"  horiz-adv-x="1024" />
      
      <glyph glyph-name="zhiding" unicode="&#58954;" d="M873.02826667 275.22844445L553.03964445 700.18844445c-14.71146667 21.8112-46.66026667 22.31182222-62.37297778 1.01262222L153.94133333 276.24106667c-18.26133333-25.34968889-0.512-60.85973333 30.93617778-60.85973334h158.21937778v-197.26791111c0-29.92355555 24.33706667-54.77262222 54.77262222-54.77262222H626.57422222c29.91217778 0 54.76124445 24.33706667 54.76124445 54.77262222V215.38133332999996h159.744c30.93617778 0 49.19751111 34.48604445 31.9488 59.84711112zM187.41475555 718.4384h649.10222223c23.83644445 0 43.1104 19.27395555 43.1104 43.09902222s-19.27395555 43.09902222-43.1104 43.09902223h-649.10222223c-23.83644445 0-43.09902222-19.27395555-43.09902222-43.09902223s19.27395555-43.09902222 43.09902222-43.09902222z"  horiz-adv-x="1024" />
      
      <glyph glyph-name="pinglun" unicode="&#58938;" d="M905.898667 851.968 129.365333 851.968c-71.338667 0-129.365333-58.026667-129.365333-129.365333l0-518.144c0-71.338667 58.026667-129.365333 129.365333-129.365333l253.952 0 134.144-163.84 133.802667 163.84 254.293333 0c71.338667 0 129.365333 58.026667 129.365333 129.365333L1034.922667 722.602667C1035.264 793.941333 977.237333 851.968 905.898667 851.968L905.898667 851.968 905.898667 851.968zM236.885333 397.994667c-34.474667 0-62.464 27.989333-62.464 62.464 0 34.474667 27.989333 62.464 62.464 62.464 34.474667 0 62.464-27.989333 62.464-62.464C299.349333 425.984 271.36 397.994667 236.885333 397.994667L236.885333 397.994667 236.885333 397.994667zM518.144 397.994667c-34.474667 0-62.464 27.989333-62.464 62.464 0 34.474667 27.989333 62.464 62.464 62.464 34.474667 0 62.464-27.989333 62.464-62.464C580.608 425.984 552.618667 397.994667 518.144 397.994667L518.144 397.994667zM799.402667 397.994667c-34.474667 0-62.464 27.989333-62.464 62.464 0 34.474667 27.989333 62.464 62.464 62.464 34.474667 0 62.464-27.989333 62.464-62.464C861.866667 425.984 833.877333 397.994667 799.402667 397.994667L799.402667 397.994667zM799.402667 397.994667"  horiz-adv-x="1035" />
      
      <glyph glyph-name="biaoqing" unicode="&#58948;" d="M515.204746-128C377.571561-128 248.168301-74.752 150.869338 21.883259 53.551412 118.632296-0.018958 247.201185 5.0e-06 384 5.0e-06 520.779852 53.608301 649.367704 150.94519 746.078815 248.244153 842.752 377.647412 896 515.299561 896 652.989635 896 782.373931 842.752 879.71082 746.078815 1080.623412 546.398815 1080.604449 221.582222 879.71082 21.978074 782.354968-74.714074 652.89482-128 515.204746-128 515.204746-128 515.204746-128 515.204746-128 515.204746-128 515.204746-128 515.204746-128 515.204746-128 515.204746-128 515.204746-128ZM515.299561 829.269333C395.567412 829.269333 283.060153 782.980741 198.409487 698.898963 113.75882 614.836148 67.147857 502.97363 67.147857 384 67.128894 265.007407 113.720894 153.163852 198.333635 69.063111 282.965338-14.980741 395.510524-61.326222 515.204746-61.326222 634.955857-61.326222 747.557931-14.942815 832.227561 69.157926 1006.933338 242.744889 1006.933338 525.255111 832.227561 698.898963 747.576894 782.980741 635.031709 829.269333 515.299561 829.269333 515.299561 829.269333 515.299561 829.269333 515.299561 829.269333 515.299561 829.269333 515.299561 829.269333 515.299561 829.269333 515.299561 829.269333 515.299561 829.269333 515.299561 829.269333ZM332.174227 244.261926C332.174227 244.261926 392.552301 148.366222 515.185783 148.366222 637.819264 148.366222 718.24119 244.261926 718.24119 244.261926 718.24119 244.261926 763.828153 244.41363 763.80919 196.323556 763.80919 196.323556 684.771561 84.442074 515.185783 84.442074 345.600005 84.442074 290.39882 196.323556 290.39882 196.323556 290.39882 196.323556 288.730079 244.261926 332.174227 244.261926 332.174227 244.261926 332.174227 244.261926 332.174227 244.261926 332.174227 244.261926 332.174227 244.261926 332.174227 244.261926ZM365.454227 548.636444C330.714079 548.636444 302.345487 520.552296 302.345487 485.925926 302.345487 451.337481 330.695116 423.253333 365.454227 423.253333 400.365042 423.253333 428.562968 451.337481 428.562968 485.925926 428.562968 520.552296 400.365042 548.636444 365.454227 548.636444 365.454227 548.636444 365.454227 548.636444 365.454227 548.636444 365.454227 548.636444 365.454227 548.636444 365.454227 548.636444 365.454227 548.636444 365.454227 548.636444 365.454227 548.636444ZM688.791709 548.636444C653.994672 548.636444 625.720894 520.552296 625.720894 485.925926 625.720894 451.337481 653.994672 423.253333 688.791709 423.253333 723.664598 423.253333 751.900449 451.337481 751.900449 485.925926 751.900449 520.552296 723.664598 548.636444 688.791709 548.636444 688.791709 548.636444 688.791709 548.636444 688.791709 548.636444 688.791709 548.636444 688.791709 548.636444 688.791709 548.636444 688.791709 548.636444 688.791709 548.636444 688.791709 548.636444Z"  horiz-adv-x="1044" />
      
      <glyph glyph-name="tupian" unicode="&#59025;" d="M118.08881778 853.7122133299999h890.88c25.6 0 46.08-20.48 46.08-46.08v-363.52c-46.08 35.84-133.12 92.16-199.68 92.16-97.28 0-184.32-225.28-291.84-225.28-81.92 5.12-194.56 97.28-322.56 81.92-51.2-10.24-122.88-92.16-168.96-153.6v568.32c0 25.6 20.48 46.08 46.08 46.08zM333.12768 485.07221333c-40.96 0-76.8 15.36-102.4 40.96s-40.96 66.56-40.96 102.4c0 35.84 15.36 76.8 40.96 102.4 25.6 25.6 61.44 40.96 102.4 40.96 35.84 0 71.68-15.36 102.4-40.96 25.6-25.6 40.96-66.56 40.96-102.4 0-35.84-15.36-76.8-40.96-102.4-30.72-25.6-66.56-40.96-102.4-40.96zM1034.56768 920.27221333h-942.08c-51.2 0-92.16-40.96-92.16-92.16v-839.68c0-51.2 40.96-92.16 92.16-92.16h942.08c51.2 0 92.16 40.96 92.16 92.16v839.68c0 51.2-40.96 92.16-92.16 92.16z"  horiz-adv-x="1128" />
      
      <glyph glyph-name="fabusekuai" unicode="&#60486;" d="M350.912 290.624l-299.968 182.72 908.48 355.648-159.072-818.272-387.04 247.872L759.264 632.064zM416 192v-209.92l128.256 130.208z"  horiz-adv-x="1024" />
      
      <glyph glyph-name="gongkai" unicode="&#59049;" d="M512.85439525 694.68918518c162.64578845 0 321.25261748-101.44001897 476.3641932-300.00924443a38.83614815 38.83614815 0 0 0 0.7378868-46.83639467C838.0294637 140.49735110999995 680.35470222 34.47466667000003 516.2719763 34.47466667000003c-163.81087289 0-324.12649245 105.75083141-481.80125393 312.78633718a38.83614815 38.83614815 0 0 0 0.38836148 47.53544533C191.135744 593.32683852 350.24744297 694.68918518 512.85439525 694.68918518z m0-77.67229629c-124.08149333 0-251.85242075-75.10911052-382.84674843-228.589568l-15.10726164-18.05880889 14.40821097-17.86462815c125.28541392-152.27653689 247.3862637-231.15275378 365.7200071-239.61903407l11.10713838-0.58254223 10.13623467-0.15534458c124.58636325 0 250.99802548 78.52669155 378.73011673 239.23067258l10.95179379 13.98101334 3.53408948 4.69917393-3.84477867 4.69917393c-126.33398992 153.40278518-250.10479408 232.90038045-370.80754252 241.48316917l-11.34015526 0.58254223-10.6411046 0.19418074zM512 539.34459259a174.76266667 174.76266667 0 1 0 0-349.52533334 174.76266667 174.76266667 0 0 0 0 349.52533334z m0-77.67229629a97.09037037 97.09037037 0 1 1 0-194.18074075 97.09037037 97.09037037 0 0 1 0 194.18074075z"  horiz-adv-x="1024" />
      
      <glyph glyph-name="caogaoxiang" unicode="&#59174;" d="M729.301333 853.333333c79.552 0 142.72-69.504 145.28-154.666666L874.666667 693.333333V320h32a74.666667 74.666667 0 0 0 74.56-70.570667L981.333333 245.33333300000004v-256a74.666667 74.666667 0 0 0-74.666666-74.666666h-789.333334A74.666667 74.666667 0 0 0 42.666667-10.666666999999961v256A74.666667 74.666667 0 0 0 117.333333 320H149.333333V693.333333c0 85.76 61.568 157.034667 140.416 159.914667L294.698667 853.333333h434.602666zM216.832 256H117.333333a10.666667 10.666667 0 0 1-10.666666-10.666667v-256a10.666667 10.666667 0 0 1 10.666666-10.666666h789.333334a10.666667 10.666667 0 0 1 10.666666 10.666666v256a10.666667 10.666667 0 0 1-10.666666 10.666667h-78.421334a10.666667 10.666667 0 0 1-6.912-2.538667l-126.890666-107.733333a74.666667 74.666667 0 0 0-48.32-17.728H381.226667a74.666667 74.666667 0 0 0-52.522667 21.589333l-104.405333 103.317334a10.666667 10.666667 0 0 1-7.488 3.093333zM729.301333 789.333333H294.698667c-42.666667 0-79.104-39.658667-81.28-91.136L213.333333 693.333333V320h3.498667a74.666667 74.666667 0 0 0 49.194667-18.517333l3.328-3.072 104.384-103.317334a10.666667 10.666667 0 0 1 7.509333-3.093333h264.874667a10.666667 10.666667 0 0 1 6.890666 2.538667l126.912 107.733333a74.666667 74.666667 0 0 0 30.72 15.637333L810.666667 693.333333c0 52.202667-35.114667 93.44-77.397334 95.893334L729.301333 789.333333zM629.333333 448a32 32 0 0 0 0-64h-234.666666a32 32 0 0 0 0 64h234.666666z m64 192a32 32 0 0 0 0-64h-362.666666a32 32 0 0 0 0 64h362.666666z"  horiz-adv-x="1024" />
      
      <glyph glyph-name="yemianpeizhi" unicode="&#58911;" d="M775.66637739 95.73480674999996V802.61095765c0 24.35414813-19.71711203 44.0712613-44.07514454 44.07126016H157.5075237c-24.3580325 0-44.0712613-19.71711203-44.0712613-44.07126016v-706.8761509a44.04795961 44.04795961 0 0 1 44.0712613-44.07126129h574.66625137c23.7716059 0.00388323 43.49260231 19.7132288 43.49260232 44.07126129zM201.57878386 581.67211008h397.79866624v-66.10300701H201.57878386V581.67211008z m220.9349632-375.17660843H201.57878386v66.10300701h220.9349632v-66.10300701z m265.00622449 154.24164523H201.57878386v66.6894336h485.94118769v-66.6894336z m0 309.66002802H201.57878386V736.5040662700001h485.94118769v-66.10689137zM886.41930467 714.46843506h-22.03563121a22.02786361 22.02786361 0 0 1-22.03951332-22.03563008V73.69917667000004c0-48.70441301-39.4264576-88.14640583-88.14252259-88.14640582H201.57878386a22.020096 22.020096 0 0 1-22.03563008-22.02786362v-22.04339768a22.02397923 22.02397923 0 0 1 22.03563008-22.03174685h596.69799822c47.55097941 0 110.18203591 62.63493973 110.18203591 109.59561045V693.0153472c0 11.60035783-9.86826525 21.45308786-22.03951332 21.45308786z"  horiz-adv-x="1024" />
      
      <glyph glyph-name="jiekouguanli" unicode="&#58916;" d="M102.048 43.57333332999997h-0.07466667c-18.86933333 0.04266667-34.13333333 15.33866667-34.09066666 34.18666667l1.312 629.03466667c0 75.392 61.46133333 136.77866667 137.01333333 136.77866666h614.25066667c75.552 0 137.01333333-61.39733333 137.01333333-136.85333333v-406.99733333c0-18.83733333-15.296-34.112-34.16533333-34.112s-34.16533333 15.27466667-34.16533334 34.112V706.72c0 37.84533333-30.816 68.62933333-68.68266666 68.62933333H206.21866667c-37.87733333 0-68.68266667-30.784-68.68266667-68.62933333l-1.312-629.10933333c-0.05333333-18.816-15.33866667-34.03733333-34.176-34.03733334zM442.528-62.741333329999975H239.01866667c-43.872 0-85.48266667 13.06666667-117.19466667 36.8-34.15466667 25.568-53.74933333 61.92-53.74933333 99.73333333 0 38.66666667 18.19733333 73.984 51.232 99.44533333 31.04 23.91466667 73.54666667 37.088 119.70133333 37.088h272.78933333c18.848 0 34.13333333-15.28533333 34.13333334-34.13333333s-15.28533333-34.13333333-34.13333334-34.13333333H239.01866667c-58.528 0-102.67733333-29.344-102.67733334-68.26666667 0-37.00266667 47.01866667-68.26666667 102.67733334-68.26666667h203.50933333c18.848 0 34.13333333-15.28533333 34.13333333-34.13333333s-15.28533333-34.13333333-34.13333333-34.13333333zM857.44-61.21600000000001H665.39733333l-95.97866666 166.4 95.97866666 166.4h192.04266667l95.97866667-166.4-95.97866667-166.4z m-152.58666667 68.26666667h113.13066667l56.608 98.13333333-56.608 98.13333333H704.85333333l-56.608-98.13333333 56.608-98.13333333zM751.04 572.864h-477.86666667c-18.848 0-34.13333333 15.28533333-34.13333333 34.13333333s15.28533333 34.13333333 34.13333333 34.13333334h477.86666667c18.848 0 34.13333333-15.28533333 34.13333333-34.13333334s-15.28533333-34.13333333-34.13333333-34.13333333zM547.63733333 436.288h-275.2c-18.848 0-34.13333333 15.28533333-34.13333333 34.13333333s15.28533333 34.13333333 34.13333333 34.13333334h275.2c18.848 0 34.13333333-15.28533333 34.13333334-34.13333334 0-18.85866667-15.27466667-34.13333333-34.13333334-34.13333333z"  horiz-adv-x="1024" />
      
      <glyph glyph-name="daohanglantubiao_quanxianguanli" unicode="&#58884;" d="M512 627.2c-57.6 0-102.4-44.8-102.4-102.4 0-57.6 44.8-102.4 102.4-102.4 57.6 0 102.4 44.8 102.4 102.4 0 57.6-44.8 102.4-102.4 102.4zM998.4 748.8L524.8 896h-25.6L25.6 748.8c-19.2-6.4-25.6-19.2-25.6-32v-377.6c0-160 102.4-307.2 268.8-377.6L486.4-128h32l230.4 96c166.4 64 275.2 211.2 275.2 377.6V716.8c0 12.8-6.4 25.6-25.6 32zM576 332.8c-6.4-6.4-12.8-6.4-12.8-12.8v-83.2c0-6.4 6.4-12.8 12.8-12.8h25.6c6.4 0 12.8-6.4 12.8-12.8v-70.4c0-6.4-6.4-12.8-12.8-12.8H576c-6.4 0-12.8-6.4-12.8-12.8v-25.6c0-6.4-6.4-12.8-12.8-12.8H473.6c-6.4 0-12.8 6.4-12.8 12.8V320c0 6.4-6.4 12.8-6.4 12.8-83.2 25.6-140.8 102.4-140.8 192C307.2 640 403.2 729.6 512 729.6c115.2 0 204.8-89.6 204.8-204.8 0-89.6-64-172.8-140.8-192z"  horiz-adv-x="1024" />
      
      <glyph glyph-name="huishouzhan" unicode="&#59378;" d="M238.08 49.152c0-54.272 48.64-98.816 108.032-98.816h331.776c59.904 0 108.032 44.032 108.032 98.816l50.688 516.096H186.88l51.2-516.096z m463.36 672.256h-71.68v70.656c0 13.824-11.264 25.088-25.088 25.088H419.328c-13.824 0-25.088-11.264-25.088-25.088v-70.656H133.12v-98.816h757.76v98.816H701.44zM465.92 755.2h92.16v-33.28h-92.16V755.2z"  horiz-adv-x="1024" />
      
      <glyph glyph-name="zhaopian" unicode="&#58915;" d="M911.57504-29.44512l-41.46176 0 0 0L165.33504-29.44512l-0.00512 0-41.45664 0C78.08-29.44512 40.96 7.57248 40.96 53.23776L40.96 611.39456c0 45.6704 37.12 82.688 82.9184 82.688l41.45664 0 0.00512 0 0 0 134.7328 0 51.81952 82.688c0 11.4176 30.01344 20.67456 41.46688 20.67456l248.74496 0c11.43808 0 41.45664-9.25696 41.45664-20.67456l51.82464-82.688 134.7328 0 41.46176 0c45.79328 0 82.91328-37.02272 82.91328-82.688l0-558.1568C994.48832 7.57248 957.36832-29.44512 911.57504-29.44512L911.57504-29.44512M517.72416 611.39456c-148.82304 0-269.47584-120.32-269.47584-268.73856 0-148.42368 120.6528-268.73856 269.47584-268.73856 148.81792 0 269.47072 120.31488 269.47584 268.72832l0 0.02048C787.19488 491.0848 666.5472 611.39456 517.72416 611.39456L517.72416 611.39456M517.72416 156.60544c-103.04 0-186.56256 83.29728-186.56256 186.05056 0 102.74816 83.52256 186.04544 186.56256 186.04544 103.02976 0 186.56256-83.29728 186.56256-186.04544C704.28672 239.8976 620.75392 156.60544 517.72416 156.60544L517.72416 156.60544M517.72416 156.60544 517.72416 156.60544z"  horiz-adv-x="1024" />
      
      <glyph glyph-name="Files-59" unicode="&#59379;" d="M256 896H192C121.6 896 64 838.4 64 768v-768c0-70.4 57.6-128 128-128h64V896zM320 896v-1024h704V896H320z m576-896H512v192h384v-192zM576 128h256v-64H576z"  horiz-adv-x="1024" />
      
      <glyph glyph-name="image-fill" unicode="&#60257;" d="M955.73333333 759.46666667H68.26666667c-18.88 0-34.13333333-15.25333333-34.13333334-34.13333334v-682.66666666c0-18.88 15.25333333-34.13333333 34.13333334-34.13333334h887.46666666c18.88 0 34.13333333 15.25333333 34.13333334 34.13333334V725.33333333c0 18.88-15.25333333 34.13333333-34.13333334 34.13333334zM326.4 605.86666667c37.65333333 0 68.26666667-30.61333333 68.26666667-68.26666667s-30.61333333-68.26666667-68.26666667-68.26666667-68.26666667 30.61333333-68.26666667 68.26666667 30.61333333 68.26666667 68.26666667 68.26666667z m548.16-466.24c-1.49333333-1.28-3.52-2.02666667-5.54666667-2.02666667H154.88c-4.69333333 0-8.53333333 3.84-8.53333333 8.53333333 0 2.02666667 0.74666667 3.94666667 2.02666666 5.54666667l181.65333334 215.46666667c2.98666667 3.62666667 8.42666667 4.05333333 12.05333333 1.06666666 0.32-0.32 0.74666667-0.64 1.06666667-1.06666666l106.02666666-125.86666667 168.64 200c2.98666667 3.62666667 8.42666667 4.05333333 12.05333334 1.06666667 0.32-0.32 0.74666667-0.64 1.06666666-1.06666667l244.90666667-289.70666667c2.77333333-3.52 2.34666667-8.96-1.28-11.94666666z"  horiz-adv-x="1024" />
      
      <glyph glyph-name="jiaoseliebiao" unicode="&#58896;" d="M378.034621 651.249001m-244.750999 0a244.750999 244.750999 0 1 1 489.501997 0 244.750999 244.750999 0 1 1-489.501997 0ZM369.171771 309.006658h20.45273a340.878828 340.878828 0 0 0 340.878828-340.878828A97.491345 97.491345 0 0 0 629.603196-126.636485H125.784288A97.491345 97.491345 0 0 0 28.292943-30.508655a340.878828 340.878828 0 0 0 340.878828 340.878828zM920.713715 574.210386a191.573901 191.573901 0 0 0-336.106525-124.761651 278.838881 278.838881 0 0 1 85.901465 204.527297 272.703063 272.703063 0 0 1-17.725699 98.173102 184.074567 184.074567 0 0 0 77.038615 16.362184 190.892144 190.892144 0 0 0 190.892144-194.300932zM995.707057 77.890812a72.948069 72.948069 0 0 0-72.948069-72.948069H778.226365A370.194407 370.194407 0 0 1 584.60719 282.418109a248.159787 248.159787 0 0 0 143.169108 44.996006h14.998669A253.613848 253.613848 0 0 0 995.707057 77.890812z"  horiz-adv-x="1024" />
      
      <glyph glyph-name="caozuorizhi" unicode="&#59368;" d="M12.795383 345.215488h92.979783a11.942357 11.942357 0 0 0 12.795383-11.942357v-12.795383a12.795383 12.795383 0 0 0-12.795383-11.942358H12.795383a12.36887 12.36887 0 0 0-12.795383 11.942358v12.795383a11.942357 11.942357 0 0 0 12.795383 11.942357z m0 365.521441h92.979783a11.942357 11.942357 0 0 0 12.795383-11.942357v-12.795383a11.942357 11.942357 0 0 0-12.795383-11.942358H12.795383a11.942357 11.942357 0 0 0-12.795383 11.942358v12.795383a11.942357 11.942357 0 0 0 12.795383 11.942357z m0-182.973977h92.979783a11.942357 11.942357 0 0 0 12.795383-11.515844v-13.221896a11.942357 11.942357 0 0 0-12.795383-11.515845H12.795383a11.942357 11.942357 0 0 0-12.795383 11.515845V516.247108a11.942357 11.942357 0 0 0 12.795383 11.515844z m0-365.094928h92.979783a12.36887 12.36887 0 0 0 12.795383-11.942358v-12.795383a11.942357 11.942357 0 0 0-12.795383-11.942357H12.795383a11.942357 11.942357 0 0 0-12.795383 11.942357v12.795383a12.36887 12.36887 0 0 0 12.795383 11.942358zM945.578804 822.909787h-69.521581a10.236306 10.236306 0 0 0-10.236307 8.103742A76.772298 76.772298 0 0 1 787.76908 895.84347H127.95383A85.302553 85.302553 0 0 1 37.533123 813.526506v-54.593634a9.383281 9.383281 0 0 1 9.809794-9.383281H106.628192a47.76943 47.76943 0 0 0 49.475481-45.210353v-27.296817a38.386149 38.386149 0 0 0-39.665688-37.106611H47.342917a9.383281 9.383281 0 0 1-9.809794-8.956768v-54.593634a9.383281 9.383281 0 0 1 9.809794-9.383281H106.628192a47.76943 47.76943 0 0 0 49.475481-46.063379v-17.913536a48.195943 48.195943 0 0 0-49.475481-46.063379H47.342917a9.383281 9.383281 0 0 1-9.809794-8.956768v-54.593634a9.383281 9.383281 0 0 1 9.809794-9.383281H106.628192a47.76943 47.76943 0 0 0 49.048968-45.636866v-27.296817a38.386149 38.386149 0 0 0-39.665687-36.680098H47.342917a9.809794 9.809794 0 0 1-10.236306-9.383281v-54.593634a9.809794 9.809794 0 0 1 10.236306-9.383281h58.858762a47.342917 47.342917 0 0 0 49.048968-45.636866V128.12049a37.959636 37.959636 0 0 0-39.239174-36.253585H46.916404a10.236306 10.236306 0 0 1-10.236306-9.383281v-127.95383A85.302553 85.302553 0 0 1 127.95383-127.78717h810.374257a85.302553 85.302553 0 0 1 85.302553 82.316964V749.549591a76.345785 76.345785 0 0 1-78.904862 73.360196z m-343.342777-91.273732a47.76943 47.76943 0 0 0 55.446659 13.648408l94.259322-49.048968A37.959636 37.959636 0 0 0 767.72298 646.760014l-298.558937-466.178454a10.662819 10.662819 0 0 0-13.221895-3.412102l-147.573418 76.345785a8.956768 8.956768 0 0 0-3.838615 12.36887z m-178.70885-597.117874l-119.850087-42.651276a10.662819 10.662819 0 0 0-12.795383 5.544666v2.559076l-9.809794 107.90773a9.383281 9.383281 0 0 0 8.956768 9.809794 13.648409 13.648409 0 0 0 5.971179 0l127.95383-66.962505a8.956768 8.956768 0 0 0 3.838615-12.36887 8.530255 8.530255 0 0 0-4.69164-4.69164z m522.051627-152.265057c0-40.0922-2.559077-72.933683-78.904862-72.933683H156.103673a76.772298 76.772298 0 0 0-78.051837 62.697376 8.956768 8.956768 0 0 0 7.250717 10.236307h692.230221a85.302553 85.302553 0 0 1 88.714655 82.316964V777.272921a9.809794 9.809794 0 0 0 10.236306 8.956768c38.812662 0 68.668555-5.118153 68.668556-72.933683v-731.042882z"  horiz-adv-x="1024" />
      
      <glyph glyph-name="caidan" unicode="&#58894;" d="M148.7872 838.5536h177.152c64.9216 0 118.0672-53.1456 118.0672-118.0672v-295.2192H148.7872C83.8656 425.2672 30.72 478.4128 30.72 543.4368v177.152C30.72 785.408 83.8656 838.5536 148.7872 838.5536z m0-531.3536h295.2192v-295.2192c0-64.9216-53.1456-118.0672-118.0672-118.0672h-177.152C83.8656-105.984 30.72-52.9408 30.72 12.0832v177.152C30.72 254.0544 83.8656 307.2 148.7872 307.2z m0 0M768.7168 336.7936L562.0736 549.2736c-23.6544 17.7152-35.4304 53.1456-35.4304 82.6368s11.776 59.0848 35.4304 82.6368L686.08 838.5536C733.2864 885.76 810.0864 885.76 851.3536 838.5536l124.0064-124.0064c23.6544-23.6544 35.4304-53.1456 35.4304-82.6368s-11.776-59.0848-35.4304-82.6368L768.7168 336.7936z m0 478.208c-17.7152 0-29.4912-5.9392-41.3696-17.7152l-123.904-124.0064c-11.776-11.776-17.7152-23.6544-17.7152-41.3696s5.9392-29.4912 17.7152-41.3696l165.2736-165.2736 165.2736 165.2736c11.776 11.776 17.7152 23.6544 17.7152 41.3696s-5.9392 29.4912-17.7152 41.3696L809.984 797.2864c-11.776 11.776-23.552 17.7152-41.2672 17.7152z m0 0M562.0736 307.2h295.2192c64.9216 0 118.0672-53.1456 118.0672-118.0672v-177.152c0-64.9216-53.1456-118.0672-118.0672-118.0672h-177.152c-64.9216 0-118.0672 53.1456-118.0672 118.0672V307.2z m0 0"  horiz-adv-x="1024" />
      
      <glyph glyph-name="fabiaowenzhang" unicode="&#59038;" d="M651.264 13.312c-12.8-12.8-23.04-23.04-31.744-32.256-8.704-8.704-13.312-13.824-14.336-14.848-4.608-3.584-9.728-7.168-14.848-11.264-5.632-4.096-10.752-7.168-16.384-10.24-5.632-3.072-13.824-6.144-25.088-10.24-11.776-4.096-23.04-7.68-34.816-11.264-11.776-3.584-23.04-7.168-33.792-9.216-10.752-2.56-18.944-4.608-24.576-5.632-10.752-1.536-17.92-0.512-22.016 4.096-3.584 4.608-4.608 12.288-2.56 23.04 1.024 5.12 2.56 13.312 5.632 24.064 2.56 10.752 5.632 22.016 9.728 32.768 3.584 11.264 7.168 22.016 10.24 31.232 3.584 10.24 6.144 16.384 7.68 20.48 5.632 11.776 12.8 22.016 22.016 30.72l17.408 17.408 33.792 33.792c13.824 13.312 28.672 28.16 45.056 45.056l49.152 49.152c38.912 38.4 82.944 81.408 131.584 128.512l114.176-112.64-226.304-222.72z m303.104 296.96c-4.608-4.608-8.704-8.704-12.288-12.8s-6.656-7.168-9.728-10.24c-3.584-3.584-31.744-31.744-34.816-33.792l-115.712 112.64c5.632 4.608 36.864 35.84 43.52 41.984 6.656 6.144 12.288 11.264 16.896 14.848 10.752 9.728 22.528 13.824 35.328 12.8 12.8-1.536 23.04-4.096 31.232-8.704 9.216-4.608 18.944-12.288 29.184-23.552 10.752-11.264 18.432-23.04 24.064-35.84 2.56-7.168 4.608-16.384 5.632-26.624 1.024-10.24-3.584-20.48-13.312-30.72zM754.688 860.16H148.48c-47.104 0-92.16-37.888-92.16-84.48v-758.784c0-46.592 45.056-91.136 92.672-91.136h124.416L847.36 492.032V775.68c0 46.592-45.056 84.48-92.672 84.48zM433.664 246.272h-220.16V302.08h220.16v-55.808z m0 178.176h-220.16V480.256h220.16v-55.808z m257.024 176.64H212.992V656.896h477.696v-55.808z"  horiz-adv-x="1024" />
      
      <glyph glyph-name="wenzhangliebiao" unicode="&#58924;" d="M662.4 612.8c-6.7 0-12.6 2.4-17.7 7.1-5.1 4.7-9.3 10.4-12.6 17.2-3.4 6.7-5.9 13.6-7.6 20.7-1.7 7.1-2.5 13-2.5 17.7L622 800.8l2 0c5.4 0 10.9-0.8 16.7-2.5 5.7-1.7 12.5-4.9 20.2-9.6 7.7-4.7 17.2-11.6 28.3-20.7 11.1-9.1 25.1-21.1 41.9-35.9 18.2-16.2 32.5-30 43-41.4 10.4-11.5 18.5-21.1 24.3-28.8s9.3-14.3 10.6-19.7c1.3-5.4 2-10.1 2-14.2l0-15.2L662.4 612.8 662.4 612.8zM491.6 41.7c-0.7-4.7-1-9.4-1-14.2l0-15.2c0-30.3 4.4-59 13.1-85.9 8.8-27 20.9-52.2 36.4-75.8l-357.8 0c-12.8 0-26.8 3.7-41.9 11.1-15.2 7.4-29.3 17.2-42.5 29.3-13.1 12.1-24.1 25.9-32.8 41.4-8.8 15.5-13.1 31.7-13.1 48.5L52 670.4c0 14.2 3.4 28.8 10.1 44 6.7 15.2 15.5 29.1 26.3 41.9s23.2 23.4 37.4 31.8c14.2 8.4 29 12.6 44.5 12.6l387.1 0L557.4 674.4c0-13.5 2-27.5 6.1-41.9 4-14.5 10.4-28.1 19.2-40.9 8.8-12.8 19.9-23.2 33.4-31.3 13.5-8.1 29.3-12.1 47.5-12.1L811 548.2l0-251.7c-5.4 1.3-11.1 2-17.2 2l-18.2 0c-50.5 0-96.7-11.8-138.5-35.4-41.8-23.6-75.5-55.3-101.1-95l-294.1 0c-17.5 0-32.5-6.1-45-18.2-12.5-12.1-18.7-27-18.7-44.5 0-17.5 6.2-32.5 18.7-45 12.5-12.5 27.5-18.7 45-18.7L491.6 41.7 491.6 41.7zM241.9 421.7c-17.5 0-32.5-6.2-45-18.7-12.5-12.5-18.7-27.5-18.7-45 0-17.5 6.2-32.3 18.7-44.5 12.5-12.1 27.5-18.2 45-18.2l379 0c17.5 0 32.3 6.1 44.5 18.2 12.1 12.1 18.2 27 18.2 44.5s-6.1 32.5-18.2 45c-12.1 12.5-27 18.7-44.5 18.7L241.9 421.7 241.9 421.7zM779.6 233.7c31 0 60-5.7 86.9-17.2 27-11.5 50.5-27.3 70.8-47.5s36-43.8 47.5-70.8c11.5-27 17.2-55.9 17.2-86.9s-5.7-60-17.2-86.9c-11.5-27-27.3-50.5-47.5-70.8s-43.8-36-70.8-47.5c-27-11.5-55.9-17.2-86.9-17.2-30.3 0-59 5.7-85.9 17.2-27 11.5-50.5 27.3-70.8 47.5s-36.2 43.8-48 70.8-17.7 55.9-17.7 86.9c0 31 5.9 60 17.7 86.9s27.8 50.5 48 70.8 43.8 36 70.8 47.5C720.7 228 749.3 233.7 779.6 233.7L779.6 233.7zM661.6 122.2c-10.9 0-20.3-3.9-28.1-11.7-7.8-7.8-11.7-17.2-11.7-28.1s3.9-20.2 11.7-27.8c7.8-7.6 17.2-11.4 28.1-11.4l236.8 0c10.9 0 20.2 3.8 27.8 11.4 7.6 7.6 11.4 16.8 11.4 27.8s-3.8 20.3-11.4 28.1c-7.6 7.8-16.8 11.7-27.8 11.7L661.6 122.2 661.6 122.2zM661.6-20.5c-10.9 0-20.3-3.9-28.1-11.7-7.8-7.8-11.7-17.2-11.7-28.1s3.9-20.2 11.7-27.8c7.8-7.6 17.2-11.4 28.1-11.4l236.8 0c10.9 0 20.2 3.8 27.8 11.4 7.6 7.6 11.4 16.8 11.4 27.8s-3.8 20.3-11.4 28.1c-7.6 7.8-16.8 11.7-27.8 11.7L661.6-20.5 661.6-20.5z"  horiz-adv-x="1024" />
      
      <glyph glyph-name="yonghuliebiao" unicode="&#58899;" d="M654.359545 217.494897a62.831799 62.831799 0 0 0 25.395919 57.753815 67.030786 67.030786 0 0 1-31.743898 12.69696l-6.34898 6.553979a242.339226 242.339226 0 0 1 63.282798 51.199836 327.472954 327.472954 0 0 1 95.231696 223.845285c-5.799981 174.159444-142.914544 315.439993-316.823989 326.448958a315.575992 315.575992 0 0 1-316.824988-326.448958 301.749036 301.749036 0 0 1 95.026697-224.049284 276.479117 276.479117 0 0 1 69.836777-51.199837 435.956608 435.956608 0 0 1-139.468555-89.497714 380.618785 380.618785 0 0 1-88.677717-134.55257A449.552564 449.552564 0 0 1 71.501407-89.703122c1.375996-20.475935 17.623944-36.811882 38.092878-38.296878h380.107786a79.318747 79.318747 0 0 0-6.34998 38.296878 69.323779 69.323779 0 0 0 25.19092 57.549816 86.015725 86.015725 0 0 0 25.394919 19.249938c-33.768892 10.340967-56.855818 41.482868-56.933818 76.799755 0.583998 45.359855 36.976882 82.115738 82.329737 83.148735h38.091878a115.75263 115.75263 0 0 0 44.236859-12.69796l50.789838 12.69796a111.737643 111.737643 0 0 0-38.091879 70.449775zM907.902736 102.399264H686.104444a37.867879 37.867879 0 0 1-32.972895-19.249938 39.095875 39.095875 0 0 1 0-38.502877 37.68288 37.68288 0 0 1 32.972895-19.04594h221.797292a37.60088 37.60088 0 0 1 32.767895 19.04594 38.501877 38.501877 0 0 1-32.767895 57.752815zM705.150383 217.494897c1.345996-20.411935 17.490944-36.731883 37.887879-38.296878h171.007454a37.867879 37.867879 0 0 1 32.972895 19.250939 38.706876 38.706876 0 0 1 0 38.297877 37.867879 37.867879 0 0 1-32.972895 19.249939H743.039262a36.392884 36.392884 0 0 1-27.442912-10.648966 36.863882 36.863882 0 0 1-10.444967-27.852911zM597.425727 25.59951c21.207932 0 38.399877 17.191945 38.399878 38.399877 0 21.206932-17.191945 38.399877-38.399878 38.399877h-38.091878a38.112878 38.112878 0 0 1-32.972895-19.251938 39.095875 39.095875 0 0 1 0-38.501877 37.928879 37.928879 0 0 1 32.972895-19.045939h38.091878z m310.271009-76.799755H686.104444a37.867879 37.867879 0 0 1-32.972895-19.250939 38.706876 38.706876 0 0 1 0-38.297877A37.867879 37.867879 0 0 1 686.104444-128h227.941272c20.469935 1.484995 36.716883 17.819943 38.092878 38.296878a54.517826 54.517826 0 0 1-44.441858 38.502877z m-310.271009 0h-38.091878a38.112878 38.112878 0 0 1-32.972895-19.250939 38.706876 38.706876 0 0 1 0-38.297877A38.112878 38.112878 0 0 1 559.333849-128h38.091878c21.207932 0 38.399877 17.191945 38.399878 38.399877s-17.191945 38.399877-38.399878 38.399878z"  horiz-adv-x="1024" />
      
      <glyph glyph-name="xiaoxi" unicode="&#58893;" d="M576.853333 421.546667l351.573334 331.093333c-17.066667 17.066667-40.96 27.306667-64.853334 27.306667h-699.733333c-27.306667 0-47.786667-10.24-64.853333-27.306667l351.573333-331.093333c34.133333-34.133333 88.746667-34.133333 126.293333 0zM576.853333 315.733333c-34.133333-34.133333-92.16-34.133333-126.293333 0L68.266667 670.72v-590.506667c0-51.2 40.96-92.16 92.16-92.16h699.733333c51.2 0 92.16 40.96 92.16 92.16V670.72l-375.466667-354.986667z"  horiz-adv-x="1024" />
      
      <glyph glyph-name="liuyan" unicode="&#58886;" d="M800.941 489.428a363.67 363.67 0 0 0-2.763-25.749C776.735 315.091 658.932 207.23 518.094 207.23H472.22l-8.406-8.764c31.631-58.692 90.435-97.028 156.53-97.028h45.593l90.226-94.185a30.17 30.17 0 0 1 21.808-9.327c3.777 0 7.586 0.71 11.257 2.186 11.43 4.57 18.909 15.668 18.909 27.981v76.995c83.988 17.422 146.168 96.328 146.168 191.625 0 97.472-66.654 178.233-153.365 192.715zM755.185 469.874c2.1 14.6 3.112 27.722 3.112 40.17 0 142.983-107.756 259.337-240.202 259.337h-207.53c-132.46 0-240.221-116.354-240.221-259.338 0-128.374 84.829-234.279 198.528-255.466v-109.324a35.16 35.16 0 0 1 22.053-32.62c4.262-1.699 8.685-2.546 13.072-2.546 9.436 0 18.65 3.803 25.412 10.857l124.25 129.748h64.436c119.042-0.001 218.742 92.174 237.09 219.182zM243.792 590.199h337.615c9.438 0 17.13-8.124 17.13-18.106 0-9.986-7.692-18.096-17.13-18.096H243.792c-9.455 0-17.139 8.11-17.139 18.096 0 9.982 7.683 18.106 17.139 18.106z m202.705-167.99H243.792c-9.455 0-17.139 8.105-17.139 18.075 0 10.007 7.684 18.13 17.139 18.13h202.705c9.436 0 17.144-8.123 17.144-18.13 0-9.97-7.708-18.074-17.144-18.074z"  horiz-adv-x="1024" />
      
      <glyph glyph-name="fenlei" unicode="&#59500;" d="M0 896h460.8v-460.8H0zM563.2 896h460.8v-460.8h-460.8zM0 332.8h460.8v-460.8H0zM563.2 332.8h460.8v-460.8h-460.8z"  horiz-adv-x="1024" />
      
      <glyph glyph-name="shouye" unicode="&#58910;" d="M563.197497 896 460.802503 896 0.012259 409.611773c0 0 0.901006-102.396016 51.200051-102.396016s76.797012 0 76.797012 0 0-232.496449 0-332.816677c0-100.300818 102.397038-102.399081 102.397038-102.399081l204.79714 0c0 0 0 272.419617 0 358.416702 0 25.647017 25.600026 25.600026 25.600026 25.600026l102.394994 0c0 0 25.601047-0.851972 25.601047-25.600026 0-92.198911 0-358.416702 0-358.416702s99.647027 0 204.795097 0c105.147048 0 102.398059 102.399081 102.398059 102.399081L895.992721 332.814761c0 0 27.19875 0 76.799055 0 49.59724 0 51.195965 76.79599 51.195965 76.79599L563.197497 896z"  horiz-adv-x="1024" />
      
      <glyph glyph-name="wendang" unicode="&#58914;" d="M847.644444-128H150.755556c-48.355556 5.688889-88.177778 42.666667-93.866667 93.866667V802.133333C62.577778 850.488889 102.4 890.311111 150.755556 896h466.488888l327.111112-327.111111v-605.866667c-8.533333-48.355556-48.355556-85.333333-96.711112-91.022222z m0 696.888889h-184.888888c-25.6 2.844444-45.511111 22.755556-45.511112 45.511111V802.133333H196.266667c-25.6 2.844444-45.511111-17.066667-45.511111-42.666666v-748.088889c5.688889-22.755556 22.755556-42.666667 45.511111-45.511111h605.866666c25.6 2.844444 45.511111 22.755556 45.511111 45.511111V568.888889z m-139.377777-512H241.777778c-25.6 0-45.511111 19.911111-45.511111 45.511111 0 25.6 19.911111 45.511111 45.511111 45.511111h466.488889c25.6 0 45.511111-19.911111 45.511111-45.511111 0-22.755556-19.911111-45.511111-45.511111-45.511111zM241.777778 338.488889h233.244444c25.6 0 45.511111-19.911111 45.511111-45.511111 0-25.6-19.911111-45.511111-45.511111-45.511111H241.777778c-25.6 0-45.511111 19.911111-45.511111 45.511111 0 22.755556 19.911111 45.511111 45.511111 45.511111z m466.488889 91.022222H241.777778c-25.6 0-45.511111 19.911111-45.511111 45.511111 0 25.6 19.911111 45.511111 45.511111 45.511111h466.488889c25.6 0 45.511111-19.911111 45.511111-45.511111 0-22.755556-19.911111-45.511111-45.511111-45.511111z"  horiz-adv-x="1024" />
      
      <glyph glyph-name="xitong" unicode="&#58880;" d="M514.4 832.6c-1.2 0.1-2.4 0.2-3.6 0.2-1.3 0-2.5-0.1-3.7-0.2C262.2 830.1 64.4 631.2 63.5 386v-1.6c0-247.5 200.7-448.2 448.2-448.2s448.2 200.7 448.2 448.2c0 246.6-199.2 446.7-445.5 448.2z m28-320.3c48.3 2.1 95.1 9.9 139.8 22.6 10.6-37.7 17.2-77.1 19.5-117.7H542.4v95.1z m0 64.3V767.3c2-0.2 4.1-0.3 6.1-0.5 47.6-49 86.1-106.9 112.6-171-38-10.6-77.8-17.2-118.7-19.2z m-63.2 190.5V577c-39.7 2.6-78.3 9.4-115.2 20 27.3 63.8 66.3 121.4 114.5 170 0.2 0.1 0.5 0.1 0.7 0.1z m0-254.4v-95.5H321.4c2.5 41.2 9.6 81.2 20.8 119.4 43.9-13 89.7-21.1 137-23.9z m-222.1-95.5H129c5.8 68.3 29.5 131.6 66.3 185.1 27.4-16.9 56.2-31.7 86.3-44.2-13.4-45.1-21.8-92.2-24.5-140.9z m-0.2-63.2c2.4-50 10.8-98.3 24.5-144.4-29.8-12.4-58.3-27-85.5-43.8-37.7 54.2-61.7 118.6-67.1 188.2h128.1z m64.3 0h158v-99c-47.4-2.7-93.4-10.9-137.2-23.9-11.5 39.3-18.6 80.5-20.8 122.9z m158-163.4v-189c-1 0.1-2.1 0.2-3.1 0.3-47.3 48.3-85.7 105.4-112.6 168.5 37.1 10.8 75.8 17.6 115.7 20.2z m63.2-189.1V191.1c40-2 78.9-8.3 116.2-18.4-27.6-64.4-67.2-122.4-116.2-171.2 0.1 0 0 0 0 0z m0 253.9V354h159.1c-2.5-41.7-9.7-82.1-21-120.7-44.2 12.4-90.4 20-138.1 22.1zM765.7 354h128.9c-5.4-68.4-28.6-131.7-65.1-185.3-28 16.9-57.6 31.7-88.3 44 13.5 45.1 21.9 92.4 24.5 141.3z m0.2 63.2c-2.3 47.8-10.1 94.3-22.9 138.6 30.3 12.2 59.4 26.8 87 43.6 35.7-52.8 58.7-115 64.4-182.1H765.9z m23.4 232.7c-21.5-12.6-44-23.7-67.3-33.3-18.1 44.6-41.4 86.5-69.1 125.1 52-20.6 98.4-52.2 136.4-91.8z m-415.7 93c-28-38.3-51.7-80-70.3-124.3-23.1 9.8-45.4 21.1-66.7 33.8 38.2 39.3 84.9 70.4 137 90.5zM237.2 115.7c21 12.5 43 23.6 65.7 33.2 18.2-43.5 41.2-84.5 68.5-122.3-50.9 20.1-96.5 50.7-134.2 89.1z m409.9-90.8c29 39.1 53.4 81.8 72.4 127.3 23.9-9.7 47-21 69.1-33.9-39.2-40.9-87.5-73.1-141.5-93.4z"  horiz-adv-x="1024" />
      
      <glyph glyph-name="pinglunzu" unicode="&#59237;" d="M698.6 584.4c28-35.1 42-73.3 42-114.7s-14-79.6-42-114.7c-28-35.1-66.2-62.9-114.6-83.3-48.4-20.4-100.9-30.6-157.8-30.6-25.6 0-51.8 2.3-78.6 7.1-36.9-26.2-78.3-45.3-124.1-57.2-10.7-2.7-23.5-5.1-38.4-7.1h-1.3c-3.3 0-6.3 1.2-9.1 3.6-2.8 2.3-4.5 5.5-5.2 9.4-0.3 0.9-0.5 1.9-0.5 2.9s0.1 2 0.2 2.9c0.2 0.9 0.5 1.8 0.9 2.7s0.8 1.6 1.1 2.3c0.3 0.6 0.8 1.4 1.6 2.4s1.3 1.8 1.8 2.3 1.1 1.2 2 2.3c0.9 1 1.5 1.7 1.8 2 1.5 1.8 4.9 5.5 10.2 11.2 5.4 5.6 9.2 10 11.6 13.1 2.3 3.1 5.7 7.4 10 13s8.1 11.3 11.2 17.2c3.1 5.9 6.2 12.5 9.1 19.6-36.9 21.4-65.9 47.8-87 79.1-21 31.3-31.5 64.6-31.5 100 0 41.4 14 79.6 42 114.7s66.1 62.9 114.6 83.3c48.4 20.4 100.9 30.6 157.8 30.6 56.8 0 109.5-10.2 157.8-30.6 48.3-20.5 86.4-48.3 114.4-83.5z m213.4-229c0-35.7-10.6-69.1-31.7-100.2s-50.1-57.4-87-78.8c3-7.1 6-13.7 9.1-19.6 3.1-5.9 6.9-11.6 11.2-17.2 4.3-5.5 7.7-9.9 10-13 2.3-3.1 6.3-7.5 11.6-13.1s8.7-9.4 10.2-11.2c0.3-0.3 0.9-0.9 1.8-2 0.9-1 1.6-1.8 2-2.3s1-1.2 1.8-2.3c0.8-1 1.2-1.9 1.6-2.4 0.3-0.6 0.7-1.3 1.1-2.3s0.8-1.8 0.9-2.7 0.2-1.9 0.2-2.9-0.2-2-0.5-2.9c-0.9-4.1-2.8-7.4-5.8-9.9-3-2.3-6.3-3.4-9.9-3.1-14.9 2.1-27.7 4.5-38.4 7.1-45.8 11.9-87.2 31-124.1 57.2-26.8-4.8-53-7.1-78.6-7.1-80.7 0-150.9 19.6-210.7 59 17.3-1.2 30.3-1.8 39.2-1.8 47.9 0 93.9 6.7 137.9 20.1 44 13.4 83.3 32.6 117.8 57.6 37.2 27.4 65.7 59 85.7 94.6 19.9 35.7 30 73.5 30 113.4 0 22.9-3.4 45.5-10.2 67.9 38.4-21.1 68.7-47.6 91.1-79.4 22.5-31.9 33.7-66 33.7-102.7z"  horiz-adv-x="1024" />
      
      <glyph glyph-name="shezhi" unicode="&#58964;" d="M372.134088-108.846981a509.94041 509.94041 0 0 0-159.298198 76.821527l2.164315 103.514738a93.088793 93.088793 0 0 1-74.238313 93.088794l-101.536602 20.991523A509.428422 509.428422 0 0 0 0.011636 358.016591l82.243949 62.834935a93.088793 93.088793 0 0 1 26.507034 116.104998l-46.89348 92.390627A514.152678 514.152678 0 0 0 172.225904 767.584009l100.419536-25.133974a93.088793 93.088793 0 0 1 107.284834 51.664281l43.007023 94.252403a515.246472 515.246472 0 0 0 88.434354 7.610009c30.137497 0 59.669917-2.606486 88.411081-7.610009l43.007023-94.252403a93.088793 93.088793 0 0 1 107.284834-51.664281l100.396264 25.133974a514.152678 514.152678 0 0 0 110.356765-138.236858l-46.870208-92.390627a93.088793 93.088793 0 0 1 26.483762-116.104998l82.243949-62.834935a509.428422 509.428422 0 0 0-39.213654-172.44699l-101.51333-20.968251a93.088793 93.088793 0 0 1-74.238312-93.088793l2.141042-103.538011a509.94041 509.94041 0 0 0-159.298198-76.798255l-79.684007 66.279221a93.088793 93.088793 0 0 1-119.060567 0l-79.684007-66.302493zM511.348378 174.538579a209.449785 209.449785 0 1 1 0 418.89957 209.449785 209.449785 0 0 1 0-418.89957z"  horiz-adv-x="1024" />
      
      <glyph glyph-name="dashujukeshihuaico-" unicode="&#59391;" d="M529.408 486.4a51.2 51.2 0 0 1 0-72.192 74.752 74.752 0 0 0 0-105.472L378.88 156.67200000000003a74.752 74.752 0 1 0-105.472 105.472l33.792 36.352a51.2 51.2 0 0 1-72.704 72.192l-33.792-37.888a177.152 177.152 0 0 1 250.368-250.368l151.04 151.04a177.152 177.152 0 0 1 0 250.368A51.2 51.2 0 0 1 529.408 486.4zM809.984 691.2a181.248 181.248 0 0 1-250.368 0L409.6 542.2080000000001a177.152 177.152 0 0 1 0-250.368 51.2 51.2 0 0 1 72.704 72.192 74.752 74.752 0 0 0 0 105.472l151.04 151.04a76.288 76.288 0 0 0 105.472 0 74.752 74.752 0 0 0 0-105.472l-36.352-36.352a51.2 51.2 0 0 1 72.192-72.704l36.352 36.352A177.152 177.152 0 0 1 809.984 691.2z"  horiz-adv-x="1024" />
      
      <glyph glyph-name="icontag" unicode="&#58909;" d="M939.133124 816.952666c-10.438747 10.526751-24.586978 16.449647-39.343053 16.449647l-338.631464-0.022513c-14.748912 0-28.904307-5.900384-39.33589-16.434298L81.44801 372.535901c-10.43056-10.534937-16.292058-24.812105-16.292058-39.70428s5.861498-29.170366 16.292058-39.697117l338.624301-341.745385c10.868535-10.961656 25.105794-16.449647 39.343053-16.449647 14.244422 0 28.481681 5.487991 39.33589 16.449647L939.133124 395.813047c10.43056 10.534937 16.299221 24.812105 16.299221 39.712467L955.432345 777.248386C955.432345 792.140561 949.563684 806.418752 939.133124 816.952666zM695.768397 459.043137c-61.458747 0-111.284549 50.284243-111.284549 112.307855s49.825802 112.307855 111.284549 112.307855 111.284549-50.284243 111.284549-112.307855S757.227144 459.043137 695.768397 459.043137z"  horiz-adv-x="1024" />
      
      <glyph glyph-name="liebiao" unicode="&#58949;" d="M313.26 84.27h646.72v99.49H313.26v-99.49z m0 298.48h646.72v99.49H313.26v-99.49z m0 397.98v-99.49h646.72v99.49H313.26zM64.53 84.27h149.24v99.49H64.53v-99.49z m0 298.48h149.24v99.49H64.53v-99.49z m0 298.49h149.24v99.49H64.53v-99.49z"  horiz-adv-x="1024" />
      
      <glyph glyph-name="user" unicode="&#58887;" d="M642.482 413.274c84.946 44.995 131.595 128.916 131.595 225.918 0.079 141.603-117.569 256.808-262.166 256.808-144.676 0-262.324-115.205-262.324-256.808 0-97.081 42.552-180.924 127.498-225.918-192.98-54.056-336.868-241.442-336.868-450.655 0-43.419 3.073-89.674 97.711-90.383 84.473-0.63 573.739 0.236 748.28 0 77.46-0.079 97.16 45.073 97.554 90.383 2.049 207.322-147.986 396.598-341.281 450.655z"  horiz-adv-x="1024" />
      
      <glyph glyph-name="fangwenliang" unicode="&#58998;" d="M776.735 418.864a263.346 263.346 0 1 1-324.507 0 445.668 445.668 0 0 1-276.657-413.416v-89.08A44.164 44.164 0 0 1 219.46-128h790.04a44.164 44.164 0 0 1 43.891 44.369v89.079a445.634 445.634 0 0 1-276.657 413.416z m263.483 16.075a224.268 224.268 0 0 1 57.065 149.42A221.367 221.367 0 0 1 877.828 807.058c-3.618 0-7.03-0.921-10.614-1.092a312.323 312.323 0 0 0 42.764-92.458h-0.443a296.93 296.93 0 0 0-59.728-290.855c20-9.113 247.067-104.745 247.067-417.17h88.226a44.369 44.369 0 0 1 43.89 44.369v69.01a355.463 355.463 0 0 1-188.772 316.078z m-661.472-12.321a296.93 296.93 0 0 0-59.761 290.855 312.05 312.05 0 0 0 42.73 92.492c-3.413 0-6.826 1.092-10.58 1.092A221.333 221.333 0 0 1 131.68 584.36a224.336 224.336 0 0 1 57.065-149.421A355.36 355.36 0 0 1 0.007 118.862v-68.874a44.164 44.164 0 0 1 43.89-44.37h87.783c-0.034 312.255 227.066 407.887 247.066 417z"  horiz-adv-x="1229" />
      
      <glyph glyph-name="mima" unicode="&#58926;" d="M789.919 512.024h-30.885v119.666c0 143.864-102.523 256.525-248.175 256.525-146.239 0-245.895-115.062-245.895-256.525v-119.666h-30.883c-68.112 0-123.511-56.234-123.511-125.396v-376.141c0-69.165 55.4-125.396 123.511-125.396h555.838c68.111 0 123.512 56.233 123.512 125.396v376.141c0 69.165-55.402 125.396-123.512 125.396zM326.708 631.69c0 106.832 71.956 193.826 184.15 193.826 111.022 0 186.408-85.133 186.408-193.826v-119.666h-370.558v119.666zM851.661 10.485c0-34.581-27.7-62.699-61.743-62.699h-555.838c-34.044 0-61.768 28.116-61.768 62.699v376.141c0 34.582 27.724 62.699 61.768 62.699h555.838c34.043 0 61.743-28.116 61.743-62.699v-376.141zM511.986 323.976c-34.092 0-61.743-28.115-61.743-62.746 0-23.209 12.428-43.457 30.883-54.296v-102.45c0-17.292 13.814-31.3 30.859-31.3 17.071 0 30.885 14.008 30.885 31.3v102.455c18.459 10.841 30.886 31.086 30.886 54.292 0 34.63-27.653 62.746-61.771 62.746z"  horiz-adv-x="1024" />
      
      <glyph glyph-name="tuichu" unicode="&#59074;" d="M744.448 407.04l-174.08 167.424c-13.824 13.312-34.816 13.312-48.64 0s-13.824-33.792 0-47.104l114.688-110.592H302.592c-20.992 0-34.816-13.312-34.816-33.792 0-20.48 13.824-33.792 34.816-33.792h333.824l-114.688-110.592c-13.824-13.312-13.824-33.792 0-47.104 7.168-7.168 13.824-9.728 24.064-9.728s17.408 3.584 24.064 9.728l174.08 171.008s0 3.584 3.584 3.584c10.752 10.752 10.752 31.232-3.072 40.96z m132.608-257.536c-20.992 0-34.816-13.312-34.816-33.792v-67.072c0-20.48-13.824-33.792-34.816-33.792H215.552c-20.992 0-34.816 13.312-34.816 33.792V718.848c0 20.48 13.824 33.792 34.816 33.792h591.36c20.992 0 34.816-13.312 34.816-33.792v-67.072c0-20.48 13.824-33.792 34.816-33.792s34.816 13.312 34.816 33.792V718.848c0 56.832-45.056 100.352-104.448 100.352H215.552c-58.88 0-103.936-43.52-103.936-100.352v-669.696c0-56.832 45.056-100.352 104.448-100.352h591.36c58.88 0 104.448 43.52 104.448 100.352v67.072c0 19.968-13.824 33.28-34.816 33.28z"  horiz-adv-x="1024" />
      
      <glyph glyph-name="icwindowzoom48px" unicode="&#58883;" d="M689.336406 472.919169l175.621856 170.201403 92.037183-93.121887 0.078795 278.064017L689.336406 828.0627010000001l80.462566-88.700181L601.591993 561.7053080000001 689.336406 472.919169zM601.591993 207.60043099999996l170.202427-175.618786-93.16589-92.037183 278.105972-0.432859L956.734502 207.60043099999996l-88.655156-80.462566L690.377108 295.345868 601.591993 207.60043099999996zM336.275301 295.345868L160.653445 125.14446399999997 68.616262 218.26737500000002l0.870834-278.104949 266.788206 0.039909-80.461543 88.700181 168.20698 177.657212L336.275301 295.345868zM424.019715 560.6646049999999l-170.20038 175.61981 93.163843 92.037183L68.245825 828.233594l0.63138-267.568988 88.656179 80.462566 177.701215-168.20698L424.019715 560.6646049999999z"  horiz-adv-x="1024" />
      
      <glyph glyph-name="dianzan" unicode="&#58892;" d="M884.876 472.857h-237.905c92.186 340.464-63.517 357.853-63.517 357.853-65.993 0-52.312-52.182-57.303-60.882 0-166.502-176.85-296.972-176.85-296.972v-472.172c0-46.608 63.517-63.394 88.433-63.394h357.452c33.641 0 61.036 88.224 61.036 88.224 88.434 300.706 88.434 390.177 88.434 390.177 0.001 62.128-59.781 57.164-59.781 57.164v0 0zM251.671 472.7h-142.457c-29.42 0-29.873-28.896-29.873-28.896l29.42-476.203c0-30.309 30.361-30.309 30.361-30.309h123.297c25.686 0 25.459 20.050 25.459 20.050l-0 479.247c0 36.574-36.208 36.111-36.208 36.111v0 0zM251.671 472.7z"  horiz-adv-x="1024" />
      
      <glyph glyph-name="wenzhang-copy" unicode="&#58947;" d="M788.551 603.105c-74.801 0-135.633 60.832-135.633 135.605v156.171h-487.636c-45.595 0-82.548-36.982-82.548-82.549v-856.719c0-45.567 36.955-82.493 82.548-82.493h693.46c45.571 0 82.523 36.926 82.523 82.493v647.493h-152.714zM805.084 56.884h-586.199v55.301h586.199v-55.301zM805.084 233.85h-586.199v55.301h586.199v-55.301zM805.084 410.816h-586.199v55.301h586.199v-55.301zM706.002 894.881v-156.171c0-45.567 36.955-82.493 82.549-82.493h152.714l-235.263 238.662z"  horiz-adv-x="1024" />
      
      <glyph glyph-name="guanyuwo" unicode="&#58923;" d="M146.048 91.424V698.912a130.176 130.176 0 0 0 130.176 130.176H213.6a130.176 130.176 0 0 1-130.176-130.176v-607.488a130.176 130.176 0 0 1 130.176-130.176h62.624a130.176 130.176 0 0 0-130.176 130.176zM782.88 205.696a100.576 100.576 0 1 1-18.656 0 205.824 205.824 0 0 1-196.512-205.6c0-14.272 1.408-25.344 4.192-38.816h403.488a152.32 152.32 0 0 1 4 38.816 205.824 205.824 0 0 1-196.512 205.6zM645.76 225.248a150.592 150.592 0 0 0-22.784 80.096 150.752 150.752 0 0 0 150.592 150.592c27.52 0 53.28-7.552 75.52-20.512V698.912a130.176 130.176 0 0 1-130.176 130.176H318.656A130.176 130.176 0 0 1 188.48 698.912v-607.488a130.176 130.176 0 0 1 130.176-130.176h204.928a276.832 276.832 0 0 0-3.744 44.576 253.248 253.248 0 0 0 125.92 219.424zM567.712 758.272c0 23.456 17.6 42.624 39.104 42.624h120.416c21.504 0 39.072-19.168 39.072-42.624v-188.224s-4.128-42.624-18.784-42.624-60.768 128.544-80.512 128.544c-19.776 0-51.488-128.544-72.192-128.544-20.704 0-27.104 42.624-27.104 42.624V758.272z"  horiz-adv-x="1024" />
      
    </font>
</defs>
</svg>
